CharisSIL-BoldItalic.ufo
<glyph name="QuotMrk" format="2">
  <advance width="770"/>
  <unicode hex="0022"/>
  <outline>
    <contour>
      <point x="862" y="1370" type="curve" smooth="yes"/>
      <point x="862" y="1434"/>
      <point x="823" y="1462"/>
      <point x="764" y="1462" type="curve" smooth="yes"/>
      <point x="694" y="1462"/>
      <point x="625" y="1407"/>
      <point x="623" y="1333" type="curve" smooth="yes"/>
      <point x="606" y="854" type="line"/>
      <point x="682" y="854" type="line"/>
      <point x="713" y="940"/>
      <point x="862" y="1331"/>
    </contour>
    <contour>
      <point x="461" y="1370" type="curve" smooth="yes"/>
      <point x="461" y="1434"/>
      <point x="422" y="1462"/>
      <point x="362" y="1462" type="curve" smooth="yes"/>
      <point x="293" y="1462"/>
      <point x="223" y="1407"/>
      <point x="219" y="1333" type="curve"/>
      <point x="205" y="854" type="line"/>
      <point x="281" y="854" type="line"/>
      <point x="311" y="940"/>
      <point x="461" y="1331"/>
    </contour>
  </outline>
</glyph>
<glyph name="Ampersand" format="2">
  <advance width="1526"/>
  <unicode hex="0026"/>
  <outline>
    <contour>
      <point x="1460" y="641" type="line"/>
      <point x="1460" y="752" type="line"/>
      <point x="942" y="752" type="line"/>
      <point x="942" y="641" type="line"/>
      <point x="1063" y="621" type="line"/>
      <point x="1065" y="621"/>
      <point x="1069" y="606"/>
      <point x="1067" y="602" type="curve" smooth="yes"/>
      <point x="1040" y="549"/>
      <point x="1001" y="477"/>
      <point x="952" y="414" type="curve"/>
      <point x="707" y="731" type="line"/>
      <point x="950" y="815"/>
      <point x="1118" y="932"/>
      <point x="1118" y="1124" type="curve" smooth="yes"/>
      <point x="1118" y="1264"/>
      <point x="997" y="1401"/>
      <point x="764" y="1401" type="curve" smooth="yes"/>
      <point x="453" y="1401"/>
      <point x="266" y="1225"/>
      <point x="266" y="1014" type="curve" smooth="yes"/>
      <point x="266" y="918"/>
      <point x="313" y="838"/>
      <point x="375" y="754" type="curve"/>
      <point x="180" y="653"/>
      <point x="25" y="522"/>
      <point x="25" y="322" type="curve" smooth="yes"/>
      <point x="25" y="119"/>
      <point x="176" y="-23"/>
      <point x="432" y="-23" type="curve" smooth="yes"/>
      <point x="629" y="-23"/>
      <point x="764" y="37"/>
      <point x="870" y="109" type="curve"/>
      <point x="930" y="45"/>
      <point x="983" y="14"/>
      <point x="1051" y="0" type="curve"/>
      <point x="1102" y="-8"/>
      <point x="1155" y="-10"/>
      <point x="1206" y="-6" type="curve" smooth="yes"/>
      <point x="1245" y="-4"/>
      <point x="1292" y="0"/>
      <point x="1391" y="4" type="curve"/>
      <point x="1391" y="111" type="line"/>
      <point x="1233" y="111"/>
      <point x="1157" y="141"/>
      <point x="1059" y="270" type="curve"/>
      <point x="1161" y="377"/>
      <point x="1251" y="508"/>
      <point x="1309" y="625" type="curve"/>
    </contour>
    <contour>
      <point x="836" y="1108" type="curve" smooth="yes"/>
      <point x="836" y="973"/>
      <point x="752" y="891"/>
      <point x="627" y="831" type="curve"/>
      <point x="578" y="897"/>
      <point x="535" y="983"/>
      <point x="535" y="1067" type="curve" smooth="yes"/>
      <point x="535" y="1225"/>
      <point x="676" y="1280"/>
      <point x="723" y="1280" type="curve" smooth="yes"/>
      <point x="817" y="1280"/>
      <point x="836" y="1196"/>
    </contour>
    <contour>
      <point x="770" y="227" type="line"/>
      <point x="674" y="158"/>
      <point x="623" y="127"/>
      <point x="537" y="127" type="curve" smooth="yes"/>
      <point x="455" y="127"/>
      <point x="326" y="213"/>
      <point x="326" y="381" type="curve" smooth="yes"/>
      <point x="326" y="483"/>
      <point x="377" y="565"/>
      <point x="463" y="633" type="curve"/>
    </contour>
  </outline>
</glyph>
<glyph name="Apos" format="2">
  <advance width="358"/>
  <unicode hex="0027"/>
  <outline>
    <contour>
      <point x="461" y="1370" type="curve" smooth="yes"/>
      <point x="461" y="1434"/>
      <point x="422" y="1462"/>
      <point x="362" y="1462" type="curve" smooth="yes"/>
      <point x="293" y="1462"/>
      <point x="223" y="1407"/>
      <point x="219" y="1333" type="curve"/>
      <point x="205" y="854" type="line"/>
      <point x="281" y="854" type="line"/>
      <point x="311" y="940"/>
      <point x="461" y="1305"/>
    </contour>
  </outline>
</glyph>
<glyph name="FullStop" format="2">
  <advance width="651"/>
  <unicode hex="002E"/>
  <outline>
    <contour>
      <point x="391" y="145" type="curve" smooth="yes"/>
      <point x="391" y="240"/>
      <point x="315" y="317"/>
      <point x="221" y="317" type="curve" smooth="yes"/>
      <point x="127" y="317"/>
      <point x="49" y="240"/>
      <point x="49" y="145" type="curve" smooth="yes"/>
      <point x="49" y="51"/>
      <point x="127" y="-25"/>
      <point x="221" y="-25" type="curve" smooth="yes"/>
      <point x="315" y="-25"/>
      <point x="391" y="51"/>
    </contour>
  </outline>
</glyph>
<glyph name="Solidus" format="2">
  <advance width="1026"/>
  <unicode hex="002F"/>
  <outline>
    <contour>
      <point x="1026" y="1374" type="line"/>
      <point x="864" y="1374" type="line"/>
      <point x="0" y="-190" type="line"/>
      <point x="160" y="-190" type="line"/>
    </contour>
  </outline>
</glyph>
<glyph name="DigitTwo" format="2">
  <advance width="1225"/>
  <unicode hex="0032"/>
  <anchor x="470" y="-100" name="L"/>
  <anchor x="758" y="1500" name="U"/>
  <outline>
    <contour>
      <point x="1182" y="1096" type="curve" smooth="yes"/>
      <point x="1182" y="1307"/>
      <point x="1024" y="1407"/>
      <point x="760" y="1407" type="curve" smooth="yes"/>
      <point x="436" y="1407"/>
      <point x="211" y="1286"/>
      <point x="211" y="1098" type="curve" smooth="yes"/>
      <point x="211" y="1028"/>
      <point x="272" y="969"/>
      <point x="367" y="969" type="curve" smooth="yes"/>
      <point x="446" y="969"/>
      <point x="489" y="1006"/>
      <point x="506" y="1024" type="curve"/>
      <point x="547" y="1237" type="line"/>
      <point x="573" y="1249"/>
      <point x="635" y="1276"/>
      <point x="694" y="1276" type="curve" smooth="yes"/>
      <point x="758" y="1276"/>
      <point x="860" y="1231"/>
      <point x="860" y="1071" type="curve" smooth="yes"/>
      <point x="860" y="778"/>
      <point x="578" y="561"/>
      <point x="-16" y="145" type="curve"/>
      <point x="-43" y="0" type="line"/>
      <point x="1024" y="0" type="line"/>
      <point x="1092" y="360" type="line"/>
      <point x="934" y="360" type="line"/>
      <point x="864" y="190" type="line"/>
      <point x="342" y="190" type="line"/>
      <point x="949" y="590"/>
      <point x="1182" y="837"/>
    </contour>
  </outline>
</glyph>
<glyph name="DigitFour" format="2">
  <advance width="1225"/>
  <unicode hex="0034"/>
  <anchor x="480" y="-100" name="L"/>
  <anchor x="768" y="1500" name="U"/>
  <outline>
    <contour>
      <point x="1157" y="567" type="line"/>
      <point x="971" y="567" type="line"/>
      <point x="1135" y="1407" type="line"/>
      <point x="903" y="1407" type="line"/>
      <point x="70" y="555" type="line"/>
      <point x="43" y="408" type="line"/>
      <point x="659" y="408" type="line"/>
      <point x="567" y="-55" type="line"/>
      <point x="846" y="-55" type="line"/>
      <point x="936" y="408" type="line"/>
      <point x="1126" y="408" type="line"/>
    </contour>
    <contour>
      <point x="774" y="981" type="line"/>
      <point x="692" y="567" type="line"/>
      <point x="371" y="567" type="line"/>
    </contour>
  </outline>
</glyph>
<glyph name="Colon" format="2">
  <advance width="651"/>
  <unicode hex="003A"/>
  <outline>
    <contour>
      <point x="530" y="848" type="curve" smooth="yes"/>
      <point x="530" y="942"/>
      <point x="455" y="1020"/>
      <point x="360" y="1020" type="curve" smooth="yes"/>
      <point x="266" y="1020"/>
      <point x="188" y="942"/>
      <point x="188" y="848" type="curve" smooth="yes"/>
      <point x="188" y="754"/>
      <point x="266" y="678"/>
      <point x="360" y="678" type="curve" smooth="yes"/>
      <point x="455" y="678"/>
      <point x="530" y="754"/>
    </contour>
    <contour>
      <point x="391" y="145" type="curve" smooth="yes"/>
      <point x="391" y="240"/>
      <point x="315" y="317"/>
      <point x="221" y="317" type="curve" smooth="yes"/>
      <point x="127" y="317"/>
      <point x="49" y="240"/>
      <point x="49" y="145" type="curve" smooth="yes"/>
      <point x="49" y="51"/>
      <point x="127" y="-25"/>
      <point x="221" y="-25" type="curve" smooth="yes"/>
      <point x="315" y="-25"/>
      <point x="391" y="51"/>
    </contour>
  </outline>
</glyph>
<glyph name="LtnCapF" format="2">
  <advance width="1139"/>
  <unicode hex="0046"/>
  <anchor x="442" y="-100" name="L"/>
  <anchor x="730" y="1500" name="U"/>
  <outline>
    <contour>
      <point x="-31" y="0" type="line"/>
      <point x="602" y="0" type="line"/>
      <point x="602" y="102" type="line"/>
      <point x="469" y="113" type="line"/>
      <point x="442" y="115"/>
      <point x="426" y="119"/>
      <point x="430" y="143" type="curve" smooth="yes"/>
      <point x="526" y="631" type="line"/>
      <point x="745" y="631" type="line" smooth="yes"/>
      <point x="766" y="631"/>
      <point x="795" y="621"/>
      <point x="793" y="602" type="curve" smooth="yes"/>
      <point x="770" y="449" type="line"/>
      <point x="924" y="449" type="line"/>
      <point x="1018" y="932" type="line"/>
      <point x="866" y="932" type="line"/>
      <point x="825" y="784" type="line" smooth="yes"/>
      <point x="819" y="764"/>
      <point x="788" y="756"/>
      <point x="768" y="756" type="curve" smooth="yes"/>
      <point x="551" y="756" type="line"/>
      <point x="647" y="1251" type="line"/>
      <point x="973" y="1251" type="line" smooth="yes"/>
      <point x="995" y="1251"/>
      <point x="1020" y="1245"/>
      <point x="1020" y="1225" type="curve" smooth="yes"/>
      <point x="1020" y="1028" type="line"/>
      <point x="1186" y="1028" type="line"/>
      <point x="1253" y="1374" type="line"/>
      <point x="195" y="1374" type="line"/>
      <point x="195" y="1272" type="line"/>
      <point x="311" y="1262" type="line"/>
      <point x="338" y="1260"/>
      <point x="354" y="1255"/>
      <point x="350" y="1231" type="curve" smooth="yes"/>
      <point x="137" y="145" type="line" smooth="yes"/>
      <point x="131" y="119"/>
      <point x="117" y="115"/>
      <point x="86" y="113" type="curve"/>
      <point x="-31" y="102" type="line"/>
    </contour>
  </outline>
</glyph>
<glyph name="LtnCapU" format="2">
  <advance width="1534"/>
  <unicode hex="0055"/>
  <anchor x="659" y="0" name="H"/>
  <anchor x="657" y="-100" name="L"/>
  <anchor x="988" y="0" name="O"/>
  <anchor x="1650" y="1350" name="R"/>
  <anchor x="945" y="1500" name="U"/>
  <outline>
    <contour>
      <point x="680" y="-33" type="curve" smooth="yes"/>
      <point x="1057" y="-33"/>
      <point x="1239" y="156"/>
      <point x="1294" y="440" type="curve" smooth="yes"/>
      <point x="1452" y="1229" type="line" smooth="yes"/>
      <point x="1456" y="1247"/>
      <point x="1466" y="1260"/>
      <point x="1485" y="1262" type="curve" smooth="yes"/>
      <point x="1620" y="1272" type="line"/>
      <point x="1620" y="1374" type="line"/>
      <point x="1071" y="1374" type="line"/>
      <point x="1071" y="1272" type="line"/>
      <point x="1188" y="1262" type="line"/>
      <point x="1221" y="1260"/>
      <point x="1231" y="1255"/>
      <point x="1227" y="1231" type="curve" smooth="yes"/>
      <point x="1083" y="512" type="line" smooth="yes"/>
      <point x="1038" y="287"/>
      <point x="946" y="121"/>
      <point x="733" y="121" type="curve" smooth="yes"/>
      <point x="610" y="121"/>
      <point x="487" y="188"/>
      <point x="487" y="362" type="curve" smooth="yes"/>
      <point x="487" y="399"/>
      <point x="494" y="465"/>
      <point x="510" y="543" type="curve" smooth="yes"/>
      <point x="651" y="1229" type="line" smooth="yes"/>
      <point x="655" y="1253"/>
      <point x="670" y="1260"/>
      <point x="694" y="1262" type="curve"/>
      <point x="821" y="1272" type="line"/>
      <point x="821" y="1374" type="line"/>
      <point x="203" y="1374" type="line"/>
      <point x="203" y="1272" type="line"/>
      <point x="317" y="1262" type="line"/>
      <point x="346" y="1260"/>
      <point x="362" y="1255"/>
      <point x="358" y="1231" type="curve" smooth="yes"/>
      <point x="215" y="543" type="line" smooth="yes"/>
      <point x="197" y="451"/>
      <point x="188" y="371"/>
      <point x="188" y="332" type="curve" smooth="yes"/>
      <point x="188" y="78"/>
      <point x="377" y="-33"/>
    </contour>
  </outline>
</glyph>
<glyph name="LtnCapY" format="2">
  <advance width="1395"/>
  <unicode hex="0059"/>
  <anchor x="585" y="-100" name="L"/>
  <anchor x="804" y="0" name="O"/>
  <anchor x="873" y="1500" name="U"/>
  <outline>
    <contour>
      <point x="303" y="0" type="line"/>
      <point x="922" y="0" type="line"/>
      <point x="922" y="102" type="line"/>
      <point x="805" y="113" type="line"/>
      <point x="776" y="115"/>
      <point x="762" y="119"/>
      <point x="768" y="143" type="curve" smooth="yes"/>
      <point x="854" y="575" type="line"/>
      <point x="1374" y="1237" type="line" smooth="yes"/>
      <point x="1380" y="1245"/>
      <point x="1397" y="1260"/>
      <point x="1411" y="1262" type="curve" smooth="yes"/>
      <point x="1542" y="1272" type="line"/>
      <point x="1542" y="1374" type="line"/>
      <point x="963" y="1374" type="line"/>
      <point x="963" y="1272" type="line"/>
      <point x="1083" y="1264" type="line" smooth="yes"/>
      <point x="1114" y="1262"/>
      <point x="1116" y="1243"/>
      <point x="1108" y="1233" type="curve" smooth="yes"/>
      <point x="770" y="786" type="line"/>
      <point x="629" y="1231" type="line"/>
      <point x="618" y="1257"/>
      <point x="639" y="1264"/>
      <point x="662" y="1264" type="curve"/>
      <point x="788" y="1272" type="line"/>
      <point x="788" y="1374" type="line"/>
      <point x="172" y="1374" type="line"/>
      <point x="172" y="1272" type="line"/>
      <point x="274" y="1264" type="line"/>
      <point x="299" y="1262"/>
      <point x="319" y="1262"/>
      <point x="326" y="1239" type="curve"/>
      <point x="555" y="559" type="line"/>
      <point x="471" y="145" type="line" smooth="yes"/>
      <point x="465" y="119"/>
      <point x="446" y="115"/>
      <point x="420" y="113" type="curve"/>
      <point x="303" y="102" type="line"/>
    </contour>
  </outline>
</glyph>
<glyph name="RtSqrBrac" format="2">
  <advance width="918"/>
  <unicode hex="005D"/>
  <outline>
    <contour>
      <point x="825" y="1450" type="line"/>
      <point x="258" y="1450" type="line"/>
      <point x="233" y="1327" type="line"/>
      <point x="549" y="1327" type="line"/>
      <point x="256" y="-152" type="line"/>
      <point x="-59" y="-152" type="line"/>
      <point x="-84" y="-270" type="line"/>
      <point x="485" y="-270" type="line"/>
    </contour>
  </outline>
</glyph>
<glyph name="LowLine" format="2">
  <advance width="700"/>
  <unicode hex="005F"/>
  <outline>
    <contour>
      <point x="570" y="-175" type="line"/>
      <point x="-130" y="-175" type="line"/>
      <point x="-163" y="-340" type="line"/>
      <point x="537" y="-340" type="line"/>
    </contour>
  </outline>
</glyph>
<glyph name="LtnSmA" format="2">
  <advance width="1163"/>
  <unicode hex="0061"/>
  <anchor x="538" y="0" name="H"/>
  <anchor x="505" y="-100" name="L"/>
  <anchor x="1069" y="0" name="O"/>
  <anchor x="1163" y="1000" name="R"/>
  <anchor x="749" y="1100" name="U"/>
  <outline>
    <contour>
      <point x="408" y="-25" type="curve" smooth="yes"/>
      <point x="506" y="-25"/>
      <point x="602" y="20"/>
      <point x="674" y="68" type="curve"/>
      <point x="700" y="8"/>
      <point x="760" y="-25"/>
      <point x="846" y="-25" type="curve" smooth="yes"/>
      <point x="950" y="-25"/>
      <point x="1066" y="23"/>
      <point x="1157" y="61" type="curve"/>
      <point x="1157" y="160" type="line"/>
      <point x="1137" y="156"/>
      <point x="989" y="117"/>
      <point x="979" y="117" type="curve" smooth="yes"/>
      <point x="930" y="117"/>
      <point x="924" y="137"/>
      <point x="924" y="199" type="curve"/>
      <point x="960" y="424"/>
      <point x="1005" y="649"/>
      <point x="1057" y="874" type="curve" smooth="yes"/>
      <point x="1061" y="893"/>
      <point x="1094" y="958"/>
      <point x="1108" y="999" type="curve"/>
      <point x="889" y="999" type="line"/>
      <point x="874" y="981" type="line"/>
      <point x="827" y="1006"/>
      <point x="764" y="1024"/>
      <point x="705" y="1024" type="curve" smooth="yes"/>
      <point x="264" y="1024"/>
      <point x="66" y="655"/>
      <point x="66" y="350" type="curve" smooth="yes"/>
      <point x="66" y="197"/>
      <point x="156" y="-25"/>
    </contour>
    <contour>
      <point x="473" y="129" type="curve" smooth="yes"/>
      <point x="360" y="129"/>
      <point x="354" y="244"/>
      <point x="354" y="362" type="curve" smooth="yes"/>
      <point x="354" y="596"/>
      <point x="473" y="905"/>
      <point x="735" y="905" type="curve" smooth="yes"/>
      <point x="758" y="905"/>
      <point x="772" y="819"/>
      <point x="768" y="807" type="curve"/>
      <point x="662" y="248" type="line"/>
      <point x="623" y="202"/>
      <point x="541" y="129"/>
    </contour>
  </outline>
</glyph>
<glyph name="LtnSmE" format="2">
  <advance width="983"/>
  <unicode hex="0065"/>
  <anchor x="423" y="0" name="H"/>
  <anchor x="410" y="-100" name="L"/>
  <anchor x="672" y="0" name="O"/>
  <anchor x="983" y="1000" name="R"/>
  <anchor x="650" y="1100" name="U"/>
  <outline>
    <contour>
      <point x="948" y="809" type="curve" smooth="yes"/>
      <point x="948" y="870"/>
      <point x="858" y="1024"/>
      <point x="657" y="1024" type="curve" smooth="yes"/>
      <point x="307" y="1024"/>
      <point x="68" y="668"/>
      <point x="68" y="356" type="curve" smooth="yes"/>
      <point x="68" y="53"/>
      <point x="260" y="-25"/>
      <point x="438" y="-25" type="curve" smooth="yes"/>
      <point x="637" y="-25"/>
      <point x="821" y="106"/>
      <point x="901" y="184" type="curve"/>
      <point x="901" y="379" type="line"/>
      <point x="676" y="184"/>
      <point x="594" y="119"/>
      <point x="506" y="119" type="curve" smooth="yes"/>
      <point x="391" y="119"/>
      <point x="352" y="223"/>
      <point x="352" y="365" type="curve" smooth="yes"/>
      <point x="352" y="387"/>
      <point x="356" y="424"/>
      <point x="358" y="449" type="curve"/>
      <point x="631" y="471"/>
      <point x="948" y="594"/>
    </contour>
    <contour>
      <point x="682" y="811" type="curve" smooth="yes"/>
      <point x="682" y="686"/>
      <point x="514" y="588"/>
      <point x="373" y="555" type="curve"/>
      <point x="410" y="705"/>
      <point x="483" y="909"/>
      <point x="610" y="909" type="curve" smooth="yes"/>
      <point x="672" y="909"/>
      <point x="682" y="858"/>
    </contour>
  </outline>
</glyph>
<glyph name="LtnSmL" format="2">
  <advance width="627"/>
  <unicode hex="006C"/>
  <anchor x="224" y="0" name="H"/>
  <anchor x="204" y="-100" name="L"/>
  <anchor x="527" y="1000" name="R"/>
  <anchor x="528" y="1580" name="U"/>
  <outline>
    <contour>
      <point x="623" y="59" type="curve"/>
      <point x="623" y="170" type="line"/>
      <point x="526" y="127"/>
      <point x="446" y="109"/>
      <point x="414" y="109" type="curve" smooth="yes"/>
      <point x="372" y="109"/>
      <point x="357" y="143"/>
      <point x="357" y="171" type="curve" smooth="yes"/>
      <point x="357" y="185"/>
      <point x="357" y="196"/>
      <point x="360" y="209" type="curve" smooth="yes"/>
      <point x="612" y="1509" type="line"/>
      <point x="477" y="1509" type="line"/>
      <point x="131" y="1444" type="line"/>
      <point x="131" y="1370" type="line"/>
      <point x="311" y="1354" type="line"/>
      <point x="88" y="205" type="line" smooth="yes"/>
      <point x="83" y="178"/>
      <point x="80" y="154"/>
      <point x="80" y="131" type="curve" smooth="yes"/>
      <point x="80" y="37"/>
      <point x="160" y="-25"/>
      <point x="295" y="-25" type="curve" smooth="yes"/>
      <point x="401" y="-25"/>
      <point x="524" y="8"/>
    </contour>
  </outline>
</glyph>
<glyph name="LtnSmQ" format="2">
  <advance width="1167"/>
  <unicode hex="0071"/>
  <anchor x="222" y="-100" name="L"/>
  <anchor x="1167" y="1000" name="R"/>
  <anchor x="765" y="1100" name="U"/>
  <outline>
    <contour>
      <point x="403" y="-449" type="line"/>
      <point x="1006" y="-449" type="line"/>
      <point x="1006" y="-356" type="line"/>
      <point x="858" y="-344" type="line"/>
      <point x="836" y="-344"/>
      <point x="832" y="-330"/>
      <point x="836" y="-311" type="curve" smooth="yes"/>
      <point x="1102" y="1024" type="line"/>
      <point x="903" y="1024" type="line"/>
      <point x="870" y="987" type="line"/>
      <point x="823" y="1008"/>
      <point x="760" y="1024"/>
      <point x="692" y="1024" type="curve" smooth="yes"/>
      <point x="291" y="1024"/>
      <point x="70" y="657"/>
      <point x="70" y="350" type="curve" smooth="yes"/>
      <point x="70" y="115"/>
      <point x="176" y="-29"/>
      <point x="395" y="-29" type="curve" smooth="yes"/>
      <point x="469" y="-29"/>
      <point x="553" y="-2"/>
      <point x="635" y="45" type="curve"/>
      <point x="563" y="-311" type="line" smooth="yes"/>
      <point x="559" y="-330"/>
      <point x="549" y="-342"/>
      <point x="528" y="-344" type="curve"/>
      <point x="403" y="-356" type="line"/>
    </contour>
    <contour>
      <point x="477" y="115" type="curve" smooth="yes"/>
      <point x="377" y="115"/>
      <point x="350" y="211"/>
      <point x="350" y="358" type="curve" smooth="yes"/>
      <point x="350" y="686"/>
      <point x="545" y="911"/>
      <point x="719" y="911" type="curve" smooth="yes"/>
      <point x="748" y="911"/>
      <point x="791" y="827"/>
      <point x="784" y="799" type="curve"/>
      <point x="672" y="236" type="line"/>
      <point x="617" y="186"/>
      <point x="559" y="115"/>
    </contour>
  </outline>
</glyph>
<glyph name="LtnSmR" format="2">
  <advance width="858"/>
  <unicode hex="0072"/>
  <anchor x="151" y="0" name="H"/>
  <anchor x="131" y="-100" name="L"/>
  <anchor x="550" y="1100" name="U"/>
  <outline>
    <contour>
      <point x="934" y="879" type="curve" smooth="yes"/>
      <point x="934" y="938"/>
      <point x="885" y="1024"/>
      <point x="778" y="1024" type="curve" smooth="yes"/>
      <point x="676" y="1024"/>
      <point x="573" y="963"/>
      <point x="500" y="887" type="curve"/>
      <point x="526" y="1024" type="line"/>
      <point x="385" y="1024" type="line"/>
      <point x="45" y="956" type="line"/>
      <point x="45" y="885" type="line"/>
      <point x="217" y="866" type="line"/>
      <point x="37" y="0" type="line"/>
      <point x="309" y="0" type="line"/>
      <point x="424" y="541" type="line" smooth="yes"/>
      <point x="450" y="664"/>
      <point x="555" y="784"/>
      <point x="684" y="848" type="curve"/>
      <point x="739" y="737" type="line"/>
      <point x="879" y="737"/>
      <point x="934" y="784"/>
    </contour>
  </outline>
</glyph>
<glyph name="LtnSmZ" format="2">
  <advance width="1006"/>
  <unicode hex="007A"/>
  <anchor x="404" y="0" name="H"/>
  <anchor x="384" y="-100" name="L"/>
  <anchor x="590" y="1100" name="U"/>
  <outline>
    <contour>
      <point x="1020" y="963" type="line"/>
      <point x="795" y="1077" type="line"/>
      <point x="739" y="948" type="line"/>
      <point x="729" y="938"/>
      <point x="715" y="936"/>
      <point x="696" y="936" type="curve" smooth="yes"/>
      <point x="670" y="936"/>
      <point x="555" y="1024"/>
      <point x="416" y="1024" type="curve" smooth="yes"/>
      <point x="225" y="1024"/>
      <point x="61" y="864"/>
      <point x="61" y="733" type="curve" smooth="yes"/>
      <point x="61" y="678"/>
      <point x="100" y="582"/>
      <point x="188" y="582" type="curve" smooth="yes"/>
      <point x="256" y="582"/>
      <point x="332" y="639"/>
      <point x="344" y="662" type="curve"/>
      <point x="223" y="791" type="line"/>
      <point x="242" y="821"/>
      <point x="326" y="850"/>
      <point x="354" y="850" type="curve" smooth="yes"/>
      <point x="401" y="850"/>
      <point x="452" y="823"/>
      <point x="514" y="784" type="curve"/>
      <point x="643" y="811" type="line"/>
      <point x="-33" y="33" type="line"/>
      <point x="174" y="-80" type="line"/>
      <point x="250" y="51" type="line" smooth="yes"/>
      <point x="257" y="63"/>
      <point x="274" y="63"/>
      <point x="293" y="63" type="curve" smooth="yes"/>
      <point x="319" y="63"/>
      <point x="434" y="-23"/>
      <point x="573" y="-23" type="curve" smooth="yes"/>
      <point x="764" y="-23"/>
      <point x="928" y="135"/>
      <point x="928" y="266" type="curve" smooth="yes"/>
      <point x="928" y="322"/>
      <point x="889" y="418"/>
      <point x="801" y="418" type="curve" smooth="yes"/>
      <point x="733" y="418"/>
      <point x="657" y="360"/>
      <point x="643" y="340" type="curve"/>
      <point x="766" y="209" type="line"/>
      <point x="748" y="178"/>
      <point x="664" y="150"/>
      <point x="635" y="150" type="curve" smooth="yes"/>
      <point x="588" y="150"/>
      <point x="537" y="176"/>
      <point x="473" y="215" type="curve"/>
      <point x="344" y="188" type="line"/>
    </contour>
  </outline>
</glyph>
<glyph name="RtCurlyBrac" format="2">
  <advance width="1014"/>
  <unicode hex="007D"/>
  <outline>
    <contour>
      <point x="952" y="659" type="line"/>
      <point x="888" y="659"/>
      <point x="782" y="663"/>
      <point x="739" y="715" type="curve" smooth="yes"/>
      <point x="720" y="738"/>
      <point x="713" y="770"/>
      <point x="713" y="807" type="curve" smooth="yes"/>
      <point x="713" y="915"/>
      <point x="772" y="1070"/>
      <point x="772" y="1201" type="curve" smooth="yes"/>
      <point x="772" y="1263"/>
      <point x="758" y="1319"/>
      <point x="719" y="1362" type="curve" smooth="yes"/>
      <point x="644" y="1444"/>
      <point x="377" y="1446"/>
      <point x="330" y="1446" type="curve"/>
      <point x="307" y="1333" type="line"/>
      <point x="368" y="1333"/>
      <point x="449" y="1326"/>
      <point x="489" y="1278" type="curve" smooth="yes"/>
      <point x="509" y="1254"/>
      <point x="517" y="1222"/>
      <point x="517" y="1185" type="curve" smooth="yes"/>
      <point x="517" y="1089"/>
      <point x="469" y="958"/>
      <point x="469" y="843" type="curve" smooth="yes"/>
      <point x="469" y="785"/>
      <point x="481" y="731"/>
      <point x="518" y="688" type="curve" smooth="yes"/>
      <point x="562" y="637"/>
      <point x="641" y="598"/>
      <point x="723" y="598" type="curve"/>
      <point x="636" y="593"/>
      <point x="548" y="561"/>
      <point x="481" y="506" type="curve" smooth="yes"/>
      <point x="283" y="345"/>
      <point x="366" y="39"/>
      <point x="221" y="-82" type="curve" smooth="yes"/>
      <point x="163" y="-131"/>
      <point x="66" y="-137"/>
      <point x="16" y="-137" type="curve"/>
      <point x="-6" y="-250" type="line"/>
      <point x="121" y="-250"/>
      <point x="314" y="-244"/>
      <point x="416" y="-166" type="curve" smooth="yes"/>
      <point x="633" y="0"/>
      <point x="550" y="354"/>
      <point x="692" y="479" type="curve" smooth="yes"/>
      <point x="753" y="533"/>
      <point x="856" y="537"/>
      <point x="930" y="537" type="curve"/>
    </contour>
  </outline>
</glyph>
<glyph name="InvExclamationMrk" format="2">
  <advance width="696"/>
  <unicode hex="00A1"/>
  <outline>
    <contour>
      <point x="569" y="852" type="curve" smooth="yes"/>
      <point x="569" y="944"/>
      <point x="499" y="1024"/>
      <point x="401" y="1024" type="curve" smooth="yes"/>
      <point x="313" y="1024"/>
      <point x="245" y="950"/>
      <point x="245" y="860" type="curve" smooth="yes"/>
      <point x="245" y="772"/>
      <point x="311" y="694"/>
      <point x="399" y="694" type="curve" smooth="yes"/>
      <point x="489" y="694"/>
      <point x="569" y="762"/>
    </contour>
    <contour>
      <point x="413" y="573" type="line"/>
      <point x="303" y="573" type="line"/>
      <point x="209" y="289"/>
      <point x="26" y="-225"/>
      <point x="26" y="-277" type="curve" smooth="yes"/>
      <point x="26" y="-369"/>
      <point x="86" y="-408"/>
      <point x="166" y="-408" type="curve" smooth="yes"/>
      <point x="258" y="-408"/>
      <point x="360" y="-356"/>
      <point x="366" y="-242" type="curve" smooth="yes"/>
    </contour>
  </outline>
</glyph>
<glyph name="CopyrightSgn" format="2">
  <advance width="1714"/>
  <unicode hex="00A9"/>
  <outline>
    <contour>
      <point x="1690" y="717" type="curve" smooth="yes"/>
      <point x="1690" y="1157"/>
      <point x="1331" y="1513"/>
      <point x="899" y="1513" type="curve" smooth="yes"/>
      <point x="461" y="1513"/>
      <point x="104" y="1155"/>
      <point x="104" y="717" type="curve" smooth="yes"/>
      <point x="104" y="276"/>
      <point x="461" y="-80"/>
      <point x="895" y="-80" type="curve" smooth="yes"/>
      <point x="1335" y="-80"/>
      <point x="1690" y="276"/>
    </contour>
    <contour>
      <point x="1591" y="717" type="curve" smooth="yes"/>
      <point x="1591" y="334"/>
      <point x="1282" y="16"/>
      <point x="897" y="16" type="curve" smooth="yes"/>
      <point x="512" y="16"/>
      <point x="203" y="332"/>
      <point x="203" y="713" type="curve" smooth="yes"/>
      <point x="203" y="1108"/>
      <point x="518" y="1417"/>
      <point x="899" y="1417" type="curve" smooth="yes"/>
      <point x="1282" y="1417"/>
      <point x="1591" y="1104"/>
    </contour>
    <contour>
      <point x="1245" y="285" type="curve"/>
      <point x="1245" y="541" type="line"/>
      <point x="1130" y="541" type="line"/>
      <point x="1102" y="365" type="line"/>
      <point x="1080" y="353"/>
      <point x="1032" y="336"/>
      <point x="979" y="336" type="curve" smooth="yes"/>
      <point x="795" y="336"/>
      <point x="684" y="498"/>
      <point x="684" y="713" type="curve" smooth="yes"/>
      <point x="684" y="891"/>
      <point x="768" y="1096"/>
      <point x="985" y="1096" type="curve" smooth="yes"/>
      <point x="1042" y="1096"/>
      <point x="1085" y="1075"/>
      <point x="1102" y="1059" type="curve"/>
      <point x="1130" y="895" type="line"/>
      <point x="1245" y="895" type="line"/>
      <point x="1245" y="1143" type="line"/>
      <point x="1200" y="1167"/>
      <point x="1091" y="1198"/>
      <point x="956" y="1198" type="curve" smooth="yes"/>
      <point x="641" y="1198"/>
      <point x="451" y="981"/>
      <point x="451" y="717" type="curve" smooth="yes"/>
      <point x="451" y="412"/>
      <point x="657" y="233"/>
      <point x="948" y="233" type="curve" smooth="yes"/>
      <point x="1076" y="233"/>
      <point x="1193" y="263"/>
    </contour>
  </outline>
</glyph>
<glyph name="LftPtngDblAngQuotMrk" format="2">
  <advance width="846"/>
  <unicode hex="00AB"/>
  <outline>
    <contour>
      <point x="251" y="0" type="line"/>
      <point x="389" y="0" type="line"/>
      <point x="254" y="493" type="line"/>
      <point x="589" y="987" type="line"/>
      <point x="451" y="987" type="line"/>
      <point x="57" y="544" type="line"/>
      <point x="36" y="441" type="line"/>
    </contour>
    <contour>
      <point x="600" y="0" type="line"/>
      <point x="738" y="0" type="line"/>
      <point x="604" y="493" type="line"/>
      <point x="938" y="987" type="line"/>
      <point x="800" y="987" type="line"/>
      <point x="407" y="544" type="line"/>
      <point x="386" y="441" type="line"/>
    </contour>
  </outline>
</glyph>
<glyph name="MicroSgn" format="2">
  <advance width="1194"/>
  <unicode hex="00B5"/>
  <outline>
    <contour>
      <point x="1143" y="242" type="curve"/>
      <point x="1075" y="242" type="line"/>
      <point x="1057" y="197"/>
      <point x="1026" y="113"/>
      <point x="965" y="113" type="curve" smooth="yes"/>
      <point x="928" y="113"/>
      <point x="938" y="197"/>
      <point x="942" y="221" type="curve" smooth="yes"/>
      <point x="1096" y="999" type="line"/>
      <point x="836" y="999" type="line"/>
      <point x="688" y="256" type="line"/>
      <point x="629" y="203"/>
      <point x="557" y="125"/>
      <point x="471" y="125" type="curve" smooth="yes"/>
      <point x="416" y="125"/>
      <point x="389" y="199"/>
      <point x="389" y="244" type="curve" smooth="yes"/>
      <point x="389" y="274"/>
      <point x="393" y="305"/>
      <point x="399" y="334" type="curve" smooth="yes"/>
      <point x="530" y="999" type="line"/>
      <point x="274" y="999" type="line"/>
      <point x="102" y="135" type="line" smooth="yes"/>
      <point x="84" y="37"/>
      <point x="61" y="-63"/>
      <point x="23" y="-156" type="curve" smooth="yes"/>
      <point x="-10" y="-236"/>
      <point x="-57" y="-254"/>
      <point x="-57" y="-350" type="curve" smooth="yes"/>
      <point x="-57" y="-406"/>
      <point x="-2" y="-455"/>
      <point x="53" y="-455" type="curve" smooth="yes"/>
      <point x="133" y="-455"/>
      <point x="221" y="-381"/>
      <point x="221" y="-299" type="curve" smooth="yes"/>
      <point x="221" y="-160"/>
      <point x="197" y="-90"/>
      <point x="227" y="55" type="curve"/>
      <point x="254" y="27"/>
      <point x="330" y="-25"/>
      <point x="369" y="-25" type="curve" smooth="yes"/>
      <point x="510" y="-25"/>
      <point x="594" y="37"/>
      <point x="682" y="139" type="curve"/>
      <point x="696" y="61"/>
      <point x="750" y="-25"/>
      <point x="840" y="-25" type="curve" smooth="yes"/>
      <point x="1014" y="-25"/>
      <point x="1100" y="82"/>
    </contour>
  </outline>
</glyph>
<glyph name="MascOrdIndicator" format="2">
  <advance width="735"/>
  <unicode hex="00BA"/>
  <outline>
    <contour>
      <point x="801" y="1157" type="curve" smooth="yes"/>
      <point x="801" y="1317"/>
      <point x="694" y="1399"/>
      <point x="530" y="1399" type="curve" smooth="yes"/>
      <point x="285" y="1399"/>
      <point x="147" y="1198"/>
      <point x="147" y="1006" type="curve" smooth="yes"/>
      <point x="147" y="870"/>
      <point x="229" y="770"/>
      <point x="414" y="770" type="curve" smooth="yes"/>
      <point x="655" y="770"/>
      <point x="801" y="965"/>
    </contour>
    <contour>
      <point x="686" y="711" type="line"/>
      <point x="84" y="711" type="line"/>
      <point x="63" y="610" type="line"/>
      <point x="668" y="610" type="line"/>
    </contour>
    <contour>
      <point x="608" y="1161" type="curve" smooth="yes"/>
      <point x="608" y="1010"/>
      <point x="522" y="838"/>
      <point x="428" y="838" type="curve" smooth="yes"/>
      <point x="397" y="838"/>
      <point x="338" y="885"/>
      <point x="338" y="1012" type="curve" smooth="yes"/>
      <point x="338" y="1178"/>
      <point x="434" y="1333"/>
      <point x="514" y="1333" type="curve" smooth="yes"/>
      <point x="549" y="1333"/>
      <point x="608" y="1282"/>
    </contour>
  </outline>
</glyph>
<glyph name="RtPtngDblAngQuotMrk" format="2">
  <advance width="846"/>
  <unicode hex="00BB"/>
  <outline>
    <contour>
      <point x="596" y="987" type="line"/>
      <point x="458" y="987" type="line"/>
      <point x="592" y="494" type="line"/>
      <point x="258" y="0" type="line"/>
      <point x="396" y="0" type="line"/>
      <point x="789" y="443" type="line"/>
      <point x="810" y="546" type="line"/>
    </contour>
    <contour>
      <point x="246" y="987" type="line"/>
      <point x="108" y="987" type="line"/>
      <point x="243" y="494" type="line"/>
      <point x="-92" y="0" type="line"/>
      <point x="46" y="0" type="line"/>
      <point x="440" y="443" type="line"/>
      <point x="461" y="546" type="line"/>
    </contour>
  </outline>
</glyph>
<glyph name="VulgFracOneHalf" format="2">
  <advance width="1858"/>
  <unicode hex="00BD"/>
  <outline>
    <contour>
      <point x="1602" y="1423" type="line"/>
      <point x="1452" y="1423" type="line"/>
      <point x="266" y="0" type="line"/>
      <point x="416" y="0" type="line"/>
    </contour>
    <contour>
      <point x="670" y="1450" type="line"/>
      <point x="580" y="1450" type="line"/>
      <point x="248" y="1366" type="line"/>
      <point x="248" y="1296" type="line"/>
      <point x="453" y="1323" type="line"/>
      <point x="322" y="700" type="line" smooth="yes"/>
      <point x="320" y="692"/>
      <point x="309" y="683"/>
      <point x="297" y="682" type="curve" smooth="yes"/>
      <point x="162" y="674" type="line"/>
      <point x="162" y="606" type="line"/>
      <point x="635" y="606" type="line"/>
      <point x="635" y="674" type="line"/>
      <point x="535" y="682" type="line" smooth="yes"/>
      <point x="520" y="683"/>
      <point x="508" y="690"/>
      <point x="510" y="698" type="curve" smooth="yes"/>
    </contour>
    <contour>
      <point x="1755" y="647" type="curve" smooth="yes"/>
      <point x="1755" y="788"/>
      <point x="1622" y="840"/>
      <point x="1501" y="840" type="curve" smooth="yes"/>
      <point x="1376" y="840"/>
      <point x="1141" y="788"/>
      <point x="1141" y="627" type="curve" smooth="yes"/>
      <point x="1141" y="575"/>
      <point x="1182" y="557"/>
      <point x="1227" y="557" type="curve" smooth="yes"/>
      <point x="1257" y="557"/>
      <point x="1292" y="567"/>
      <point x="1321" y="580" type="curve"/>
      <point x="1354" y="745" type="line"/>
      <point x="1378" y="752"/>
      <point x="1399" y="758"/>
      <point x="1425" y="758" type="curve" smooth="yes"/>
      <point x="1503" y="758"/>
      <point x="1554" y="711"/>
      <point x="1554" y="633" type="curve" smooth="yes"/>
      <point x="1554" y="453"/>
      <point x="1333" y="305"/>
      <point x="1026" y="102" type="curve"/>
      <point x="1008" y="0" type="line"/>
      <point x="1659" y="0" type="line"/>
      <point x="1706" y="242" type="line"/>
      <point x="1618" y="242" type="line"/>
      <point x="1575" y="131" type="line"/>
      <point x="1226" y="131" type="line"/>
      <point x="1392" y="221"/>
      <point x="1755" y="424"/>
    </contour>
  </outline>
</glyph>
<glyph name="VulgFracThreeQuarters" format="2">
  <advance width="1858"/>
  <unicode hex="00BE"/>
  <outline>
    <contour>
      <point x="1743" y="319" type="line"/>
      <point x="1591" y="319" type="line"/>
      <point x="1694" y="831" type="line"/>
      <point x="1550" y="831" type="line"/>
      <point x="1014" y="324" type="line"/>
      <point x="993" y="219" type="line"/>
      <point x="1403" y="219" type="line"/>
      <point x="1352" y="-37" type="line"/>
      <point x="1522" y="-37" type="line"/>
      <point x="1573" y="219" type="line"/>
      <point x="1722" y="219" type="line"/>
    </contour>
    <contour>
      <point x="1663" y="1423" type="line"/>
      <point x="1513" y="1423" type="line"/>
      <point x="328" y="0" type="line"/>
      <point x="477" y="0" type="line"/>
    </contour>
    <contour>
      <point x="1489" y="653" type="line"/>
      <point x="1421" y="319" type="line"/>
      <point x="1141" y="319" type="line"/>
    </contour>
    <contour>
      <point x="831" y="1274" type="curve" smooth="yes"/>
      <point x="831" y="1407"/>
      <point x="680" y="1444"/>
      <point x="571" y="1444" type="curve" smooth="yes"/>
      <point x="465" y="1444"/>
      <point x="238" y="1395"/>
      <point x="238" y="1253" type="curve" smooth="yes"/>
      <point x="238" y="1202"/>
      <point x="283" y="1184"/>
      <point x="328" y="1184" type="curve" smooth="yes"/>
      <point x="352" y="1184"/>
      <point x="377" y="1188"/>
      <point x="401" y="1200" type="curve"/>
      <point x="430" y="1352" type="line"/>
      <point x="453" y="1358"/>
      <point x="473" y="1362"/>
      <point x="496" y="1362" type="curve" smooth="yes"/>
      <point x="565" y="1362"/>
      <point x="635" y="1325"/>
      <point x="635" y="1247" type="curve" smooth="yes"/>
      <point x="635" y="1109"/>
      <point x="513" y="1068"/>
      <point x="399" y="1068" type="curve" smooth="yes"/>
      <point x="388" y="1068"/>
      <point x="378" y="1068"/>
      <point x="367" y="1069" type="curve"/>
      <point x="348" y="977" type="line"/>
      <point x="370" y="980"/>
      <point x="396" y="982"/>
      <point x="422" y="982" type="curve" smooth="yes"/>
      <point x="504" y="982"/>
      <point x="590" y="960"/>
      <point x="590" y="862" type="curve" smooth="yes"/>
      <point x="590" y="758"/>
      <point x="489" y="668"/>
      <point x="385" y="668" type="curve" smooth="yes"/>
      <point x="356" y="668"/>
      <point x="328" y="675"/>
      <point x="299" y="684" type="curve"/>
      <point x="283" y="823" type="line"/>
      <point x="266" y="831"/>
      <point x="248" y="836"/>
      <point x="229" y="836" type="curve" smooth="yes"/>
      <point x="168" y="836"/>
      <point x="115" y="797"/>
      <point x="115" y="731" type="curve" smooth="yes"/>
      <point x="115" y="621"/>
      <point x="276" y="592"/>
      <point x="358" y="592" type="curve" smooth="yes"/>
      <point x="526" y="592"/>
      <point x="786" y="674"/>
      <point x="786" y="881" type="curve" smooth="yes"/>
      <point x="786" y="997"/>
      <point x="657" y="1038"/>
      <point x="561" y="1038" type="curve"/>
      <point x="686" y="1051"/>
      <point x="831" y="1135"/>
    </contour>
  </outline>
</glyph>
<glyph name="LtnCapAe" format="2">
  <advance width="2003"/>
  <unicode hex="00C6"/>
  <anchor x="1030" y="-100" name="L"/>
  <anchor x="1318" y="1500" name="U"/>
  <outline>
    <contour>
      <point x="-109" y="0" type="line"/>
      <point x="444" y="0" type="line"/>
      <point x="444" y="102" type="line"/>
      <point x="328" y="113" type="line" smooth="yes"/>
      <point x="324" y="113"/>
      <point x="286" y="132"/>
      <point x="299" y="147" type="curve" smooth="yes"/>
      <point x="604" y="512" type="line"/>
      <point x="1006" y="512" type="line"/>
      <point x="932" y="145" type="line" smooth="yes"/>
      <point x="927" y="120"/>
      <point x="925" y="117"/>
      <point x="887" y="113" type="curve" smooth="yes"/>
      <point x="768" y="102" type="line"/>
      <point x="768" y="0" type="line"/>
      <point x="1853" y="0" type="line"/>
      <point x="1923" y="356" type="line"/>
      <point x="1763" y="356" type="line"/>
      <point x="1698" y="152" type="line" smooth="yes"/>
      <point x="1693" y="135"/>
      <point x="1659" y="123"/>
      <point x="1640" y="123" type="curve" smooth="yes"/>
      <point x="1221" y="123" type="line"/>
      <point x="1325" y="651" type="line"/>
      <point x="1544" y="651" type="line" smooth="yes"/>
      <point x="1565" y="651"/>
      <point x="1594" y="639"/>
      <point x="1591" y="623" type="curve" smooth="yes"/>
      <point x="1567" y="469" type="line"/>
      <point x="1716" y="469" type="line"/>
      <point x="1812" y="950" type="line"/>
      <point x="1661" y="950" type="line"/>
      <point x="1620" y="807" type="line" smooth="yes"/>
      <point x="1614" y="786"/>
      <point x="1583" y="776"/>
      <point x="1563" y="776" type="curve" smooth="yes"/>
      <point x="1350" y="776" type="line"/>
      <point x="1444" y="1251" type="line"/>
      <point x="1802" y="1251" type="line" smooth="yes"/>
      <point x="1825" y="1251"/>
      <point x="1849" y="1245"/>
      <point x="1849" y="1225" type="curve" smooth="yes"/>
      <point x="1849" y="1051" type="line"/>
      <point x="2015" y="1051" type="line"/>
      <point x="2079" y="1374" type="line"/>
      <point x="819" y="1374" type="line"/>
      <point x="819" y="1272" type="line"/>
      <point x="913" y="1264" type="line"/>
      <point x="942" y="1262"/>
      <point x="956" y="1247"/>
      <point x="942" y="1231" type="curve" smooth="yes"/>
      <point x="41" y="147" type="line" smooth="yes"/>
      <point x="16" y="117"/>
      <point x="12" y="113"/>
      <point x="-12" y="111" type="curve" smooth="yes"/>
      <point x="-109" y="102" type="line"/>
    </contour>
    <contour>
      <point x="709" y="639" type="line"/>
      <point x="1126" y="1130" type="line"/>
      <point x="1030" y="639" type="line"/>
    </contour>
  </outline>
</glyph>
<glyph name="LtnCapEth" format="2">
  <advance width="1460"/>
  <unicode hex="00D0"/>
  <anchor x="566" y="-100" name="L"/>
  <anchor x="854" y="1500" name="U"/>
  <outline>
    <component base="LtnCapD"/>
    <contour>
      <point x="41" y="657" type="line"/>
      <point x="800" y="657" type="line"/>
      <point x="800" y="786" type="line"/>
      <point x="41" y="786" type="line"/>
    </contour>
  </outline>
</glyph>
<glyph name="LtnCapThorn" format="2">
  <advance width="1245"/>
  <unicode hex="00DE"/>
  <anchor x="477" y="-100" name="L"/>
  <anchor x="765" y="1500" name="U"/>
  <outline>
    <contour>
      <point x="-35" y="0" type="line"/>
      <point x="584" y="0" type="line"/>
      <point x="584" y="102" type="line"/>
      <point x="465" y="113" type="line"/>
      <point x="440" y="115"/>
      <point x="422" y="119"/>
      <point x="426" y="143" type="curve" smooth="yes"/>
      <point x="446" y="254" type="line"/>
      <point x="477" y="254"/>
      <point x="514" y="252"/>
      <point x="537" y="252" type="curve" smooth="yes"/>
      <point x="946" y="252"/>
      <point x="1202" y="469"/>
      <point x="1202" y="786" type="curve" smooth="yes"/>
      <point x="1202" y="971"/>
      <point x="1081" y="1120"/>
      <point x="694" y="1120" type="curve" smooth="yes"/>
      <point x="618" y="1120" type="line"/>
      <point x="639" y="1229" type="line" smooth="yes"/>
      <point x="643" y="1253"/>
      <point x="657" y="1260"/>
      <point x="680" y="1262" type="curve"/>
      <point x="807" y="1272" type="line"/>
      <point x="807" y="1374" type="line"/>
      <point x="193" y="1374" type="line"/>
      <point x="193" y="1272" type="line"/>
      <point x="307" y="1262" type="line"/>
      <point x="342" y="1260"/>
      <point x="352" y="1255"/>
      <point x="348" y="1231" type="curve" smooth="yes"/>
      <point x="133" y="145" type="line" smooth="yes"/>
      <point x="129" y="121"/>
      <point x="119" y="115"/>
      <point x="92" y="113" type="curve"/>
      <point x="-35" y="102" type="line"/>
    </contour>
    <contour>
      <point x="471" y="379" type="curve"/>
      <point x="596" y="1004" type="line"/>
      <point x="606" y="1006"/>
      <point x="649" y="1006"/>
      <point x="659" y="1006" type="curve" smooth="yes"/>
      <point x="797" y="1006"/>
      <point x="903" y="915"/>
      <point x="903" y="754" type="curve" smooth="yes"/>
      <point x="903" y="598"/>
      <point x="825" y="498"/>
      <point x="727" y="438" type="curve" smooth="yes"/>
      <point x="643" y="389"/>
      <point x="551" y="375"/>
    </contour>
  </outline>
</glyph>
<glyph name="LtnSmLCaron" format="2">
  <advance width="974"/>
  <unicode hex="013E"/>
  <anchor x="170" y="0" name="H"/>
  <anchor x="149" y="-100" name="L"/>
  <anchor x="473" y="1580" name="U"/>
  <outline>
    <contour>
      <point x="623" y="59" type="curve"/>
      <point x="623" y="170" type="line"/>
      <point x="526" y="127"/>
      <point x="446" y="109"/>
      <point x="414" y="109" type="curve" smooth="yes"/>
      <point x="362" y="109"/>
      <point x="352" y="162"/>
      <point x="360" y="209" type="curve" smooth="yes"/>
      <point x="612" y="1509" type="line"/>
      <point x="477" y="1509" type="line"/>
      <point x="131" y="1444" type="line"/>
      <point x="131" y="1370" type="line"/>
      <point x="311" y="1354" type="line"/>
      <point x="88" y="205" type="line" smooth="yes"/>
      <point x="82" y="178"/>
      <point x="80" y="154"/>
      <point x="80" y="131" type="curve" smooth="yes"/>
      <point x="80" y="37"/>
      <point x="160" y="-25"/>
      <point x="295" y="-25" type="curve" smooth="yes"/>
      <point x="401" y="-25"/>
      <point x="524" y="8"/>
    </contour>
    <contour>
      <point x="1014" y="1434" type="curve" smooth="yes"/>
      <point x="1014" y="1520"/>
      <point x="951" y="1571"/>
      <point x="867" y="1571" type="curve" smooth="yes"/>
      <point x="787" y="1571"/>
      <point x="703" y="1520"/>
      <point x="703" y="1430" type="curve" smooth="yes"/>
      <point x="703" y="1405"/>
      <point x="711" y="1380"/>
      <point x="730" y="1362" type="curve"/>
      <point x="859" y="1362" type="line"/>
      <point x="842" y="1286"/>
      <point x="750" y="1229"/>
      <point x="683" y="1210" type="curve"/>
      <point x="666" y="1128" type="line"/>
      <point x="812" y="1155"/>
      <point x="1014" y="1262"/>
    </contour>
  </outline>
</glyph>
<glyph name="LtnSmLStrk" format="2">
  <advance width="647"/>
  <unicode hex="0142"/>
  <anchor x="215" y="-100" name="L"/>
  <anchor x="531" y="1540" name="U"/>
  <outline>
    <contour>
      <point x="774" y="922" type="line"/>
      <point x="711" y="1051" type="line"/>
      <point x="526" y="956" type="line"/>
      <point x="633" y="1509" type="line"/>
      <point x="498" y="1509" type="line"/>
      <point x="152" y="1444" type="line"/>
      <point x="152" y="1370" type="line"/>
      <point x="332" y="1354" type="line"/>
      <point x="223" y="805" type="line"/>
      <point x="-20" y="680" type="line"/>
      <point x="43" y="551" type="line"/>
      <point x="190" y="625" type="line"/>
      <point x="109" y="205" type="line" smooth="yes"/>
      <point x="102" y="178"/>
      <point x="100" y="154"/>
      <point x="100" y="131" type="curve" smooth="yes"/>
      <point x="100" y="37"/>
      <point x="180" y="-25"/>
      <point x="315" y="-25" type="curve" smooth="yes"/>
      <point x="422" y="-25"/>
      <point x="545" y="8"/>
      <point x="641" y="59" type="curve"/>
      <point x="641" y="170" type="line"/>
      <point x="547" y="127"/>
      <point x="467" y="109"/>
      <point x="432" y="109" type="curve" smooth="yes"/>
      <point x="383" y="109"/>
      <point x="373" y="162"/>
      <point x="381" y="209" type="curve" smooth="yes"/>
      <point x="492" y="778" type="line"/>
    </contour>
  </outline>
</glyph>
<glyph name="LtnCapEng" format="2">
  <advance width="1571"/>
  <unicode hex="014A"/>
  <anchor x="632" y="-500" name="L"/>
  <anchor x="996" y="1500" name="U"/>
  <outline>
    <contour>
      <point x="776" y="-469" type="curve" smooth="yes"/>
      <point x="1124" y="-469"/>
      <point x="1249" y="-305"/>
      <point x="1298" y="-43" type="curve" smooth="yes"/>
      <point x="1491" y="975" type="line" smooth="yes"/>
      <point x="1495" y="997"/>
      <point x="1497" y="1022"/>
      <point x="1497" y="1044" type="curve" smooth="yes"/>
      <point x="1497" y="1249"/>
      <point x="1311" y="1407"/>
      <point x="1073" y="1407" type="curve" smooth="yes"/>
      <point x="899" y="1407"/>
      <point x="758" y="1337"/>
      <point x="643" y="1235" type="curve"/>
      <point x="672" y="1374" type="line"/>
      <point x="195" y="1374" type="line"/>
      <point x="195" y="1272" type="line"/>
      <point x="311" y="1264" type="line"/>
      <point x="348" y="1260"/>
      <point x="352" y="1245"/>
      <point x="346" y="1210" type="curve" smooth="yes"/>
      <point x="139" y="156" type="line" smooth="yes"/>
      <point x="135" y="129"/>
      <point x="127" y="115"/>
      <point x="88" y="111" type="curve"/>
      <point x="-31" y="102" type="line"/>
      <point x="-31" y="0" type="line"/>
      <point x="569" y="0" type="line"/>
      <point x="569" y="102" type="line"/>
      <point x="469" y="113" type="line"/>
      <point x="440" y="115"/>
      <point x="428" y="129"/>
      <point x="432" y="156" type="curve" smooth="yes"/>
      <point x="586" y="934" type="line"/>
      <point x="668" y="1069"/>
      <point x="831" y="1237"/>
      <point x="983" y="1237" type="curve" smooth="yes"/>
      <point x="1083" y="1237"/>
      <point x="1229" y="1143"/>
      <point x="1196" y="975" type="curve" smooth="yes"/>
      <point x="997" y="-86" type="line" smooth="yes"/>
      <point x="965" y="-264"/>
      <point x="942" y="-317"/>
      <point x="860" y="-324" type="curve"/>
      <point x="741" y="-164" type="line"/>
      <point x="645" y="-164"/>
      <point x="575" y="-254"/>
      <point x="575" y="-328" type="curve" smooth="yes"/>
      <point x="575" y="-401"/>
      <point x="649" y="-469"/>
    </contour>
  </outline>
</glyph>
<glyph name="LtnCapLigOe" format="2">
  <advance width="2144"/>
  <unicode hex="0152"/>
  <anchor x="968" y="-100" name="L"/>
  <anchor x="1256" y="1500" name="U"/>
  <outline>
    <contour>
      <point x="2212" y="1374" type="line"/>
      <point x="1298" y="1374" type="line"/>
      <point x="1280" y="1272" type="line"/>
      <point x="1202" y="1350"/>
      <point x="1087" y="1407"/>
      <point x="901" y="1407" type="curve" smooth="yes"/>
      <point x="391" y="1407"/>
      <point x="98" y="948"/>
      <point x="98" y="541" type="curve" smooth="yes"/>
      <point x="98" y="193"/>
      <point x="336" y="-33"/>
      <point x="698" y="-33" type="curve" smooth="yes"/>
      <point x="836" y="-33"/>
      <point x="950" y="18"/>
      <point x="1055" y="104" type="curve"/>
      <point x="1030" y="0" type="line"/>
      <point x="1995" y="0" type="line"/>
      <point x="2064" y="356" type="line"/>
      <point x="1905" y="356" type="line"/>
      <point x="1837" y="152" type="line" smooth="yes"/>
      <point x="1833" y="135"/>
      <point x="1800" y="123"/>
      <point x="1782" y="123" type="curve" smooth="yes"/>
      <point x="1343" y="123" type="line"/>
      <point x="1450" y="651" type="line"/>
      <point x="1681" y="651" type="line" smooth="yes"/>
      <point x="1702" y="651"/>
      <point x="1731" y="639"/>
      <point x="1729" y="623" type="curve" smooth="yes"/>
      <point x="1706" y="469" type="line"/>
      <point x="1858" y="469" type="line"/>
      <point x="1954" y="950" type="line"/>
      <point x="1802" y="950" type="line"/>
      <point x="1759" y="807" type="line"/>
      <point x="1755" y="786"/>
      <point x="1724" y="776"/>
      <point x="1704" y="776" type="curve" smooth="yes"/>
      <point x="1473" y="776" type="line"/>
      <point x="1567" y="1253" type="line"/>
      <point x="1935" y="1253" type="line" smooth="yes"/>
      <point x="1958" y="1253"/>
      <point x="1982" y="1245"/>
      <point x="1982" y="1225" type="curve" smooth="yes"/>
      <point x="1982" y="1051" type="line"/>
      <point x="2146" y="1051" type="line"/>
    </contour>
    <contour>
      <point x="1182" y="854" type="curve" smooth="yes"/>
      <point x="1182" y="485"/>
      <point x="952" y="94"/>
      <point x="713" y="94" type="curve" smooth="yes"/>
      <point x="588" y="94"/>
      <point x="416" y="221"/>
      <point x="416" y="520" type="curve" smooth="yes"/>
      <point x="416" y="893"/>
      <point x="649" y="1284"/>
      <point x="883" y="1284" type="curve" smooth="yes"/>
      <point x="997" y="1284"/>
      <point x="1182" y="1174"/>
    </contour>
  </outline>
</glyph>
<glyph name="LtnSmTCaron" format="2">
  <advance width="808"/>
  <unicode hex="0165"/>
  <anchor x="292" y="0" name="H"/>
  <anchor x="272" y="-100" name="L"/>
  <anchor x="520" y="1363" name="U"/>
  <outline>
    <contour>
      <point x="805" y="856" type="line"/>
      <point x="805" y="969" type="line"/>
      <point x="520" y="969" type="line"/>
      <point x="563" y="1200" type="line"/>
      <point x="358" y="1200" type="line"/>
      <point x="254" y="989" type="line"/>
      <point x="80" y="920" type="line"/>
      <point x="80" y="836" type="line"/>
      <point x="227" y="852" type="line"/>
      <point x="102" y="242" type="line" smooth="yes"/>
      <point x="96" y="213"/>
      <point x="94" y="186"/>
      <point x="94" y="160" type="curve" smooth="yes"/>
      <point x="94" y="53"/>
      <point x="170" y="-25"/>
      <point x="328" y="-25" type="curve" smooth="yes"/>
      <point x="457" y="-25"/>
      <point x="662" y="55"/>
      <point x="707" y="76" type="curve"/>
      <point x="707" y="188" type="line"/>
      <point x="641" y="166"/>
      <point x="514" y="117"/>
      <point x="451" y="117" type="curve" smooth="yes"/>
      <point x="387" y="117"/>
      <point x="356" y="160"/>
      <point x="371" y="223" type="curve"/>
      <point x="500" y="856" type="line"/>
    </contour>
    <contour>
      <point x="633" y="1087" type="line"/>
      <point x="773" y="1087" type="line"/>
      <point x="962" y="1441" type="line"/>
      <point x="977" y="1509" type="line"/>
      <point x="762" y="1509" type="line"/>
    </contour>
  </outline>
</glyph>
<glyph name="LtnCapBHook" format="2">
  <advance width="1405"/>
  <unicode hex="0181"/>
  <anchor x="482" y="-100" name="L"/>
  <anchor x="770" y="1500" name="U"/>
  <outline>
    <contour>
      <point x="45" y="0" type="line"/>
      <point x="649" y="0" type="line" smooth="yes"/>
      <point x="1042" y="0"/>
      <point x="1296" y="137"/>
      <point x="1296" y="463" type="curve" smooth="yes"/>
      <point x="1296" y="625"/>
      <point x="1192" y="700"/>
      <point x="1014" y="733" type="curve"/>
      <point x="1196" y="799"/>
      <point x="1335" y="907"/>
      <point x="1335" y="1106" type="curve" smooth="yes"/>
      <point x="1335" y="1255"/>
      <point x="1235" y="1374"/>
      <point x="889" y="1374" type="curve" smooth="yes"/>
      <point x="334" y="1374" type="line" smooth="yes"/>
      <point x="150" y="1374"/>
      <point x="8" y="1294"/>
      <point x="8" y="1139" type="curve" smooth="yes"/>
      <point x="8" y="1077"/>
      <point x="57" y="991"/>
      <point x="141" y="991" type="curve" smooth="yes"/>
      <point x="199" y="991"/>
      <point x="227" y="1001"/>
      <point x="287" y="1053" type="curve"/>
      <point x="238" y="1198" type="line"/>
      <point x="264" y="1231"/>
      <point x="285" y="1243"/>
      <point x="330" y="1243" type="curve" smooth="yes"/>
      <point x="385" y="1243" type="line" smooth="yes"/>
      <point x="408" y="1243"/>
      <point x="426" y="1235"/>
      <point x="422" y="1210" type="curve" smooth="yes"/>
      <point x="213" y="145" type="line" smooth="yes"/>
      <point x="207" y="117"/>
      <point x="195" y="113"/>
      <point x="174" y="113" type="curve"/>
      <point x="45" y="102" type="line"/>
    </contour>
    <contour>
      <point x="582" y="113" type="curve" smooth="yes"/>
      <point x="561" y="113"/>
      <point x="528" y="113"/>
      <point x="500" y="115" type="curve"/>
      <point x="604" y="649" type="line"/>
      <point x="641" y="653"/>
      <point x="682" y="655"/>
      <point x="717" y="655" type="curve" smooth="yes"/>
      <point x="858" y="655"/>
      <point x="987" y="610"/>
      <point x="987" y="442" type="curve" smooth="yes"/>
      <point x="987" y="223"/>
      <point x="821" y="113"/>
    </contour>
    <contour>
      <point x="680" y="766" type="curve" smooth="yes"/>
      <point x="672" y="766"/>
      <point x="649" y="766"/>
      <point x="629" y="768" type="curve"/>
      <point x="725" y="1264" type="line"/>
      <point x="743" y="1264"/>
      <point x="766" y="1266"/>
      <point x="786" y="1266" type="curve" smooth="yes"/>
      <point x="911" y="1266"/>
      <point x="1024" y="1223"/>
      <point x="1024" y="1092" type="curve" smooth="yes"/>
      <point x="1024" y="903"/>
      <point x="883" y="766"/>
    </contour>
  </outline>
</glyph>
<glyph name="LtnCapRevE" format="2">
  <advance width="1219"/>
  <unicode hex="018E"/>
  <anchor x="506" y="-100" name="L"/>
  <anchor x="794" y="1500" name="U"/>
  <outline>
    <contour>
      <point x="289" y="1374" type="line"/>
      <point x="226" y="1046" type="line"/>
      <point x="373" y="1046" type="line"/>
      <point x="438" y="1216" type="line" smooth="yes"/>
      <point x="446" y="1237"/>
      <point x="465" y="1255"/>
      <point x="483" y="1255" type="curve" smooth="yes"/>
      <point x="864" y="1255" type="line"/>
      <point x="772" y="774" type="line"/>
      <point x="528" y="774" type="line" smooth="yes"/>
      <point x="510" y="774"/>
      <point x="500" y="796"/>
      <point x="500" y="811" type="curve"/>
      <point x="509" y="950" type="line"/>
      <point x="382" y="950" type="line"/>
      <point x="290" y="469" type="line"/>
      <point x="417" y="469" type="line"/>
      <point x="461" y="608" type="line"/>
      <point x="467" y="622"/>
      <point x="488" y="645"/>
      <point x="504" y="645" type="curve" smooth="yes"/>
      <point x="748" y="645" type="line"/>
      <point x="648" y="123" type="line"/>
      <point x="202" y="123" type="line" smooth="yes"/>
      <point x="185" y="123"/>
      <point x="172" y="147"/>
      <point x="172" y="162" type="curve" smooth="yes"/>
      <point x="182" y="375" type="line"/>
      <point x="32" y="375" type="line"/>
      <point x="-39" y="0" type="line"/>
      <point x="1090" y="0" type="line"/>
      <point x="1090" y="104" type="line"/>
      <point x="980" y="114" type="line"/>
      <point x="958" y="117"/>
      <point x="937" y="133"/>
      <point x="942" y="160" type="curve" smooth="yes"/>
      <point x="1143" y="1214" type="line" smooth="yes"/>
      <point x="1148" y="1241"/>
      <point x="1175" y="1257"/>
      <point x="1199" y="1259" type="curve" smooth="yes"/>
      <point x="1313" y="1270" type="line"/>
      <point x="1313" y="1374" type="line"/>
    </contour>
  </outline>
</glyph>
<glyph name="LtnSmFHook" format="2">
  <advance width="741"/>
  <unicode hex="0192"/>
  <anchor x="159" y="-500" name="L"/>
  <anchor x="551" y="1540" name="U"/>
  <outline>
    <contour>
      <point x="987" y="1372" type="curve" smooth="yes"/>
      <point x="987" y="1425"/>
      <point x="909" y="1509"/>
      <point x="758" y="1509" type="curve" smooth="yes"/>
      <point x="426" y="1509"/>
      <point x="311" y="1157"/>
      <point x="270" y="954" type="curve"/>
      <point x="94" y="893" type="line"/>
      <point x="90" y="797" type="line"/>
      <point x="246" y="813" type="line"/>
      <point x="207" y="553"/>
      <point x="184" y="319"/>
      <point x="150" y="131" type="curve" smooth="yes"/>
      <point x="117" y="-43"/>
      <point x="76" y="-201"/>
      <point x="12" y="-291" type="curve"/>
      <point x="-172" y="-174" type="line"/>
      <point x="-227" y="-213"/>
      <point x="-266" y="-272"/>
      <point x="-266" y="-326" type="curve" smooth="yes"/>
      <point x="-266" y="-375"/>
      <point x="-213" y="-469"/>
      <point x="-96" y="-469" type="curve" smooth="yes"/>
      <point x="160" y="-469"/>
      <point x="346" y="-168"/>
      <point x="399" y="49" type="curve" smooth="yes"/>
      <point x="434" y="195"/>
      <point x="504" y="705"/>
      <point x="520" y="819" type="curve"/>
      <point x="791" y="819" type="line"/>
      <point x="791" y="940" type="line"/>
      <point x="541" y="940" type="line"/>
      <point x="557" y="1038"/>
      <point x="571" y="1251"/>
      <point x="684" y="1350" type="curve"/>
      <point x="811" y="1229" type="line"/>
      <point x="956" y="1249"/>
      <point x="987" y="1311"/>
    </contour>
  </outline>
</glyph>
<glyph name="LtnSmHv" format="2">
  <advance width="1813"/>
  <unicode hex="0195"/>
  <anchor x="731" y="-100" name="L"/>
  <anchor x="975" y="1100" name="U"/>
  <outline>
    <contour>
      <point x="694" y="352" type="line"/>
      <point x="647" y="129"/>
      <point x="725" y="-33"/>
      <point x="996" y="-33" type="curve" smooth="yes"/>
      <point x="1316" y="-33"/>
      <point x="1513" y="167"/>
      <point x="1555" y="368" type="curve" smooth="yes"/>
      <point x="1688" y="999" type="line"/>
      <point x="1416" y="999" type="line"/>
      <point x="1275" y="331" type="line"/>
      <point x="1241" y="168"/>
      <point x="1112" y="120"/>
      <point x="1049" y="120" type="curve" smooth="yes"/>
      <point x="968" y="120"/>
      <point x="934" y="199"/>
      <point x="962" y="331" type="curve" smooth="yes"/>
      <point x="1049" y="735" type="line" smooth="yes"/>
      <point x="1086" y="906"/>
      <point x="1018" y="1024"/>
      <point x="813" y="1024" type="curve" smooth="yes"/>
      <point x="692" y="1024"/>
      <point x="584" y="981"/>
      <point x="502" y="930" type="curve"/>
      <point x="625" y="1509" type="line"/>
      <point x="483" y="1509" type="line"/>
      <point x="137" y="1444" type="line"/>
      <point x="137" y="1370" type="line"/>
      <point x="317" y="1354" type="line"/>
      <point x="35" y="0" type="line"/>
      <point x="307" y="0" type="line"/>
      <point x="457" y="717" type="line"/>
      <point x="541" y="803"/>
      <point x="639" y="868"/>
      <point x="700" y="868" type="curve" smooth="yes"/>
      <point x="741" y="868"/>
      <point x="791" y="813"/>
      <point x="770" y="715" type="curve" smooth="yes"/>
    </contour>
  </outline>
</glyph>
<glyph name="LtnCapIota" format="2">
  <advance width="922"/>
  <unicode hex="0196"/>
  <anchor x="382" y="-100" name="L"/>
  <anchor x="579" y="1500" name="U"/>
  <outline>
    <contour>
      <point x="496" y="-33" type="curve" smooth="yes"/>
      <point x="659" y="-33"/>
      <point x="905" y="53"/>
      <point x="905" y="203" type="curve" smooth="yes"/>
      <point x="905" y="274"/>
      <point x="848" y="365"/>
      <point x="725" y="375" type="curve"/>
      <point x="596" y="117" type="line"/>
      <point x="528" y="129"/>
      <point x="461" y="178"/>
      <point x="461" y="260" type="curve" smooth="yes"/>
      <point x="461" y="285"/>
      <point x="465" y="309"/>
      <point x="469" y="334" type="curve" smooth="yes"/>
      <point x="674" y="1374" type="line"/>
      <point x="197" y="1374" type="line"/>
      <point x="197" y="1272" type="line"/>
      <point x="305" y="1264" type="line"/>
      <point x="340" y="1260"/>
      <point x="352" y="1241"/>
      <point x="348" y="1221" type="curve" smooth="yes"/>
      <point x="168" y="291" type="line" smooth="yes"/>
      <point x="162" y="260"/>
      <point x="158" y="229"/>
      <point x="158" y="199" type="curve" smooth="yes"/>
      <point x="158" y="35"/>
      <point x="291" y="-33"/>
    </contour>
  </outline>
</glyph>
<glyph name="LtnCapTrndM" format="2">
  <advance width="2269"/>
  <unicode hex="019C"/>
  <anchor x="1024" y="-100" name="L"/>
  <anchor x="1312" y="1500" name="U"/>
  <outline>
    <contour>
      <point x="593" y="-33" type="curve" smooth="yes"/>
      <point x="755" y="-33"/>
      <point x="882" y="33"/>
      <point x="1007" y="108" type="curve"/>
      <point x="1058" y="28"/>
      <point x="1150" y="-33"/>
      <point x="1308" y="-33" type="curve" smooth="yes"/>
      <point x="1488" y="-33"/>
      <point x="1537" y="14"/>
      <point x="1681" y="114" type="curve"/>
      <point x="1656" y="0" type="line"/>
      <point x="2131" y="0" type="line"/>
      <point x="2131" y="104" type="line"/>
      <point x="1998" y="114" type="line"/>
      <point x="1980" y="117"/>
      <point x="1974" y="123"/>
      <point x="1978" y="143" type="curve" smooth="yes"/>
      <point x="2191" y="1214" type="line"/>
      <point x="2195" y="1241"/>
      <point x="2219" y="1257"/>
      <point x="2244" y="1259" type="curve" smooth="yes"/>
      <point x="2355" y="1270" type="line"/>
      <point x="2355" y="1374" type="line"/>
      <point x="1757" y="1374" type="line"/>
      <point x="1757" y="1270" type="line"/>
      <point x="1861" y="1259" type="line" smooth="yes"/>
      <point x="1884" y="1257"/>
      <point x="1902" y="1241"/>
      <point x="1898" y="1214" type="curve"/>
      <point x="1714" y="291" type="line"/>
      <point x="1621" y="229"/>
      <point x="1533" y="155"/>
      <point x="1427" y="155" type="curve" smooth="yes"/>
      <point x="1300" y="155"/>
      <point x="1232" y="262"/>
      <point x="1269" y="450" type="curve" smooth="yes"/>
      <point x="1421" y="1214" type="line"/>
      <point x="1425" y="1241"/>
      <point x="1449" y="1257"/>
      <point x="1474" y="1259" type="curve" smooth="yes"/>
      <point x="1585" y="1270" type="line"/>
      <point x="1585" y="1374" type="line"/>
      <point x="987" y="1374" type="line"/>
      <point x="987" y="1270" type="line"/>
      <point x="1091" y="1259" type="line" smooth="yes"/>
      <point x="1114" y="1257"/>
      <point x="1132" y="1241"/>
      <point x="1128" y="1214" type="curve"/>
      <point x="968" y="409" type="line" smooth="yes"/>
      <point x="956" y="348"/>
      <point x="952" y="291"/>
      <point x="958" y="241" type="curve"/>
      <point x="880" y="205"/>
      <point x="784" y="155"/>
      <point x="710" y="155" type="curve" smooth="yes"/>
      <point x="583" y="155"/>
      <point x="462" y="264"/>
      <point x="499" y="450" type="curve" smooth="yes"/>
      <point x="652" y="1214" type="line"/>
      <point x="656" y="1241"/>
      <point x="680" y="1257"/>
      <point x="705" y="1259" type="curve" smooth="yes"/>
      <point x="816" y="1270" type="line"/>
      <point x="816" y="1374" type="line"/>
      <point x="218" y="1374" type="line"/>
      <point x="218" y="1270" type="line"/>
      <point x="322" y="1259" type="line" smooth="yes"/>
      <point x="345" y="1257"/>
      <point x="363" y="1241"/>
      <point x="359" y="1214" type="curve"/>
      <point x="198" y="409" type="line" smooth="yes"/>
      <point x="192" y="377"/>
      <point x="188" y="344"/>
      <point x="188" y="313" type="curve" smooth="yes"/>
      <point x="188" y="100"/>
      <point x="348" y="-33"/>
    </contour>
  </outline>
</glyph>
<glyph name="LtnSmPHook" format="2">
  <advance width="1108"/>
  <unicode hex="01A5"/>
  <anchor x="662" y="-100" name="L"/>
  <anchor x="697" y="1540" name="U"/>
  <outline>
    <contour>
      <point x="-197" y="-449" type="line"/>
      <point x="406" y="-449" type="line"/>
      <point x="406" y="-356" type="line"/>
      <point x="264" y="-344" type="line"/>
      <point x="242" y="-344"/>
      <point x="229" y="-330"/>
      <point x="233" y="-311" type="curve" smooth="yes"/>
      <point x="295" y="-8" type="line"/>
      <point x="322" y="-16"/>
      <point x="360" y="-25"/>
      <point x="410" y="-25" type="curve" smooth="yes"/>
      <point x="799" y="-25"/>
      <point x="1042" y="309"/>
      <point x="1042" y="637" type="curve" smooth="yes"/>
      <point x="1042" y="823"/>
      <point x="944" y="1024"/>
      <point x="729" y="1024" type="curve" smooth="yes"/>
      <point x="621" y="1024"/>
      <point x="526" y="973"/>
      <point x="483" y="948" type="curve"/>
      <point x="506" y="1061" type="line" smooth="yes"/>
      <point x="549" y="1290"/>
      <point x="696" y="1382"/>
      <point x="776" y="1382" type="curve" smooth="yes"/>
      <point x="795" y="1382"/>
      <point x="821" y="1380"/>
      <point x="838" y="1364" type="curve"/>
      <point x="874" y="1192" type="line"/>
      <point x="892" y="1184"/>
      <point x="927" y="1174"/>
      <point x="961" y="1174" type="curve" smooth="yes"/>
      <point x="1030" y="1174"/>
      <point x="1128" y="1231"/>
      <point x="1128" y="1300" type="curve" smooth="yes"/>
      <point x="1128" y="1438"/>
      <point x="1014" y="1509"/>
      <point x="786" y="1509" type="curve" smooth="yes"/>
      <point x="457" y="1509"/>
      <point x="272" y="1290"/>
      <point x="236" y="1104" type="curve" smooth="yes"/>
      <point x="-39" y="-311" type="line" smooth="yes"/>
      <point x="-43" y="-330"/>
      <point x="-53" y="-344"/>
      <point x="-74" y="-346" type="curve"/>
      <point x="-197" y="-356" type="line"/>
    </contour>
    <contour>
      <point x="449" y="84" type="curve" smooth="yes"/>
      <point x="412" y="84"/>
      <point x="356" y="119"/>
      <point x="324" y="139" type="curve"/>
      <point x="449" y="770" type="line"/>
      <point x="489" y="807"/>
      <point x="575" y="881"/>
      <point x="633" y="881" type="curve" smooth="yes"/>
      <point x="741" y="881"/>
      <point x="756" y="743"/>
      <point x="756" y="629" type="curve" smooth="yes"/>
      <point x="756" y="389"/>
      <point x="621" y="84"/>
    </contour>
  </outline>
</glyph>
<glyph name="LtnCapTHook" format="2">
  <advance width="1286"/>
  <unicode hex="01AC"/>
  <anchor x="513" y="-100" name="L"/>
  <anchor x="801" y="1500" name="U"/>
  <outline>
    <contour>
      <point x="254" y="0" type="line"/>
      <point x="872" y="0" type="line"/>
      <point x="872" y="102" type="line"/>
      <point x="754" y="113" type="line"/>
      <point x="729" y="115"/>
      <point x="711" y="119"/>
      <point x="715" y="143" type="curve" smooth="yes"/>
      <point x="926" y="1262" type="line"/>
      <point x="1149" y="1262" type="line" smooth="yes"/>
      <point x="1169" y="1262"/>
      <point x="1196" y="1253"/>
      <point x="1194" y="1235" type="curve"/>
      <point x="1184" y="1016" type="line"/>
      <point x="1343" y="1016" type="line"/>
      <point x="1417" y="1374" type="line"/>
      <point x="459" y="1374" type="line" smooth="yes"/>
      <point x="262" y="1374"/>
      <point x="127" y="1278"/>
      <point x="127" y="1098" type="curve" smooth="yes"/>
      <point x="127" y="1004"/>
      <point x="188" y="934"/>
      <point x="287" y="934" type="curve" smooth="yes"/>
      <point x="340" y="934"/>
      <point x="414" y="977"/>
      <point x="430" y="1055" type="curve"/>
      <point x="303" y="1194" type="line"/>
      <point x="303" y="1239"/>
      <point x="336" y="1262"/>
      <point x="422" y="1262" type="curve" smooth="yes"/>
      <point x="633" y="1262" type="line"/>
      <point x="422" y="145" type="line" smooth="yes"/>
      <point x="418" y="119"/>
      <point x="395" y="113"/>
      <point x="367" y="111" type="curve"/>
      <point x="254" y="102" type="line"/>
    </contour>
  </outline>
</glyph>
<glyph name="LtnCapTRetrHook" format="2">
  <advance width="1286"/>
  <unicode hex="01AE"/>
  <anchor x="448" y="-500" name="L"/>
  <anchor x="812" y="1500" name="U"/>
  <outline>
    <contour>
      <point x="772" y="-469" type="curve" smooth="yes"/>
      <point x="874" y="-469"/>
      <point x="994" y="-422"/>
      <point x="994" y="-320" type="curve" smooth="yes"/>
      <point x="994" y="-267"/>
      <point x="954" y="-237"/>
      <point x="876" y="-207" type="curve"/>
      <point x="671" y="-330" type="line"/>
      <point x="636" y="-260"/>
      <point x="664" y="-114"/>
      <point x="679" y="-37" type="curve" smooth="yes"/>
      <point x="926" y="1262" type="line"/>
      <point x="1149" y="1262" type="line" smooth="yes"/>
      <point x="1169" y="1262"/>
      <point x="1196" y="1253"/>
      <point x="1194" y="1235" type="curve"/>
      <point x="1184" y="1016" type="line"/>
      <point x="1343" y="1016" type="line"/>
      <point x="1417" y="1374" type="line"/>
      <point x="197" y="1374" type="line"/>
      <point x="127" y="1016" type="line"/>
      <point x="287" y="1016" type="line"/>
      <point x="365" y="1233" type="line" smooth="yes"/>
      <point x="371" y="1251"/>
      <point x="403" y="1262"/>
      <point x="422" y="1262" type="curve" smooth="yes"/>
      <point x="633" y="1262" type="line"/>
      <point x="409" y="92" type="line" smooth="yes"/>
      <point x="396" y="23"/>
      <point x="386" y="-45"/>
      <point x="386" y="-111" type="curve" smooth="yes"/>
      <point x="386" y="-295"/>
      <point x="460" y="-469"/>
    </contour>
  </outline>
</glyph>
<glyph name="LtnCapUHorn" format="2">
  <advance width="1795"/>
  <unicode hex="01AF"/>
  <anchor x="649" y="-100" name="L"/>
  <anchor x="937" y="1500" name="U"/>
  <outline>
    <contour>
      <point x="680" y="-33" type="curve" smooth="yes"/>
      <point x="1057" y="-33"/>
      <point x="1239" y="156"/>
      <point x="1294" y="440" type="curve"/>
      <point x="1399" y="958" type="line"/>
      <point x="1726" y="1008"/>
      <point x="1925" y="1243"/>
      <point x="1925" y="1573" type="curve" smooth="yes"/>
      <point x="1925" y="1706"/>
      <point x="1802" y="1786"/>
      <point x="1683" y="1786" type="curve" smooth="yes"/>
      <point x="1577" y="1786"/>
      <point x="1489" y="1710"/>
      <point x="1489" y="1595" type="curve" smooth="yes"/>
      <point x="1489" y="1536"/>
      <point x="1530" y="1475"/>
      <point x="1530" y="1475" type="curve"/>
      <point x="1722" y="1475" type="line"/>
      <point x="1722" y="1315"/>
      <point x="1628" y="1171"/>
      <point x="1427" y="1102" type="curve"/>
      <point x="1452" y="1229" type="line" smooth="yes"/>
      <point x="1456" y="1247"/>
      <point x="1466" y="1260"/>
      <point x="1485" y="1262" type="curve" smooth="yes"/>
      <point x="1599" y="1272" type="line"/>
      <point x="1599" y="1374" type="line"/>
      <point x="1071" y="1374" type="line"/>
      <point x="1071" y="1272" type="line"/>
      <point x="1188" y="1262" type="line"/>
      <point x="1221" y="1260"/>
      <point x="1232" y="1255"/>
      <point x="1227" y="1231" type="curve" smooth="yes"/>
      <point x="1083" y="512" type="line" smooth="yes"/>
      <point x="1038" y="287"/>
      <point x="946" y="121"/>
      <point x="733" y="121" type="curve" smooth="yes"/>
      <point x="610" y="121"/>
      <point x="487" y="188"/>
      <point x="487" y="362" type="curve" smooth="yes"/>
      <point x="487" y="399"/>
      <point x="494" y="465"/>
      <point x="510" y="543" type="curve" smooth="yes"/>
      <point x="651" y="1229" type="line" smooth="yes"/>
      <point x="656" y="1253"/>
      <point x="670" y="1260"/>
      <point x="694" y="1262" type="curve"/>
      <point x="821" y="1272" type="line"/>
      <point x="821" y="1374" type="line"/>
      <point x="203" y="1374" type="line"/>
      <point x="203" y="1272" type="line"/>
      <point x="317" y="1262" type="line"/>
      <point x="346" y="1260"/>
      <point x="363" y="1255"/>
      <point x="358" y="1231" type="curve" smooth="yes"/>
      <point x="215" y="543" type="line" smooth="yes"/>
      <point x="196" y="451"/>
      <point x="188" y="371"/>
      <point x="188" y="332" type="curve" smooth="yes"/>
      <point x="188" y="78"/>
      <point x="377" y="-33"/>
    </contour>
  </outline>
</glyph>
<glyph name="LtnCapVHook" format="2">
  <advance width="1526"/>
  <unicode hex="01B2"/>
  <anchor x="603" y="-100" name="L"/>
  <anchor x="891" y="1500" name="U"/>
  <outline>
    <contour>
      <point x="612" y="-29" type="curve" smooth="yes"/>
      <point x="1161" y="-29"/>
      <point x="1479" y="406"/>
      <point x="1479" y="920" type="curve" smooth="yes"/>
      <point x="1479" y="1114"/>
      <point x="1352" y="1407"/>
      <point x="1139" y="1407" type="curve" smooth="yes"/>
      <point x="1026" y="1407"/>
      <point x="944" y="1339"/>
      <point x="944" y="1243" type="curve" smooth="yes"/>
      <point x="944" y="1190"/>
      <point x="1006" y="1116"/>
      <point x="1006" y="1116" type="curve"/>
      <point x="1217" y="1116" type="line"/>
      <point x="1247" y="1079"/>
      <point x="1264" y="989"/>
      <point x="1264" y="846" type="curve" smooth="yes"/>
      <point x="1264" y="504"/>
      <point x="999" y="156"/>
      <point x="707" y="156" type="curve" smooth="yes"/>
      <point x="604" y="156"/>
      <point x="467" y="213"/>
      <point x="467" y="403" type="curve" smooth="yes"/>
      <point x="467" y="403"/>
      <point x="473" y="471"/>
      <point x="489" y="543" type="curve"/>
      <point x="662" y="1374" type="line"/>
      <point x="182" y="1374" type="line"/>
      <point x="182" y="1272" type="line"/>
      <point x="291" y="1264" type="line"/>
      <point x="336" y="1260"/>
      <point x="342" y="1249"/>
      <point x="334" y="1210" type="curve" smooth="yes"/>
      <point x="197" y="545" type="line" smooth="yes"/>
      <point x="174" y="438"/>
      <point x="162" y="354"/>
      <point x="162" y="334" type="curve" smooth="yes"/>
      <point x="162" y="102"/>
      <point x="342" y="-29"/>
    </contour>
  </outline>
</glyph>
<glyph name="LtnCapYHook.RtHook" format="2">
  <advance width="1395"/>
  <unicode hex="01B3"/>
  <anchor x="531" y="-100" name="L"/>
  <anchor x="819" y="1500" name="U"/>
  <outline>
    <contour>
      <point x="303" y="0" type="line"/>
      <point x="922" y="0" type="line"/>
      <point x="922" y="102" type="line"/>
      <point x="805" y="113" type="line"/>
      <point x="776" y="115"/>
      <point x="762" y="119"/>
      <point x="768" y="143" type="curve" smooth="yes"/>
      <point x="852" y="557" type="line"/>
      <point x="1255" y="1217" type="line" smooth="yes"/>
      <point x="1325" y="1331"/>
      <point x="1346" y="1376"/>
      <point x="1384" y="1389" type="curve"/>
      <point x="1550" y="1221" type="line"/>
      <point x="1681" y="1257"/>
      <point x="1745" y="1315"/>
      <point x="1745" y="1395" type="curve" smooth="yes"/>
      <point x="1745" y="1460"/>
      <point x="1630" y="1542"/>
      <point x="1503" y="1542" type="curve" smooth="yes"/>
      <point x="1288" y="1542"/>
      <point x="1169" y="1462"/>
      <point x="1094" y="1337" type="curve" smooth="yes"/>
      <point x="766" y="801" type="line"/>
      <point x="629" y="1231" type="line"/>
      <point x="618" y="1257"/>
      <point x="639" y="1264"/>
      <point x="662" y="1264" type="curve"/>
      <point x="788" y="1272" type="line"/>
      <point x="788" y="1374" type="line"/>
      <point x="172" y="1374" type="line"/>
      <point x="172" y="1272" type="line"/>
      <point x="274" y="1264" type="line"/>
      <point x="299" y="1262"/>
      <point x="319" y="1262"/>
      <point x="326" y="1239" type="curve"/>
      <point x="555" y="559" type="line"/>
      <point x="471" y="145" type="line" smooth="yes"/>
      <point x="465" y="119"/>
      <point x="446" y="115"/>
      <point x="420" y="113" type="curve"/>
      <point x="303" y="102" type="line"/>
    </contour>
  </outline>
</glyph>
<glyph name="LtnSmYHook.RtHook" format="2">
  <advance width="1315"/>
  <unicode hex="01B4"/>
  <anchor x="682" y="-100" name="L"/>
  <anchor x="360" y="-404" name="O"/>
  <anchor x="640" y="1100" name="U"/>
  <outline>
    <contour>
      <point x="40" y="-469" type="curve" smooth="yes"/>
      <point x="297" y="-469"/>
      <point x="474" y="-283"/>
      <point x="659" y="87" type="curve" smooth="yes"/>
      <point x="742" y="252"/>
      <point x="918" y="674"/>
      <point x="989" y="854" type="curve" smooth="yes"/>
      <point x="1088" y="1104"/>
      <point x="1201" y="1179"/>
      <point x="1244" y="1179" type="curve"/>
      <point x="1380" y="1039" type="line"/>
      <point x="1437" y="1071"/>
      <point x="1504" y="1143"/>
      <point x="1504" y="1222" type="curve" smooth="yes"/>
      <point x="1504" y="1307"/>
      <point x="1433" y="1373"/>
      <point x="1327" y="1373" type="curve" smooth="yes"/>
      <point x="1129" y="1373"/>
      <point x="946" y="1238"/>
      <point x="832" y="957" type="curve" smooth="yes"/>
      <point x="759" y="777"/>
      <point x="617" y="418"/>
      <point x="518" y="209" type="curve" smooth="yes"/>
      <point x="419" y="0"/>
      <point x="223" y="-272"/>
      <point x="99" y="-302" type="curve"/>
      <point x="0" y="-143" type="line"/>
      <point x="-101" y="-147"/>
      <point x="-161" y="-212"/>
      <point x="-161" y="-304" type="curve" smooth="yes"/>
      <point x="-161" y="-385"/>
      <point x="-100" y="-469"/>
    </contour>
    <contour>
      <point x="410" y="-67" type="curve"/>
      <point x="614" y="286" type="line"/>
      <point x="593" y="439"/>
      <point x="527" y="747"/>
      <point x="500" y="840" type="curve" smooth="yes"/>
      <point x="459" y="975"/>
      <point x="407" y="1027"/>
      <point x="319" y="1024" type="curve" smooth="yes"/>
      <point x="256" y="1022"/>
      <point x="41" y="959"/>
      <point x="4" y="947" type="curve"/>
      <point x="4" y="884" type="line"/>
      <point x="205" y="870" type="line" smooth="yes"/>
      <point x="230" y="868"/>
      <point x="268" y="699"/>
      <point x="311" y="469" type="curve" smooth="yes"/>
      <point x="329" y="372"/>
      <point x="391" y="64"/>
    </contour>
  </outline>
</glyph>
<glyph name="LtnCapZStrk" format="2">
  <advance width="1237"/>
  <unicode hex="01B5"/>
  <anchor x="510" y="-100" name="L"/>
  <anchor x="798" y="1500" name="U"/>
  <outline>
    <contour>
      <point x="1307" y="1374" type="line"/>
      <point x="281" y="1374" type="line"/>
      <point x="207" y="1001" type="line"/>
      <point x="379" y="1001" type="line"/>
      <point x="444" y="1219" type="line"/>
      <point x="451" y="1239"/>
      <point x="481" y="1247"/>
      <point x="502" y="1247" type="curve" smooth="yes"/>
      <point x="928" y="1247" type="line"/>
      <point x="-23" y="100" type="line"/>
      <point x="-43" y="0" type="line"/>
      <point x="1057" y="0" type="line"/>
      <point x="1139" y="424" type="line"/>
      <point x="967" y="424" type="line"/>
      <point x="893" y="158" type="line"/>
      <point x="887" y="139"/>
      <point x="856" y="127"/>
      <point x="836" y="127" type="curve" smooth="yes"/>
      <point x="332" y="127" type="line"/>
      <point x="1286" y="1272" type="line"/>
    </contour>
    <contour>
      <point x="1028" y="657" type="line"/>
      <point x="1028" y="788" type="line"/>
      <point x="266" y="788" type="line"/>
      <point x="266" y="657" type="line"/>
    </contour>
  </outline>
</glyph>
<glyph name="LtnCapEzh" format="2">
  <advance width="1260"/>
  <unicode hex="01B7"/>
  <anchor x="404" y="-500" name="L"/>
  <anchor x="768" y="1500" name="U"/>
  <outline>
    <contour>
      <point x="1260" y="1223" type="line"/>
      <point x="1260" y="1374" type="line"/>
      <point x="225" y="1374" type="line"/>
      <point x="135" y="901" type="line"/>
      <point x="295" y="901" type="line"/>
      <point x="373" y="1120" type="line" smooth="yes"/>
      <point x="381" y="1147"/>
      <point x="410" y="1161"/>
      <point x="426" y="1161" type="curve" smooth="yes"/>
      <point x="926" y="1161" type="line"/>
      <point x="295" y="541" type="line"/>
      <point x="385" y="412" type="line"/>
      <point x="455" y="465"/>
      <point x="463" y="475"/>
      <point x="494" y="475" type="curve" smooth="yes"/>
      <point x="555" y="475"/>
      <point x="788" y="403"/>
      <point x="788" y="193" type="curve" smooth="yes"/>
      <point x="788" y="-66"/>
      <point x="573" y="-322"/>
      <point x="385" y="-322" type="curve" smooth="yes"/>
      <point x="348" y="-322"/>
      <point x="270" y="-313"/>
      <point x="215" y="-272" type="curve"/>
      <point x="188" y="-16" type="line"/>
      <point x="162" y="10"/>
      <point x="72" y="12"/>
      <point x="49" y="12" type="curve" smooth="yes"/>
      <point x="-61" y="12"/>
      <point x="-133" y="-109"/>
      <point x="-133" y="-205" type="curve" smooth="yes"/>
      <point x="-133" y="-299"/>
      <point x="6" y="-469"/>
      <point x="342" y="-469" type="curve" smooth="yes"/>
      <point x="801" y="-469"/>
      <point x="1126" y="-117"/>
      <point x="1126" y="197" type="curve" smooth="yes"/>
      <point x="1126" y="412"/>
      <point x="905" y="586"/>
      <point x="643" y="606" type="curve"/>
    </contour>
  </outline>
</glyph>
<glyph name="LtnSmEzhRev" format="2">
  <advance width="1070"/>
  <unicode hex="01B9"/>
  <anchor x="347" y="-500" name="L"/>
  <anchor x="667" y="1100" name="U"/>
  <outline>
    <contour>
      <point x="445" y="-469" type="curve" smooth="yes"/>
      <point x="661" y="-469"/>
      <point x="961" y="-375"/>
      <point x="961" y="-170" type="curve"/>
      <point x="961" y="-117"/>
      <point x="922" y="-64"/>
      <point x="837" y="-64" type="curve" smooth="yes"/>
      <point x="789" y="-64"/>
      <point x="744" y="-82"/>
      <point x="707" y="-100" type="curve"/>
      <point x="659" y="-287" type="line"/>
      <point x="599" y="-332"/>
      <point x="544" y="-340"/>
      <point x="482" y="-340" type="curve" smooth="yes"/>
      <point x="332" y="-340"/>
      <point x="238" y="-179"/>
      <point x="238" y="-32" type="curve" smooth="yes"/>
      <point x="238" y="175"/>
      <point x="369" y="268"/>
      <point x="580" y="284" type="curve"/>
      <point x="652" y="163" type="line"/>
      <point x="817" y="300" type="line"/>
      <point x="401" y="799" type="line"/>
      <point x="436" y="796"/>
      <point x="499" y="791"/>
      <point x="577" y="791" type="curve" smooth="yes"/>
      <point x="660" y="791"/>
      <point x="768" y="856"/>
      <point x="857" y="856" type="curve" smooth="yes"/>
      <point x="902" y="856"/>
      <point x="919" y="842"/>
      <point x="936" y="811" type="curve"/>
      <point x="787" y="688" type="line"/>
      <point x="793" y="653"/>
      <point x="853" y="598"/>
      <point x="922" y="598" type="curve" smooth="yes"/>
      <point x="1021" y="598"/>
      <point x="1109" y="698"/>
      <point x="1109" y="807" type="curve" smooth="yes"/>
      <point x="1109" y="939"/>
      <point x="1008" y="1024"/>
      <point x="821" y="1024" type="curve" smooth="yes"/>
      <point x="666" y="1024"/>
      <point x="556" y="921"/>
      <point x="406" y="921" type="curve" smooth="yes"/>
      <point x="384" y="921"/>
      <point x="373" y="929"/>
      <point x="345" y="933" type="curve"/>
      <point x="302" y="1056" type="line"/>
      <point x="75" y="937" type="line"/>
      <point x="498" y="405" type="line"/>
      <point x="218" y="405"/>
      <point x="-30" y="220"/>
      <point x="-30" y="-72" type="curve" smooth="yes"/>
      <point x="-30" y="-336"/>
      <point x="193" y="-469"/>
    </contour>
  </outline>
</glyph>
<glyph name="LtnCapTnFive" format="2">
  <advance width="1332"/>
  <unicode hex="01BC"/>
  <anchor x="480" y="-100" name="L"/>
  <anchor x="768" y="1500" name="U"/>
  <outline>
    <contour>
      <point x="564" y="1201" type="line"/>
      <point x="567" y="1217"/>
      <point x="587" y="1244"/>
      <point x="618" y="1244" type="curve" smooth="yes"/>
      <point x="1068" y="1244" type="line" smooth="yes"/>
      <point x="1087" y="1244"/>
      <point x="1100" y="1226"/>
      <point x="1099" y="1205" type="curve" smooth="yes"/>
      <point x="1096" y="1015" type="line"/>
      <point x="1246" y="1015" type="line"/>
      <point x="1307" y="1374" type="line"/>
      <point x="209" y="1374" type="line"/>
      <point x="186" y="1252" type="line"/>
      <point x="299" y="1244" type="line"/>
      <point x="329" y="1240"/>
      <point x="340" y="1217"/>
      <point x="336" y="1201" type="curve" smooth="yes"/>
      <point x="254" y="774" type="line"/>
      <point x="580" y="774"/>
      <point x="837" y="651"/>
      <point x="837" y="425" type="curve" smooth="yes"/>
      <point x="837" y="238"/>
      <point x="686" y="100"/>
      <point x="490" y="100" type="curve" smooth="yes"/>
      <point x="408" y="100"/>
      <point x="321" y="137"/>
      <point x="292" y="168" type="curve"/>
      <point x="255" y="345" type="line"/>
      <point x="247" y="347"/>
      <point x="211" y="355"/>
      <point x="188" y="355" type="curve" smooth="yes"/>
      <point x="109" y="355"/>
      <point x="20" y="296"/>
      <point x="20" y="190" type="curve" smooth="yes"/>
      <point x="20" y="68"/>
      <point x="202" y="-33"/>
      <point x="436" y="-33" type="curve" smooth="yes"/>
      <point x="836" y="-33"/>
      <point x="1127" y="151"/>
      <point x="1127" y="474" type="curve" smooth="yes"/>
      <point x="1127" y="801"/>
      <point x="765" y="918"/>
      <point x="513" y="941" type="curve"/>
    </contour>
  </outline>
</glyph>
<glyph name="LtnLateralClick" format="2">
  <advance width="753"/>
  <unicode hex="01C1"/>
  <anchor x="193" y="-500" name="L"/>
  <anchor x="590" y="1570" name="U"/>
  <outline>
    <contour>
      <point x="435" y="-440" type="line"/>
      <point x="806" y="1507" type="line"/>
      <point x="651" y="1507" type="line"/>
      <point x="280" y="-440" type="line"/>
    </contour>
    <contour>
      <point x="145" y="-440" type="line"/>
      <point x="516" y="1507" type="line"/>
      <point x="361" y="1507" type="line"/>
      <point x="-10" y="-440" type="line"/>
    </contour>
  </outline>
</glyph>
<glyph name="LtnAlveolarClick" format="2">
  <advance width="863"/>
  <unicode hex="01C2"/>
  <anchor x="242" y="-500" name="L"/>
  <anchor x="644" y="1570" name="U"/>
  <outline>
    <component base="LtnDentalClick" xOffset="200"/>
    <contour>
      <point x="100" y="609" type="line"/>
      <point x="853" y="609" type="line"/>
      <point x="853" y="743" type="line"/>
      <point x="100" y="743" type="line"/>
    </contour>
    <contour>
      <point x="40" y="323" type="line"/>
      <point x="793" y="323" type="line"/>
      <point x="793" y="457" type="line"/>
      <point x="40" y="457" type="line"/>
    </contour>
  </outline>
</glyph>
<glyph name="LtnRetrClick" format="2">
  <advance width="549"/>
  <unicode hex="01C3"/>
  <anchor x="151" y="-100" name="L"/>
  <anchor x="467" y="1540" name="U"/>
  <outline>
    <contour>
      <point x="579" y="1262" type="line"/>
      <point x="579" y="1362"/>
      <point x="540" y="1407"/>
      <point x="440" y="1407" type="curve" smooth="yes"/>
      <point x="338" y="1407"/>
      <point x="239" y="1329"/>
      <point x="239" y="1214" type="curve"/>
      <point x="192" y="426" type="line"/>
      <point x="303" y="426" type="line"/>
    </contour>
    <contour>
      <point x="377" y="133" type="curve" smooth="yes"/>
      <point x="377" y="225"/>
      <point x="309" y="305"/>
      <point x="211" y="305" type="curve" smooth="yes"/>
      <point x="123" y="305"/>
      <point x="55" y="231"/>
      <point x="55" y="141" type="curve" smooth="yes"/>
      <point x="55" y="53"/>
      <point x="121" y="-25"/>
      <point x="209" y="-25" type="curve" smooth="yes"/>
      <point x="299" y="-25"/>
      <point x="377" y="43"/>
    </contour>
  </outline>
</glyph>
<glyph name="LtnSmGStrk" format="2">
  <advance width="1110"/>
  <unicode hex="01E5"/>
  <anchor x="459" y="-500" name="L"/>
  <anchor x="779" y="1100" name="U"/>
  <outline>
    <contour>
      <point x="1172" y="854" type="line"/>
      <point x="1172" y="973" type="line"/>
      <point x="873" y="973" type="line"/>
      <point x="834" y="989"/>
      <point x="744" y="1024"/>
      <point x="641" y="1024" type="curve" smooth="yes"/>
      <point x="324" y="1024"/>
      <point x="180" y="799"/>
      <point x="180" y="608" type="curve" smooth="yes"/>
      <point x="180" y="479"/>
      <point x="260" y="403"/>
      <point x="369" y="352" type="curve"/>
      <point x="316" y="297"/>
      <point x="281" y="188"/>
      <point x="291" y="125" type="curve"/>
      <point x="137" y="72"/>
      <point x="17" y="-23"/>
      <point x="17" y="-162" type="curve" smooth="yes"/>
      <point x="17" y="-309"/>
      <point x="133" y="-469"/>
      <point x="457" y="-469" type="curve" smooth="yes"/>
      <point x="766" y="-469"/>
      <point x="1022" y="-301"/>
      <point x="1022" y="-129" type="curve" smooth="yes"/>
      <point x="1022" y="-10"/>
      <point x="936" y="41"/>
      <point x="805" y="98" type="curve"/>
      <point x="533" y="221" type="line"/>
      <point x="529" y="244"/>
      <point x="537" y="287"/>
      <point x="551" y="326" type="curve"/>
      <point x="848" y="328"/>
      <point x="1006" y="524"/>
      <point x="1006" y="727" type="curve" smooth="yes"/>
      <point x="1006" y="776"/>
      <point x="995" y="823"/>
      <point x="983" y="854" type="curve"/>
    </contour>
    <contour>
      <point x="723" y="737" type="curve" smooth="yes"/>
      <point x="723" y="612"/>
      <point x="674" y="422"/>
      <point x="539" y="422" type="curve" smooth="yes"/>
      <point x="471" y="422"/>
      <point x="463" y="489"/>
      <point x="463" y="584" type="curve" smooth="yes"/>
      <point x="463" y="784"/>
      <point x="600" y="918"/>
      <point x="645" y="918" type="curve" smooth="yes"/>
      <point x="723" y="918"/>
      <point x="723" y="834"/>
    </contour>
    <contour>
      <point x="746" y="-170" type="curve" smooth="yes"/>
      <point x="746" y="-233"/>
      <point x="696" y="-354"/>
      <point x="510" y="-354" type="curve" smooth="yes"/>
      <point x="342" y="-354"/>
      <point x="295" y="-215"/>
      <point x="295" y="-127" type="curve" smooth="yes"/>
      <point x="295" y="-51"/>
      <point x="326" y="18"/>
      <point x="416" y="53" type="curve"/>
      <point x="645" y="-47" type="line"/>
      <point x="721" y="-82"/>
      <point x="746" y="-123"/>
    </contour>
    <contour>
      <point x="1099" y="-208" type="line"/>
      <point x="1099" y="-97" type="line"/>
      <point x="-52" y="-97" type="line"/>
      <point x="-52" y="-208" type="line"/>
    </contour>
  </outline>
</glyph>
<glyph name="LtnSmOOgonekMacron" format="2">
  <advance width="1133"/>
  <unicode hex="01ED"/>
  <anchor x="466" y="0" name="H"/>
  <anchor x="453" y="-400" name="L"/>
  <anchor x="1133" y="1000" name="R"/>
  <anchor x="749" y="1470" name="U"/>
  <outline>
    <component base="CombMacron" xOffset="1133"/>
    <contour>
      <point x="475" y="-25" type="curve" smooth="yes"/>
      <point x="490" y="-25"/>
      <point x="506" y="-24"/>
      <point x="521" y="-23" type="curve"/>
      <point x="433" y="-85"/>
      <point x="340" y="-182"/>
      <point x="340" y="-287" type="curve" smooth="yes"/>
      <point x="340" y="-391"/>
      <point x="447" y="-426"/>
      <point x="535" y="-426" type="curve" smooth="yes"/>
      <point x="588" y="-426"/>
      <point x="690" y="-385"/>
      <point x="742" y="-362" type="curve"/>
      <point x="701" y="-256" type="line"/>
      <point x="676" y="-272"/>
      <point x="627" y="-307"/>
      <point x="600" y="-307" type="curve" smooth="yes"/>
      <point x="551" y="-307"/>
      <point x="514" y="-279"/>
      <point x="514" y="-227" type="curve" smooth="yes"/>
      <point x="514" y="-137"/>
      <point x="597" y="-47"/>
      <point x="735" y="36" type="curve"/>
      <point x="948" y="144"/>
      <point x="1069" y="383"/>
      <point x="1069" y="621" type="curve" smooth="yes"/>
      <point x="1069" y="887"/>
      <point x="907" y="1024"/>
      <point x="655" y="1024" type="curve" smooth="yes"/>
      <point x="276" y="1024"/>
      <point x="66" y="692"/>
      <point x="66" y="371" type="curve" smooth="yes"/>
      <point x="66" y="143"/>
      <point x="195" y="-25"/>
    </contour>
    <contour>
      <point x="500" y="88" type="curve" smooth="yes"/>
      <point x="453" y="88"/>
      <point x="358" y="168"/>
      <point x="358" y="379" type="curve" smooth="yes"/>
      <point x="358" y="655"/>
      <point x="508" y="915"/>
      <point x="633" y="915" type="curve" smooth="yes"/>
      <point x="684" y="915"/>
      <point x="774" y="829"/>
      <point x="774" y="629" type="curve" smooth="yes"/>
      <point x="774" y="377"/>
      <point x="643" y="88"/>
    </contour>
  </outline>
</glyph>
<glyph name="LtnCapWynn" format="2">
  <advance width="1269"/>
  <unicode hex="01F7"/>
  <anchor x="90" y="-500" name="L"/>
  <anchor x="733" y="1500" name="U"/>
  <outline>
    <contour>
      <point x="-172" y="-446" type="line"/>
      <point x="438" y="-446" type="line"/>
      <point x="438" y="-344" type="line"/>
      <point x="307" y="-332" type="line" smooth="yes"/>
      <point x="271" y="-329"/>
      <point x="265" y="-317"/>
      <point x="268" y="-301" type="curve" smooth="yes"/>
      <point x="333" y="20" type="line"/>
      <point x="679" y="217"/>
      <point x="1279" y="675"/>
      <point x="1279" y="1118" type="curve" smooth="yes"/>
      <point x="1279" y="1293"/>
      <point x="1118" y="1407"/>
      <point x="969" y="1407" type="curve" smooth="yes"/>
      <point x="786" y="1407"/>
      <point x="647" y="1333"/>
      <point x="565" y="1267" type="curve"/>
      <point x="587" y="1387" type="line"/>
      <point x="452" y="1387" type="line"/>
      <point x="106" y="1322" type="line"/>
      <point x="106" y="1248" type="line"/>
      <point x="286" y="1232" type="line"/>
      <point x="-11" y="-302" type="line"/>
      <point x="-17" y="-326"/>
      <point x="-25" y="-330"/>
      <point x="-51" y="-332" type="curve" smooth="yes"/>
      <point x="-172" y="-343" type="line"/>
    </contour>
    <contour>
      <point x="369" y="221" type="curve"/>
      <point x="537" y="1090" type="line"/>
      <point x="638" y="1174"/>
      <point x="737" y="1220"/>
      <point x="838" y="1220" type="curve" smooth="yes"/>
      <point x="923" y="1220"/>
      <point x="968" y="1153"/>
      <point x="968" y="1050" type="curve" smooth="yes"/>
      <point x="968" y="757"/>
      <point x="661" y="435"/>
    </contour>
  </outline>
</glyph>
<glyph name="LtnCapZHook" format="2">
  <advance width="1237"/>
  <unicode hex="0224"/>
  <anchor x="547" y="-100" name="L"/>
  <anchor x="835" y="1500" name="U"/>
  <outline>
    <contour>
      <point x="806" y="-326" type="curve"/>
      <point x="907" y="-326" type="line"/>
      <point x="997" y="-255"/>
      <point x="1139" y="-103"/>
      <point x="1139" y="33" type="curve" smooth="yes"/>
      <point x="1139" y="83"/>
      <point x="1122" y="114"/>
      <point x="1110" y="127" type="curve"/>
      <point x="332" y="127" type="line"/>
      <point x="1286" y="1272" type="line"/>
      <point x="1307" y="1374" type="line"/>
      <point x="281" y="1374" type="line"/>
      <point x="207" y="1001" type="line"/>
      <point x="379" y="1001" type="line"/>
      <point x="444" y="1219" type="line"/>
      <point x="452" y="1239"/>
      <point x="481" y="1247"/>
      <point x="502" y="1247" type="curve" smooth="yes"/>
      <point x="928" y="1247" type="line"/>
      <point x="-23" y="100" type="line"/>
      <point x="-43" y="0" type="line"/>
      <point x="921" y="0" type="line"/>
      <point x="929" y="-10"/>
      <point x="932" y="-32"/>
      <point x="932" y="-54" type="curve" smooth="yes"/>
      <point x="932" y="-148"/>
      <point x="853" y="-266"/>
    </contour>
  </outline>
</glyph>
<glyph name="LtnSmLCurl" format="2">
  <advance width="729"/>
  <unicode hex="0234"/>
  <anchor x="182" y="-100" name="L"/>
  <anchor x="498" y="1540" name="U"/>
  <outline>
    <contour>
      <point x="-55" y="-127" type="line"/>
      <point x="14" y="-25"/>
      <point x="33" y="0"/>
      <point x="109" y="82" type="curve"/>
      <point x="162" y="-25"/>
      <point x="279" y="-25"/>
      <point x="356" y="-25" type="curve" smooth="yes"/>
      <point x="578" y="-25"/>
      <point x="739" y="104"/>
      <point x="739" y="260" type="curve" smooth="yes"/>
      <point x="739" y="369"/>
      <point x="659" y="438"/>
      <point x="555" y="438" type="curve" smooth="yes"/>
      <point x="496" y="438"/>
      <point x="444" y="420"/>
      <point x="399" y="403" type="curve"/>
      <point x="612" y="1509" type="line"/>
      <point x="477" y="1509" type="line"/>
      <point x="131" y="1444" type="line"/>
      <point x="131" y="1370" type="line"/>
      <point x="311" y="1354" type="line"/>
      <point x="94" y="238" type="line"/>
      <point x="-29" y="119"/>
      <point x="-41" y="106"/>
      <point x="-162" y="-51" type="curve"/>
    </contour>
    <contour>
      <point x="430" y="98" type="curve" smooth="yes"/>
      <point x="371" y="98"/>
      <point x="348" y="150"/>
      <point x="358" y="195" type="curve" smooth="yes"/>
      <point x="364" y="220"/>
      <point x="369" y="245"/>
      <point x="375" y="270" type="curve"/>
      <point x="410" y="293"/>
      <point x="461" y="326"/>
      <point x="502" y="326" type="curve" smooth="yes"/>
      <point x="553" y="326"/>
      <point x="565" y="276"/>
      <point x="565" y="242" type="curve" smooth="yes"/>
      <point x="565" y="166"/>
      <point x="500" y="98"/>
    </contour>
  </outline>
</glyph>
<glyph name="LtnSmQPDigraph" format="2">
  <advance width="1708"/>
  <unicode hex="0239"/>
  <anchor x="660" y="-500" name="L"/>
  <anchor x="980" y="1100" name="U"/>
  <outline>
    <contour>
      <point x="403" y="-449" type="line"/>
      <point x="1006" y="-449" type="line"/>
      <point x="1006" y="-356" type="line"/>
      <point x="864" y="-344" type="line"/>
      <point x="842" y="-344"/>
      <point x="829" y="-330"/>
      <point x="833" y="-311" type="curve" smooth="yes"/>
      <point x="895" y="-8" type="line"/>
      <point x="922" y="-16"/>
      <point x="960" y="-25"/>
      <point x="1010" y="-25" type="curve" smooth="yes"/>
      <point x="1399" y="-25"/>
      <point x="1642" y="309"/>
      <point x="1642" y="637" type="curve" smooth="yes"/>
      <point x="1642" y="823"/>
      <point x="1544" y="1024"/>
      <point x="1329" y="1024" type="curve" smooth="yes"/>
      <point x="1221" y="1024"/>
      <point x="1126" y="973"/>
      <point x="1083" y="948" type="curve"/>
      <point x="1100" y="1024" type="line"/>
      <point x="903" y="1024" type="line"/>
      <point x="870" y="987" type="line"/>
      <point x="823" y="1008"/>
      <point x="760" y="1024"/>
      <point x="692" y="1024" type="curve" smooth="yes"/>
      <point x="291" y="1024"/>
      <point x="70" y="657"/>
      <point x="70" y="350" type="curve" smooth="yes"/>
      <point x="70" y="115"/>
      <point x="176" y="-29"/>
      <point x="395" y="-29" type="curve" smooth="yes"/>
      <point x="469" y="-29"/>
      <point x="553" y="-2"/>
      <point x="635" y="45" type="curve"/>
      <point x="563" y="-311" type="line" smooth="yes"/>
      <point x="559" y="-330"/>
      <point x="549" y="-342"/>
      <point x="528" y="-344" type="curve"/>
      <point x="403" y="-356" type="line"/>
    </contour>
    <contour>
      <point x="477" y="115" type="curve" smooth="yes"/>
      <point x="377" y="115"/>
      <point x="350" y="211"/>
      <point x="350" y="358" type="curve" smooth="yes"/>
      <point x="350" y="686"/>
      <point x="545" y="911"/>
      <point x="719" y="911" type="curve" smooth="yes"/>
      <point x="748" y="911"/>
      <point x="791" y="827"/>
      <point x="784" y="799" type="curve"/>
      <point x="672" y="236" type="line"/>
      <point x="626" y="186"/>
      <point x="559" y="115"/>
    </contour>
    <contour>
      <point x="1049" y="84" type="curve" smooth="yes"/>
      <point x="1012" y="84"/>
      <point x="956" y="119"/>
      <point x="924" y="139" type="curve"/>
      <point x="1049" y="770" type="line"/>
      <point x="1089" y="807"/>
      <point x="1175" y="881"/>
      <point x="1233" y="881" type="curve" smooth="yes"/>
      <point x="1341" y="881"/>
      <point x="1356" y="743"/>
      <point x="1356" y="629" type="curve" smooth="yes"/>
      <point x="1356" y="389"/>
      <point x="1221" y="84"/>
    </contour>
  </outline>
</glyph>
<glyph name="LtnCapAStrk" format="2">
  <advance width="1464"/>
  <unicode hex="023A"/>
  <anchor x="1080" y="0" name="H"/>
  <anchor x="600" y="-100" name="L"/>
  <anchor x="1254" y="0" name="O"/>
  <anchor x="888" y="1500" name="U"/>
  <outline>
    <component base="LtnCapA"/>
    <contour>
      <point x="183" y="-90" type="line"/>
      <point x="331" y="-197" type="line"/>
      <point x="1433" y="1460" type="line"/>
      <point x="1269" y="1563" type="line"/>
    </contour>
  </outline>
</glyph>
<glyph name="LtnCapCStrk" format="2">
  <advance width="1376"/>
  <unicode hex="023B"/>
  <anchor x="571" y="0" name="H"/>
  <anchor x="599" y="-100" name="L"/>
  <anchor x="887" y="1500" name="U"/>
  <outline>
    <component base="LtnCapC"/>
    <contour>
      <point x="53" y="-90" type="line"/>
      <point x="201" y="-197" type="line"/>
      <point x="1303" y="1460" type="line"/>
      <point x="1139" y="1563" type="line"/>
    </contour>
  </outline>
</glyph>
<glyph name="LtnCapTDiagStrk" format="2">
  <advance width="1286"/>
  <unicode hex="023E"/>
  <anchor x="544" y="0" name="H"/>
  <anchor x="524" y="-100" name="L"/>
  <anchor x="812" y="1500" name="U"/>
  <outline>
    <component base="LtnCapT"/>
    <contour>
      <point x="43" y="-90" type="line"/>
      <point x="191" y="-197" type="line"/>
      <point x="1293" y="1460" type="line"/>
      <point x="1129" y="1563" type="line"/>
    </contour>
  </outline>
</glyph>
<glyph name="LtnCapTurnedV" format="2">
  <advance width="1403"/>
  <unicode hex="0245"/>
  <anchor x="580" y="-100" name="L"/>
  <anchor x="868" y="1500" name="U"/>
  <outline>
    <contour>
      <point x="-82" y="0" type="line"/>
      <point x="422" y="0" type="line"/>
      <point x="422" y="104" type="line"/>
      <point x="319" y="106" type="line"/>
      <point x="301" y="109"/>
      <point x="276" y="111"/>
      <point x="291" y="137" type="curve" smooth="yes"/>
      <point x="743" y="991" type="line"/>
      <point x="879" y="137" type="line" smooth="yes"/>
      <point x="883" y="111"/>
      <point x="862" y="106"/>
      <point x="842" y="106" type="curve"/>
      <point x="750" y="104" type="line"/>
      <point x="750" y="0" type="line"/>
      <point x="1300" y="0" type="line"/>
      <point x="1300" y="104" type="line"/>
      <point x="1221" y="109" type="line"/>
      <point x="1196" y="109"/>
      <point x="1178" y="113"/>
      <point x="1174" y="139" type="curve" smooth="yes"/>
      <point x="973" y="1407" type="line"/>
      <point x="737" y="1407" type="line"/>
      <point x="31" y="115" type="line"/>
      <point x="-82" y="102" type="line"/>
    </contour>
  </outline>
</glyph>
<glyph name="LtnCapEStrk" format="2">
  <advance width="1229"/>
  <unicode hex="0246"/>
  <anchor x="512" y="-100" name="L"/>
  <anchor x="800" y="1500" name="U"/>
  <outline>
    <component base="LtnCapE"/>
    <contour>
      <point x="3" y="-90" type="line"/>
      <point x="151" y="-197" type="line"/>
      <point x="1253" y="1460" type="line"/>
      <point x="1089" y="1563" type="line"/>
    </contour>
  </outline>
</glyph>
<glyph name="LtnCapRBarredStem" format="2">
  <advance width="1399"/>
  <unicode hex="024C"/>
  <anchor x="595" y="-100" name="L"/>
  <anchor x="883" y="1500" name="U"/>
  <outline>
    <contour>
      <point x="1153" y="-33" type="curve" smooth="yes"/>
      <point x="1227" y="-33"/>
      <point x="1284" y="-20"/>
      <point x="1346" y="6" type="curve"/>
      <point x="1346" y="102" type="line"/>
      <point x="1139" y="102"/>
      <point x="1120" y="178"/>
      <point x="1083" y="322" type="curve" smooth="yes"/>
      <point x="1044" y="475"/>
      <point x="1024" y="578"/>
      <point x="866" y="649" type="curve"/>
      <point x="1098" y="717"/>
      <point x="1276" y="852"/>
      <point x="1276" y="1067" type="curve" smooth="yes"/>
      <point x="1276" y="1294"/>
      <point x="1063" y="1374"/>
      <point x="788" y="1374" type="curve" smooth="yes"/>
      <point x="197" y="1374" type="line"/>
      <point x="197" y="1272" type="line"/>
      <point x="315" y="1262" type="line"/>
      <point x="342" y="1260"/>
      <point x="356" y="1253"/>
      <point x="350" y="1231" type="curve"/>
      <point x="254" y="725" type="line"/>
      <point x="23" y="725" type="line"/>
      <point x="23" y="594" type="line"/>
      <point x="227" y="594" type="line"/>
      <point x="141" y="145" type="line" smooth="yes"/>
      <point x="136" y="119"/>
      <point x="119" y="113"/>
      <point x="94" y="111" type="curve"/>
      <point x="-27" y="102" type="line"/>
      <point x="-27" y="0" type="line"/>
      <point x="592" y="0" type="line"/>
      <point x="592" y="102" type="line"/>
      <point x="467" y="113" type="line"/>
      <point x="440" y="115"/>
      <point x="430" y="121"/>
      <point x="434" y="143" type="curve" smooth="yes"/>
      <point x="520" y="596" type="line"/>
      <point x="543" y="596"/>
      <point x="569" y="598"/>
      <point x="586" y="598" type="curve" smooth="yes"/>
      <point x="741" y="598"/>
      <point x="770" y="420"/>
      <point x="797" y="301" type="curve" smooth="yes"/>
      <point x="842" y="86"/>
      <point x="901" y="-33"/>
    </contour>
    <contour>
      <point x="547" y="721" type="line"/>
      <point x="647" y="1251" type="line"/>
      <point x="664" y="1252"/>
      <point x="681" y="1254"/>
      <point x="698" y="1255" type="curve" smooth="yes"/>
      <point x="762" y="1260"/>
      <point x="958" y="1235"/>
      <point x="958" y="1036" type="curve" smooth="yes"/>
      <point x="958" y="803"/>
      <point x="754" y="721"/>
      <point x="598" y="721" type="curve" smooth="yes"/>
    </contour>
  </outline>
</glyph>
<glyph name="LtnSmOpnO" format="2">
  <advance width="985"/>
  <unicode hex="0254"/>
  <anchor x="379" y="0" name="H"/>
  <anchor x="359" y="-100" name="L"/>
  <anchor x="434" y="0" name="O"/>
  <anchor x="985" y="1000" name="R"/>
  <anchor x="603" y="1100" name="U"/>
  <outline>
    <contour>
      <point x="922" y="635" type="curve" smooth="yes"/>
      <point x="922" y="868"/>
      <point x="811" y="1024"/>
      <point x="559" y="1024" type="curve" smooth="yes"/>
      <point x="367" y="1024"/>
      <point x="223" y="938"/>
      <point x="113" y="807" type="curve"/>
      <point x="113" y="602" type="line"/>
      <point x="297" y="823"/>
      <point x="393" y="870"/>
      <point x="498" y="870" type="curve" smooth="yes"/>
      <point x="629" y="870"/>
      <point x="639" y="737"/>
      <point x="639" y="612" type="curve" smooth="yes"/>
      <point x="639" y="528"/>
      <point x="606" y="174"/>
      <point x="377" y="125" type="curve"/>
      <point x="262" y="285" type="line"/>
      <point x="109" y="285"/>
      <point x="68" y="176"/>
      <point x="68" y="127" type="curve" smooth="yes"/>
      <point x="68" y="61"/>
      <point x="139" y="-25"/>
      <point x="301" y="-25" type="curve" smooth="yes"/>
      <point x="694" y="-25"/>
      <point x="922" y="281"/>
    </contour>
  </outline>
</glyph>
<glyph name="LtnSmClosedRevOpnE" format="2">
  <advance width="1116"/>
  <unicode hex="025E"/>
  <anchor x="430" y="-100" name="L"/>
  <anchor x="1116" y="1000" name="R"/>
  <anchor x="674" y="1100" name="U"/>
  <outline>
    <contour>
      <point x="1051" y="780" type="curve" smooth="yes"/>
      <point x="1051" y="936"/>
      <point x="895" y="1024"/>
      <point x="709" y="1024" type="curve" smooth="yes"/>
      <point x="311" y="1024"/>
      <point x="66" y="715"/>
      <point x="66" y="360" type="curve" smooth="yes"/>
      <point x="66" y="147"/>
      <point x="168" y="-25"/>
      <point x="453" y="-25" type="curve" smooth="yes"/>
      <point x="711" y="-25"/>
      <point x="983" y="72"/>
      <point x="983" y="328" type="curve" smooth="yes"/>
      <point x="983" y="436"/>
      <point x="905" y="485"/>
      <point x="797" y="508" type="curve"/>
      <point x="911" y="555"/>
      <point x="1051" y="653"/>
    </contour>
    <contour>
      <point x="768" y="786" type="curve" smooth="yes"/>
      <point x="768" y="629"/>
      <point x="625" y="543"/>
      <point x="483" y="541" type="curve"/>
      <point x="483" y="438" type="line"/>
      <point x="575" y="438"/>
      <point x="702" y="463"/>
      <point x="702" y="330" type="curve" smooth="yes"/>
      <point x="702" y="188"/>
      <point x="561" y="90"/>
      <point x="479" y="90" type="curve" smooth="yes"/>
      <point x="322" y="90"/>
      <point x="270" y="250"/>
      <point x="270" y="385" type="curve" smooth="yes"/>
      <point x="270" y="621"/>
      <point x="446" y="924"/>
      <point x="659" y="924" type="curve" smooth="yes"/>
      <point x="743" y="924"/>
      <point x="768" y="870"/>
    </contour>
  </outline>
</glyph>
<glyph name="LtnSmGamma" format="2">
  <advance width="1030"/>
  <unicode hex="0263"/>
  <anchor x="278" y="-500" name="L"/>
  <anchor x="598" y="1100" name="U"/>
  <outline>
    <contour>
      <point x="291" y="-469" type="curve" smooth="yes"/>
      <point x="430" y="-469"/>
      <point x="582" y="-330"/>
      <point x="582" y="-205" type="curve" smooth="yes"/>
      <point x="582" y="-178"/>
      <point x="553" y="119"/>
      <point x="549" y="156" type="curve"/>
      <point x="764" y="350"/>
      <point x="879" y="510"/>
      <point x="1006" y="739" type="curve" smooth="yes"/>
      <point x="1020" y="765"/>
      <point x="1049" y="823"/>
      <point x="1049" y="893" type="curve" smooth="yes"/>
      <point x="1049" y="973"/>
      <point x="977" y="1024"/>
      <point x="883" y="1024" type="curve" smooth="yes"/>
      <point x="819" y="1024"/>
      <point x="756" y="1004"/>
      <point x="721" y="969" type="curve"/>
      <point x="819" y="725" type="line"/>
      <point x="768" y="594"/>
      <point x="676" y="483"/>
      <point x="528" y="334" type="curve"/>
      <point x="471" y="870" type="line" smooth="yes"/>
      <point x="460" y="973"/>
      <point x="385" y="1024"/>
      <point x="244" y="1024" type="curve"/>
      <point x="2" y="950" type="line"/>
      <point x="2" y="879" type="line"/>
      <point x="129" y="874" type="line"/>
      <point x="174" y="872"/>
      <point x="189" y="867"/>
      <point x="195" y="840" type="curve" smooth="yes"/>
      <point x="234" y="663"/>
      <point x="267" y="324"/>
      <point x="285" y="127" type="curve"/>
      <point x="184" y="49"/>
      <point x="31" y="-129"/>
      <point x="31" y="-252" type="curve" smooth="yes"/>
      <point x="31" y="-375"/>
      <point x="121" y="-469"/>
    </contour>
    <contour>
      <point x="252" y="-330" type="curve" smooth="yes"/>
      <point x="217" y="-330"/>
      <point x="182" y="-307"/>
      <point x="182" y="-250" type="curve" smooth="yes"/>
      <point x="182" y="-205"/>
      <point x="254" y="-98"/>
      <point x="307" y="-59" type="curve"/>
      <point x="311" y="-86"/>
      <point x="319" y="-178"/>
      <point x="319" y="-186" type="curve" smooth="yes"/>
      <point x="319" y="-301"/>
      <point x="293" y="-330"/>
    </contour>
  </outline>
</glyph>
<glyph name="LtnSmRamsHorn" format="2">
  <advance width="1153"/>
  <unicode hex="0264"/>
  <anchor x="451" y="-100" name="L"/>
  <anchor x="1153" y="1000" name="R"/>
  <anchor x="695" y="1100" name="U"/>
  <outline>
    <contour>
      <point x="486" y="-25" type="curve" smooth="yes"/>
      <point x="632" y="-25"/>
      <point x="761" y="93"/>
      <point x="761" y="243" type="curve" smooth="yes"/>
      <point x="761" y="298"/>
      <point x="744" y="357"/>
      <point x="572" y="776" type="curve" smooth="yes"/>
      <point x="489" y="977"/>
      <point x="414" y="1024"/>
      <point x="307" y="1024" type="curve" smooth="yes"/>
      <point x="106" y="1024"/>
      <point x="44" y="781"/>
      <point x="31" y="625" type="curve"/>
      <point x="129" y="625" type="line"/>
      <point x="157" y="738"/>
      <point x="205" y="803"/>
      <point x="255" y="803" type="curve" smooth="yes"/>
      <point x="305" y="803"/>
      <point x="330" y="772"/>
      <point x="370" y="668" type="curve" smooth="yes"/>
      <point x="535" y="242"/>
      <point x="547" y="203"/>
      <point x="547" y="174" type="curve" smooth="yes"/>
      <point x="547" y="126"/>
      <point x="522" y="86"/>
      <point x="467" y="86" type="curve" smooth="yes"/>
      <point x="430" y="86"/>
      <point x="400" y="115"/>
      <point x="400" y="150" type="curve" smooth="yes"/>
      <point x="400" y="190"/>
      <point x="440" y="239"/>
      <point x="475" y="279" type="curve" smooth="yes"/>
      <point x="737" y="584" type="line" smooth="yes"/>
      <point x="857" y="723"/>
      <point x="934" y="803"/>
      <point x="1003" y="803" type="curve" smooth="yes"/>
      <point x="1061" y="803"/>
      <point x="1069" y="711"/>
      <point x="1069" y="625" type="curve"/>
      <point x="1159" y="625" type="line"/>
      <point x="1176" y="677"/>
      <point x="1209" y="802"/>
      <point x="1209" y="855" type="curve" smooth="yes"/>
      <point x="1209" y="947"/>
      <point x="1164" y="1024"/>
      <point x="1071" y="1024" type="curve" smooth="yes"/>
      <point x="981" y="1024"/>
      <point x="895" y="955"/>
      <point x="703" y="731" type="curve" smooth="yes"/>
      <point x="380" y="355" type="line" smooth="yes"/>
      <point x="318" y="283"/>
      <point x="273" y="226"/>
      <point x="273" y="147" type="curve" smooth="yes"/>
      <point x="273" y="54"/>
      <point x="339" y="-25"/>
    </contour>
  </outline>
</glyph>
<glyph name="LtnSmHHook" format="2">
  <advance width="1157"/>
  <unicode hex="0266"/>
  <anchor x="568" y="-100" name="L"/>
  <anchor x="884" y="1540" name="U"/>
  <outline>
    <contour>
      <point x="1186" y="1321" type="curve" smooth="yes"/>
      <point x="1186" y="1440"/>
      <point x="1083" y="1509"/>
      <point x="823" y="1509" type="curve" smooth="yes"/>
      <point x="434" y="1509"/>
      <point x="281" y="1171"/>
      <point x="258" y="1063" type="curve" smooth="yes"/>
      <point x="35" y="0" type="line"/>
      <point x="307" y="0" type="line"/>
      <point x="457" y="717" type="line"/>
      <point x="541" y="803"/>
      <point x="639" y="868"/>
      <point x="700" y="868" type="curve" smooth="yes"/>
      <point x="741" y="868"/>
      <point x="791" y="813"/>
      <point x="770" y="715" type="curve" smooth="yes"/>
      <point x="647" y="119" type="line" smooth="yes"/>
      <point x="625" y="12"/>
      <point x="741" y="-25"/>
      <point x="838" y="-25" type="curve" smooth="yes"/>
      <point x="946" y="-25"/>
      <point x="1051" y="8"/>
      <point x="1153" y="57" type="curve"/>
      <point x="1151" y="160" type="line"/>
      <point x="1090" y="125"/>
      <point x="1040" y="102"/>
      <point x="981" y="102" type="curve" smooth="yes"/>
      <point x="958" y="102"/>
      <point x="920" y="125"/>
      <point x="934" y="193" type="curve" smooth="yes"/>
      <point x="1049" y="735" type="line" smooth="yes"/>
      <point x="1083" y="907"/>
      <point x="1018" y="1024"/>
      <point x="813" y="1024" type="curve" smooth="yes"/>
      <point x="692" y="1024"/>
      <point x="584" y="981"/>
      <point x="502" y="930" type="curve"/>
      <point x="530" y="1057" type="line" smooth="yes"/>
      <point x="580" y="1286"/>
      <point x="709" y="1380"/>
      <point x="813" y="1380" type="curve" smooth="yes"/>
      <point x="834" y="1380"/>
      <point x="895" y="1376"/>
      <point x="911" y="1362" type="curve"/>
      <point x="948" y="1190" type="line"/>
      <point x="948" y="1190"/>
      <point x="991" y="1171"/>
      <point x="1036" y="1171" type="curve" smooth="yes"/>
      <point x="1120" y="1171"/>
      <point x="1186" y="1239"/>
    </contour>
  </outline>
</glyph>
<glyph name="LtnSmHengHook" format="2">
  <advance width="1157"/>
  <unicode hex="0267"/>
  <anchor x="382" y="-500" name="L"/>
  <anchor x="774" y="1540" name="U"/>
  <outline>
    <contour>
      <point x="346" y="-469" type="curve" smooth="yes"/>
      <point x="645" y="-469"/>
      <point x="838" y="-287"/>
      <point x="891" y="-31" type="curve" smooth="yes"/>
      <point x="1049" y="735" type="line" smooth="yes"/>
      <point x="1083" y="907"/>
      <point x="1018" y="1024"/>
      <point x="813" y="1024" type="curve" smooth="yes"/>
      <point x="692" y="1024"/>
      <point x="584" y="981"/>
      <point x="502" y="930" type="curve"/>
      <point x="530" y="1057" type="line" smooth="yes"/>
      <point x="580" y="1286"/>
      <point x="709" y="1380"/>
      <point x="813" y="1380" type="curve" smooth="yes"/>
      <point x="834" y="1380"/>
      <point x="895" y="1376"/>
      <point x="911" y="1362" type="curve"/>
      <point x="948" y="1190" type="line"/>
      <point x="948" y="1190"/>
      <point x="991" y="1171"/>
      <point x="1036" y="1171" type="curve" smooth="yes"/>
      <point x="1120" y="1171"/>
      <point x="1186" y="1239"/>
      <point x="1186" y="1321" type="curve" smooth="yes"/>
      <point x="1186" y="1440"/>
      <point x="1083" y="1509"/>
      <point x="823" y="1509" type="curve" smooth="yes"/>
      <point x="434" y="1509"/>
      <point x="281" y="1171"/>
      <point x="258" y="1063" type="curve" smooth="yes"/>
      <point x="35" y="0" type="line"/>
      <point x="307" y="0" type="line"/>
      <point x="457" y="717" type="line"/>
      <point x="541" y="803"/>
      <point x="639" y="868"/>
      <point x="700" y="868" type="curve" smooth="yes"/>
      <point x="741" y="868"/>
      <point x="791" y="813"/>
      <point x="770" y="715" type="curve"/>
      <point x="602" y="-100" type="line"/>
      <point x="578" y="-221"/>
      <point x="532" y="-322"/>
      <point x="436" y="-340" type="curve"/>
      <point x="311" y="-160" type="line"/>
      <point x="223" y="-170"/>
      <point x="133" y="-215"/>
      <point x="133" y="-305" type="curve" smooth="yes"/>
      <point x="133" y="-385"/>
      <point x="195" y="-469"/>
    </contour>
  </outline>
</glyph>
<glyph name="LtnSmTurnedMLngLeg" format="2">
  <advance width="1692"/>
  <unicode hex="0270"/>
  <anchor x="612" y="-100" name="L"/>
  <anchor x="918" y="1100" name="U"/>
  <outline>
    <contour>
      <point x="1626" y="999" type="line"/>
      <point x="1354" y="999" type="line"/>
      <point x="1208" y="305" type="line"/>
      <point x="1155" y="242"/>
      <point x="1061" y="135"/>
      <point x="977" y="135" type="curve" smooth="yes"/>
      <point x="887" y="135"/>
      <point x="909" y="246"/>
      <point x="928" y="326" type="curve"/>
      <point x="1069" y="999" type="line"/>
      <point x="797" y="999" type="line"/>
      <point x="649" y="299" type="line"/>
      <point x="621" y="256"/>
      <point x="530" y="135"/>
      <point x="410" y="135" type="curve" smooth="yes"/>
      <point x="356" y="135"/>
      <point x="347" y="201"/>
      <point x="373" y="328" type="curve" smooth="yes"/>
      <point x="485" y="872" type="line" smooth="yes"/>
      <point x="506" y="973"/>
      <point x="403" y="1024"/>
      <point x="279" y="1024" type="curve" smooth="yes"/>
      <point x="172" y="1024"/>
      <point x="78" y="993"/>
      <point x="-25" y="938" type="curve"/>
      <point x="-25" y="846" type="line"/>
      <point x="33" y="874"/>
      <point x="117" y="897"/>
      <point x="147" y="897" type="curve" smooth="yes"/>
      <point x="197" y="897"/>
      <point x="209" y="850"/>
      <point x="197" y="795" type="curve" smooth="yes"/>
      <point x="82" y="244" type="line" smooth="yes"/>
      <point x="48" y="80"/>
      <point x="156" y="-25"/>
      <point x="299" y="-25" type="curve" smooth="yes"/>
      <point x="408" y="-25"/>
      <point x="545" y="35"/>
      <point x="651" y="115" type="curve"/>
      <point x="682" y="45"/>
      <point x="748" y="-25"/>
      <point x="860" y="-25" type="curve" smooth="yes"/>
      <point x="954" y="-25"/>
      <point x="1065" y="25"/>
      <point x="1163" y="92" type="curve"/>
      <point x="1042" y="-469" type="line"/>
      <point x="1184" y="-469" type="line"/>
      <point x="1522" y="-403" type="line"/>
      <point x="1522" y="-334" type="line"/>
      <point x="1350" y="-317" type="line"/>
    </contour>
  </outline>
</glyph>
<glyph name="LtnSmNRetrHook" format="2">
  <advance width="1184"/>
  <unicode hex="0273"/>
  <anchor x="292" y="-100" name="L"/>
  <anchor x="656" y="1100" name="U"/>
  <outline>
    <contour>
      <point x="1214" y="-297" type="curve" smooth="yes"/>
      <point x="1214" y="-221"/>
      <point x="1139" y="-203"/>
      <point x="1081" y="-193" type="curve"/>
      <point x="952" y="-324" type="line"/>
      <point x="920" y="-319"/>
      <point x="874" y="-289"/>
      <point x="874" y="-252" type="curve" smooth="yes"/>
      <point x="874" y="-215"/>
      <point x="899" y="-98"/>
      <point x="915" y="-14" type="curve" smooth="yes"/>
      <point x="1063" y="756" type="line" smooth="yes"/>
      <point x="1096" y="930"/>
      <point x="1044" y="1024"/>
      <point x="840" y="1024" type="curve" smooth="yes"/>
      <point x="733" y="1024"/>
      <point x="610" y="973"/>
      <point x="510" y="905" type="curve"/>
      <point x="535" y="1024" type="line"/>
      <point x="393" y="1024" type="line"/>
      <point x="57" y="956" type="line"/>
      <point x="57" y="887" type="line"/>
      <point x="229" y="870" type="line"/>
      <point x="49" y="0" type="line"/>
      <point x="322" y="0" type="line"/>
      <point x="467" y="694" type="line"/>
      <point x="553" y="782"/>
      <point x="662" y="862"/>
      <point x="725" y="862" type="curve" smooth="yes"/>
      <point x="768" y="862"/>
      <point x="794" y="829"/>
      <point x="774" y="729" type="curve" smooth="yes"/>
      <point x="627" y="-8" type="line" smooth="yes"/>
      <point x="615" y="-70"/>
      <point x="604" y="-150"/>
      <point x="604" y="-182" type="curve" smooth="yes"/>
      <point x="604" y="-354"/>
      <point x="729" y="-469"/>
      <point x="987" y="-469" type="curve" smooth="yes"/>
      <point x="1114" y="-469"/>
      <point x="1214" y="-403"/>
    </contour>
  </outline>
</glyph>
<glyph name="LtnSmBarredO" format="2">
  <advance width="1133"/>
  <unicode hex="0275"/>
  <anchor x="446" y="-100" name="L"/>
  <anchor x="1133" y="1000" name="R"/>
  <anchor x="690" y="1100" name="U"/>
  <outline>
    <contour>
      <point x="1069" y="621" type="curve" smooth="yes"/>
      <point x="1069" y="887"/>
      <point x="907" y="1024"/>
      <point x="655" y="1024" type="curve" smooth="yes"/>
      <point x="276" y="1024"/>
      <point x="66" y="692"/>
      <point x="66" y="371" type="curve" smooth="yes"/>
      <point x="66" y="143"/>
      <point x="195" y="-25"/>
      <point x="475" y="-25" type="curve" smooth="yes"/>
      <point x="848" y="-25"/>
      <point x="1069" y="299"/>
    </contour>
    <contour>
      <point x="774" y="629" type="curve" smooth="yes"/>
      <point x="774" y="610"/>
      <point x="774" y="590"/>
      <point x="772" y="571" type="curve"/>
      <point x="383" y="571" type="line"/>
      <point x="428" y="766"/>
      <point x="539" y="915"/>
      <point x="633" y="915" type="curve" smooth="yes"/>
      <point x="684" y="915"/>
      <point x="774" y="829"/>
    </contour>
    <contour>
      <point x="756" y="449" type="line"/>
      <point x="713" y="256"/>
      <point x="610" y="88"/>
      <point x="500" y="88" type="curve" smooth="yes"/>
      <point x="453" y="88"/>
      <point x="358" y="168"/>
      <point x="358" y="379" type="curve" smooth="yes"/>
      <point x="358" y="401"/>
      <point x="360" y="426"/>
      <point x="362" y="449" type="curve"/>
    </contour>
  </outline>
</glyph>
<glyph name="LtnSmPhi" format="2">
  <advance width="1315"/>
  <unicode hex="0278"/>
  <anchor x="460" y="-500" name="L"/>
  <anchor x="852" y="1540" name="U"/>
  <outline>
    <contour>
      <point x="195" y="-449" type="line"/>
      <point x="770" y="-449" type="line"/>
      <point x="770" y="-350" type="line"/>
      <point x="678" y="-342" type="line" smooth="yes"/>
      <point x="645" y="-339"/>
      <point x="619" y="-331"/>
      <point x="625" y="-299" type="curve" smooth="yes"/>
      <point x="682" y="-16" type="line"/>
      <point x="1067" y="31"/>
      <point x="1249" y="307"/>
      <point x="1249" y="600" type="curve" smooth="yes"/>
      <point x="1249" y="813"/>
      <point x="1087" y="954"/>
      <point x="895" y="1004" type="curve"/>
      <point x="940" y="1223" type="line"/>
      <point x="950" y="1264"/>
      <point x="973" y="1266"/>
      <point x="1008" y="1268" type="curve"/>
      <point x="1100" y="1276" type="line"/>
      <point x="1100" y="1374" type="line"/>
      <point x="524" y="1374" type="line"/>
      <point x="524" y="1276" type="line"/>
      <point x="616" y="1268" type="line"/>
      <point x="647" y="1266"/>
      <point x="678" y="1262"/>
      <point x="670" y="1223" type="curve" smooth="yes"/>
      <point x="627" y="1016" type="line"/>
      <point x="240" y="969"/>
      <point x="66" y="684"/>
      <point x="66" y="389" type="curve" smooth="yes"/>
      <point x="66" y="205"/>
      <point x="209" y="47"/>
      <point x="414" y="-4" type="curve"/>
      <point x="352" y="-299" type="line" smooth="yes"/>
      <point x="345" y="-330"/>
      <point x="322" y="-339"/>
      <point x="285" y="-342" type="curve" smooth="yes"/>
      <point x="195" y="-350" type="line"/>
    </contour>
    <contour>
      <point x="444" y="150" type="line"/>
      <point x="389" y="201"/>
      <point x="348" y="283"/>
      <point x="348" y="399" type="curve" smooth="yes"/>
      <point x="348" y="616"/>
      <point x="455" y="813"/>
      <point x="598" y="885" type="curve"/>
    </contour>
    <contour>
      <point x="711" y="119" type="curve"/>
      <point x="864" y="854" type="line"/>
      <point x="920" y="803"/>
      <point x="965" y="721"/>
      <point x="965" y="608" type="curve" smooth="yes"/>
      <point x="965" y="408"/>
      <point x="860" y="197"/>
    </contour>
  </outline>
</glyph>
<glyph name="LtnSmTurnedRHook" format="2">
  <advance width="831"/>
  <unicode hex="027B"/>
  <anchor x="320" y="-500" name="L"/>
  <anchor x="640" y="1100" name="U"/>
  <outline>
    <contour>
      <point x="696" y="-469" type="curve" smooth="yes"/>
      <point x="823" y="-469"/>
      <point x="895" y="-401"/>
      <point x="895" y="-326" type="curve" smooth="yes"/>
      <point x="895" y="-256"/>
      <point x="858" y="-211"/>
      <point x="770" y="-176" type="curve"/>
      <point x="633" y="-330" type="line"/>
      <point x="580" y="-332"/>
      <point x="553" y="-262"/>
      <point x="553" y="-213" type="curve" smooth="yes"/>
      <point x="553" y="-162"/>
      <point x="561" y="-102"/>
      <point x="575" y="-39" type="curve" smooth="yes"/>
      <point x="791" y="999" type="line"/>
      <point x="518" y="999" type="line"/>
      <point x="406" y="459" type="line" smooth="yes"/>
      <point x="379" y="336"/>
      <point x="272" y="215"/>
      <point x="143" y="152" type="curve"/>
      <point x="88" y="260" type="line"/>
      <point x="-49" y="260"/>
      <point x="-104" y="215"/>
      <point x="-104" y="121" type="curve" smooth="yes"/>
      <point x="-104" y="61"/>
      <point x="-57" y="-25"/>
      <point x="49" y="-25" type="curve" smooth="yes"/>
      <point x="154" y="-25"/>
      <point x="256" y="37"/>
      <point x="330" y="113" type="curve"/>
      <point x="325" y="93"/>
      <point x="319" y="64"/>
      <point x="313" y="32" type="curve" smooth="yes"/>
      <point x="301" y="-30"/>
      <point x="289" y="-103"/>
      <point x="289" y="-143" type="curve" smooth="yes"/>
      <point x="289" y="-313"/>
      <point x="412" y="-469"/>
    </contour>
  </outline>
</glyph>
<glyph name="LtnSmRFishhook" format="2">
  <advance width="760"/>
  <unicode hex="027E"/>
  <anchor x="222" y="-100" name="L"/>
  <anchor x="579" y="1100" name="U"/>
  <outline>
    <contour>
      <point x="844" y="883" type="curve" smooth="yes"/>
      <point x="844" y="942"/>
      <point x="801" y="1024"/>
      <point x="659" y="1024" type="curve" smooth="yes"/>
      <point x="340" y="1024"/>
      <point x="188" y="848"/>
      <point x="143" y="625" type="curve" smooth="yes"/>
      <point x="16" y="0" type="line"/>
      <point x="291" y="0" type="line"/>
      <point x="416" y="618" type="line" smooth="yes"/>
      <point x="446" y="768"/>
      <point x="477" y="872"/>
      <point x="557" y="872" type="curve"/>
      <point x="684" y="750" type="line"/>
      <point x="748" y="756"/>
      <point x="844" y="784"/>
    </contour>
  </outline>
</glyph>
<glyph name="LtnSmCapInvR" format="2">
  <advance width="1084"/>
  <unicode hex="0281"/>
  <anchor x="448" y="-100" name="L"/>
  <anchor x="692" y="1100" name="U"/>
  <outline>
    <contour>
      <point x="-55" y="0" type="line"/>
      <point x="410" y="0" type="line" smooth="yes"/>
      <point x="675" y="0"/>
      <point x="935" y="57"/>
      <point x="935" y="313" type="curve" smooth="yes"/>
      <point x="935" y="410"/>
      <point x="830" y="481"/>
      <point x="730" y="514" type="curve"/>
      <point x="816" y="547"/>
      <point x="873" y="618"/>
      <point x="920" y="692" type="curve" smooth="yes"/>
      <point x="1028" y="862"/>
      <point x="1067" y="911"/>
      <point x="1195" y="911" type="curve"/>
      <point x="1195" y="999" type="line"/>
      <point x="1144" y="1004"/>
      <point x="1117" y="1024"/>
      <point x="1058" y="1024" type="curve" smooth="yes"/>
      <point x="941" y="1024"/>
      <point x="885" y="983"/>
      <point x="828" y="926" type="curve" smooth="yes"/>
      <point x="711" y="809"/>
      <point x="646" y="563"/>
      <point x="466" y="563" type="curve" smooth="yes"/>
      <point x="456" y="563"/>
      <point x="447" y="563"/>
      <point x="437" y="563" type="curve"/>
      <point x="503" y="868" type="line" smooth="yes"/>
      <point x="508" y="893"/>
      <point x="511" y="899"/>
      <point x="543" y="901" type="curve"/>
      <point x="636" y="907" type="line"/>
      <point x="636" y="999" type="line"/>
      <point x="138" y="999" type="line"/>
      <point x="138" y="907" type="line"/>
      <point x="218" y="900" type="line"/>
      <point x="247" y="898"/>
      <point x="250" y="887"/>
      <point x="247" y="872" type="curve" smooth="yes"/>
      <point x="83" y="123" type="line" smooth="yes"/>
      <point x="79" y="106"/>
      <point x="72" y="97"/>
      <point x="48" y="96" type="curve" smooth="yes"/>
      <point x="-55" y="90" type="line"/>
    </contour>
    <contour>
      <point x="333" y="102" type="line"/>
      <point x="412" y="461" type="line"/>
      <point x="421" y="461"/>
      <point x="430" y="461"/>
      <point x="439" y="461" type="curve"/>
      <point x="543" y="461"/>
      <point x="660" y="406"/>
      <point x="660" y="317" type="curve" smooth="yes"/>
      <point x="660" y="139"/>
      <point x="480" y="102"/>
      <point x="359" y="102" type="curve" smooth="yes"/>
    </contour>
  </outline>
</glyph>
<glyph name="LtnSmDotlessJStrkHook" format="2">
  <advance width="709"/>
  <unicode hex="0284"/>
  <anchor x="354" y="-500" name="L"/>
  <anchor x="194" y="-404" name="O"/>
  <anchor x="354" y="1540" name="U"/>
  <outline>
    <contour>
      <point x="-86" y="-469" type="curve" smooth="yes"/>
      <point x="195" y="-469"/>
      <point x="365" y="-129"/>
      <point x="416" y="168" type="curve" smooth="yes"/>
      <point x="473" y="504" type="line"/>
      <point x="709" y="504" type="line"/>
      <point x="709" y="639" type="line"/>
      <point x="498" y="639" type="line"/>
      <point x="563" y="1024" type="line"/>
      <point x="598" y="1214"/>
      <point x="608" y="1354"/>
      <point x="692" y="1354" type="curve"/>
      <point x="823" y="1217" type="line"/>
      <point x="952" y="1233"/>
      <point x="973" y="1294"/>
      <point x="973" y="1358" type="curve" smooth="yes"/>
      <point x="973" y="1444"/>
      <point x="872" y="1509"/>
      <point x="754" y="1509" type="curve" smooth="yes"/>
      <point x="442" y="1509"/>
      <point x="352" y="1311"/>
      <point x="295" y="1006" type="curve"/>
      <point x="227" y="639" type="line"/>
      <point x="-12" y="639" type="line"/>
      <point x="-12" y="504" type="line"/>
      <point x="203" y="504" type="line"/>
      <point x="111" y="-18" type="line"/>
      <point x="94" y="-117"/>
      <point x="51" y="-233"/>
      <point x="14" y="-291" type="curve"/>
      <point x="-180" y="-240" type="line"/>
      <point x="-227" y="-270"/>
      <point x="-264" y="-299"/>
      <point x="-264" y="-350" type="curve" smooth="yes"/>
      <point x="-264" y="-418"/>
      <point x="-182" y="-469"/>
    </contour>
  </outline>
</glyph>
<glyph name="LtnSmTRetrHook" format="2">
  <advance width="705"/>
  <unicode hex="0288"/>
  <anchor x="110" y="-500" name="L"/>
  <anchor x="705" y="1000" name="R"/>
  <anchor x="449" y="1363" name="U"/>
  <outline>
    <contour>
      <point x="827" y="856" type="line"/>
      <point x="827" y="969" type="line"/>
      <point x="563" y="969" type="line"/>
      <point x="606" y="1200" type="line"/>
      <point x="401" y="1200" type="line"/>
      <point x="297" y="989" type="line"/>
      <point x="102" y="920" type="line"/>
      <point x="102" y="836" type="line"/>
      <point x="270" y="852" type="line"/>
      <point x="47" y="-205" type="line" smooth="yes"/>
      <point x="41" y="-233"/>
      <point x="39" y="-260"/>
      <point x="39" y="-287" type="curve" smooth="yes"/>
      <point x="39" y="-393"/>
      <point x="113" y="-469"/>
      <point x="272" y="-469" type="curve" smooth="yes"/>
      <point x="399" y="-469"/>
      <point x="606" y="-391"/>
      <point x="649" y="-371" type="curve"/>
      <point x="649" y="-258" type="line"/>
      <point x="586" y="-282"/>
      <point x="459" y="-330"/>
      <point x="395" y="-330" type="curve" smooth="yes"/>
      <point x="340" y="-330"/>
      <point x="310" y="-299"/>
      <point x="310" y="-249" type="curve" smooth="yes"/>
      <point x="310" y="-240"/>
      <point x="311" y="-231"/>
      <point x="313" y="-221" type="curve" smooth="yes"/>
      <point x="543" y="856" type="line"/>
    </contour>
  </outline>
</glyph>
<glyph name="LtnSmUBar" format="2">
  <advance width="1176"/>
  <unicode hex="0289"/>
  <anchor x="511" y="0" name="H"/>
  <anchor x="491" y="-100" name="L"/>
  <anchor x="1025" y="0" name="O"/>
  <anchor x="1176" y="1000" name="R"/>
  <anchor x="735" y="1100" name="U"/>
  <outline>
    <contour>
      <point x="348" y="-25" type="curve" smooth="yes"/>
      <point x="481" y="-25"/>
      <point x="584" y="10"/>
      <point x="674" y="72" type="curve"/>
      <point x="680" y="43"/>
      <point x="707" y="-25"/>
      <point x="848" y="-25" type="curve" smooth="yes"/>
      <point x="965" y="-25"/>
      <point x="1116" y="27"/>
      <point x="1171" y="57" type="curve"/>
      <point x="1171" y="172" type="line"/>
      <point x="1047" y="106"/>
      <point x="1020" y="98"/>
      <point x="999" y="98" type="curve" smooth="yes"/>
      <point x="956" y="98"/>
      <point x="930" y="129"/>
      <point x="946" y="205" type="curve" smooth="yes"/>
      <point x="995" y="436" type="line"/>
      <point x="1200" y="436" type="line"/>
      <point x="1200" y="565" type="line"/>
      <point x="1024" y="565" type="line"/>
      <point x="1114" y="999" type="line"/>
      <point x="842" y="999" type="line"/>
      <point x="750" y="565" type="line"/>
      <point x="438" y="565" type="line"/>
      <point x="537" y="1024" type="line"/>
      <point x="395" y="1024" type="line"/>
      <point x="57" y="956" type="line"/>
      <point x="57" y="887" type="line"/>
      <point x="229" y="868" type="line"/>
      <point x="166" y="565" type="line"/>
      <point x="-23" y="565" type="line"/>
      <point x="-23" y="436" type="line"/>
      <point x="137" y="436" type="line"/>
      <point x="96" y="240" type="line" smooth="yes"/>
      <point x="72" y="129"/>
      <point x="145" y="-25"/>
    </contour>
    <contour>
      <point x="436" y="119" type="curve" smooth="yes"/>
      <point x="385" y="119"/>
      <point x="356" y="176"/>
      <point x="369" y="240" type="curve" smooth="yes"/>
      <point x="412" y="436" type="line"/>
      <point x="723" y="436" type="line"/>
      <point x="682" y="242" type="line"/>
      <point x="608" y="174"/>
      <point x="528" y="119"/>
    </contour>
  </outline>
</glyph>
<glyph name="LtnSmTurnedY" format="2">
  <advance width="1114"/>
  <unicode hex="028E"/>
  <anchor x="461" y="-100" name="L"/>
  <anchor x="777" y="1540" name="U"/>
  <outline>
    <contour>
      <point x="1196" y="1354" type="curve" smooth="yes"/>
      <point x="1196" y="1411"/>
      <point x="1135" y="1509"/>
      <point x="969" y="1509" type="curve" smooth="yes"/>
      <point x="682" y="1509"/>
      <point x="616" y="1266"/>
      <point x="479" y="1028" type="curve" smooth="yes"/>
      <point x="350" y="805"/>
      <point x="246" y="555"/>
      <point x="186" y="424" type="curve" smooth="yes"/>
      <point x="150" y="340"/>
      <point x="53" y="186"/>
      <point x="20" y="156" type="curve"/>
      <point x="-88" y="88" type="line"/>
      <point x="-88" y="37" type="line"/>
      <point x="106" y="-25" type="line"/>
      <point x="205" y="-25" type="line"/>
      <point x="487" y="594" type="line"/>
      <point x="518" y="434"/>
      <point x="553" y="270"/>
      <point x="582" y="174" type="curve" smooth="yes"/>
      <point x="639" y="-16"/>
      <point x="694" y="-25"/>
      <point x="788" y="-25" type="curve" smooth="yes"/>
      <point x="829" y="-25"/>
      <point x="1030" y="35"/>
      <point x="1077" y="51" type="curve"/>
      <point x="1077" y="115" type="line"/>
      <point x="860" y="129" type="line" smooth="yes"/>
      <point x="842" y="131"/>
      <point x="813" y="340"/>
      <point x="772" y="528" type="curve" smooth="yes"/>
      <point x="729" y="723"/>
      <point x="692" y="922"/>
      <point x="686" y="956" type="curve"/>
      <point x="803" y="1165"/>
      <point x="819" y="1337"/>
      <point x="942" y="1337" type="curve"/>
      <point x="1030" y="1182" type="line"/>
      <point x="1159" y="1188"/>
      <point x="1196" y="1286"/>
    </contour>
  </outline>
</glyph>
<glyph name="LtnSmZCurl" format="2">
  <advance width="1006"/>
  <unicode hex="0291"/>
  <anchor x="298" y="-500" name="L"/>
  <anchor x="618" y="1100" name="U"/>
  <outline>
    <contour>
      <point x="1020" y="963" type="line"/>
      <point x="795" y="1077" type="line"/>
      <point x="739" y="948" type="line"/>
      <point x="729" y="938"/>
      <point x="715" y="936"/>
      <point x="696" y="936" type="curve" smooth="yes"/>
      <point x="670" y="936"/>
      <point x="555" y="1024"/>
      <point x="416" y="1024" type="curve" smooth="yes"/>
      <point x="225" y="1024"/>
      <point x="61" y="864"/>
      <point x="61" y="733" type="curve" smooth="yes"/>
      <point x="61" y="678"/>
      <point x="100" y="582"/>
      <point x="188" y="582" type="curve" smooth="yes"/>
      <point x="256" y="582"/>
      <point x="332" y="639"/>
      <point x="344" y="662" type="curve"/>
      <point x="223" y="791" type="line"/>
      <point x="242" y="821"/>
      <point x="326" y="850"/>
      <point x="354" y="850" type="curve" smooth="yes"/>
      <point x="401" y="850"/>
      <point x="442" y="823"/>
      <point x="514" y="784" type="curve"/>
      <point x="643" y="811" type="line"/>
      <point x="-33" y="33" type="line"/>
      <point x="174" y="-80" type="line"/>
      <point x="250" y="51" type="line" smooth="yes"/>
      <point x="258" y="63"/>
      <point x="274" y="63"/>
      <point x="293" y="63" type="curve" smooth="yes"/>
      <point x="312" y="63"/>
      <point x="337" y="53"/>
      <point x="350" y="45" type="curve"/>
      <point x="303" y="-63"/>
      <point x="276" y="-178"/>
      <point x="256" y="-285" type="curve"/>
      <point x="391" y="-285" type="line"/>
      <point x="414" y="-182"/>
      <point x="442" y="-80"/>
      <point x="477" y="8" type="curve"/>
      <point x="522" y="-16"/>
      <point x="596" y="-25"/>
      <point x="645" y="-25" type="curve" smooth="yes"/>
      <point x="811" y="-25"/>
      <point x="952" y="94"/>
      <point x="952" y="248" type="curve" smooth="yes"/>
      <point x="952" y="362"/>
      <point x="838" y="406"/>
      <point x="791" y="406" type="curve" smooth="yes"/>
      <point x="637" y="406"/>
      <point x="512" y="332"/>
      <point x="412" y="170" type="curve"/>
      <point x="344" y="188" type="line"/>
    </contour>
    <contour>
      <point x="809" y="236" type="curve" smooth="yes"/>
      <point x="809" y="147"/>
      <point x="735" y="104"/>
      <point x="668" y="104" type="curve" smooth="yes"/>
      <point x="647" y="104"/>
      <point x="598" y="111"/>
      <point x="543" y="133" type="curve"/>
      <point x="598" y="219"/>
      <point x="670" y="293"/>
      <point x="743" y="293" type="curve" smooth="yes"/>
      <point x="776" y="293"/>
      <point x="809" y="268"/>
    </contour>
  </outline>
</glyph>
<glyph name="LtnGlottalStop" format="2">
  <advance width="983"/>
  <unicode hex="0294"/>
  <anchor x="358" y="-100" name="L"/>
  <anchor x="983" y="1000" name="R"/>
  <anchor x="674" y="1540" name="U"/>
  <outline>
    <contour>
      <point x="12" y="0" type="line"/>
      <point x="647" y="0" type="line"/>
      <point x="647" y="106" type="line"/>
      <point x="526" y="113" type="line" smooth="yes"/>
      <point x="485" y="115"/>
      <point x="467" y="135"/>
      <point x="473" y="164" type="curve" smooth="yes"/>
      <point x="557" y="590" type="line"/>
      <point x="791" y="637"/>
      <point x="1010" y="848"/>
      <point x="1010" y="1094" type="curve" smooth="yes"/>
      <point x="1010" y="1317"/>
      <point x="809" y="1407"/>
      <point x="614" y="1407" type="curve" smooth="yes"/>
      <point x="461" y="1407"/>
      <point x="199" y="1348"/>
      <point x="199" y="1151" type="curve" smooth="yes"/>
      <point x="199" y="1094"/>
      <point x="244" y="1069"/>
      <point x="295" y="1069" type="curve" smooth="yes"/>
      <point x="326" y="1069"/>
      <point x="358" y="1075"/>
      <point x="387" y="1087" type="curve"/>
      <point x="494" y="1262" type="line"/>
      <point x="528" y="1280"/>
      <point x="555" y="1284"/>
      <point x="592" y="1284" type="curve" smooth="yes"/>
      <point x="696" y="1284"/>
      <point x="731" y="1186"/>
      <point x="731" y="1098" type="curve" smooth="yes"/>
      <point x="731" y="861"/>
      <point x="504" y="682"/>
      <point x="291" y="621" type="curve"/>
      <point x="201" y="164" type="line" smooth="yes"/>
      <point x="196" y="137"/>
      <point x="168" y="115"/>
      <point x="135" y="113" type="curve" smooth="yes"/>
      <point x="12" y="106" type="line"/>
    </contour>
  </outline>
</glyph>
<glyph name="LtnRevGlottalStop" format="2">
  <advance width="983"/>
  <unicode hex="0295"/>
  <anchor x="364" y="-100" name="L"/>
  <anchor x="680" y="1540" name="U"/>
  <outline>
    <contour>
      <point x="172" y="0" type="line"/>
      <point x="807" y="0" type="line"/>
      <point x="807" y="106" type="line"/>
      <point x="686" y="113" type="line" smooth="yes"/>
      <point x="645" y="115"/>
      <point x="629" y="135"/>
      <point x="635" y="164" type="curve" smooth="yes"/>
      <point x="725" y="621" type="line"/>
      <point x="580" y="668"/>
      <point x="442" y="795"/>
      <point x="442" y="954" type="curve" smooth="yes"/>
      <point x="442" y="1094"/>
      <point x="561" y="1282"/>
      <point x="689" y="1282" type="curve" smooth="yes"/>
      <point x="717" y="1282"/>
      <point x="748" y="1278"/>
      <point x="774" y="1262" type="curve"/>
      <point x="811" y="1087" type="line"/>
      <point x="840" y="1075"/>
      <point x="870" y="1069"/>
      <point x="899" y="1069" type="curve" smooth="yes"/>
      <point x="987" y="1069"/>
      <point x="1038" y="1133"/>
      <point x="1038" y="1219" type="curve" smooth="yes"/>
      <point x="1038" y="1378"/>
      <point x="831" y="1407"/>
      <point x="711" y="1407" type="curve" smooth="yes"/>
      <point x="432" y="1407"/>
      <point x="160" y="1229"/>
      <point x="160" y="928" type="curve" smooth="yes"/>
      <point x="160" y="760"/>
      <point x="285" y="625"/>
      <point x="444" y="590" type="curve"/>
      <point x="360" y="164" type="line" smooth="yes"/>
      <point x="355" y="137"/>
      <point x="328" y="115"/>
      <point x="295" y="113" type="curve" smooth="yes"/>
      <point x="172" y="106" type="line"/>
    </contour>
  </outline>
</glyph>
<glyph name="LtnStretchedC" format="2">
  <advance width="975"/>
  <unicode hex="0297"/>
  <anchor x="430" y="-500" name="L"/>
  <anchor x="766" y="1100" name="U"/>
  <outline>
    <contour>
      <point x="977" y="870" type="curve" smooth="yes"/>
      <point x="977" y="936"/>
      <point x="905" y="1024"/>
      <point x="745" y="1024" type="curve" smooth="yes"/>
      <point x="426" y="1024"/>
      <point x="204" y="787"/>
      <point x="145" y="498" type="curve" smooth="yes"/>
      <point x="53" y="51" type="line" smooth="yes"/>
      <point x="44" y="8"/>
      <point x="41" y="-37"/>
      <point x="41" y="-84" type="curve" smooth="yes"/>
      <point x="41" y="-319"/>
      <point x="152" y="-475"/>
      <point x="397" y="-475" type="curve" smooth="yes"/>
      <point x="590" y="-475"/>
      <point x="754" y="-381"/>
      <point x="844" y="-233" type="curve"/>
      <point x="842" y="-51" type="line"/>
      <point x="662" y="-260"/>
      <point x="561" y="-322"/>
      <point x="461" y="-322" type="curve" smooth="yes"/>
      <point x="332" y="-322"/>
      <point x="319" y="-188"/>
      <point x="319" y="-61" type="curve" smooth="yes"/>
      <point x="319" y="6"/>
      <point x="327" y="66"/>
      <point x="338" y="119" type="curve" smooth="yes"/>
      <point x="428" y="563" type="line" smooth="yes"/>
      <point x="436" y="602"/>
      <point x="463" y="702"/>
      <point x="520" y="772" type="curve" smooth="yes"/>
      <point x="561" y="823"/>
      <point x="625" y="870"/>
      <point x="684" y="897" type="curve"/>
      <point x="795" y="721" type="line"/>
      <point x="920" y="721"/>
      <point x="977" y="784"/>
    </contour>
  </outline>
</glyph>
<glyph name="LtnSmCapB" format="2">
  <advance width="1075"/>
  <unicode hex="0299"/>
  <anchor x="413" y="-100" name="L"/>
  <anchor x="657" y="1100" name="U"/>
  <outline>
    <contour>
      <point x="-31" y="0" type="line"/>
      <point x="489" y="0" type="line" smooth="yes"/>
      <point x="805" y="0"/>
      <point x="985" y="100"/>
      <point x="985" y="342" type="curve" smooth="yes"/>
      <point x="985" y="451"/>
      <point x="913" y="510"/>
      <point x="797" y="537" type="curve"/>
      <point x="922" y="586"/>
      <point x="1016" y="664"/>
      <point x="1016" y="797" type="curve" smooth="yes"/>
      <point x="1016" y="913"/>
      <point x="977" y="999"/>
      <point x="698" y="999" type="curve" smooth="yes"/>
      <point x="145" y="999" type="line"/>
      <point x="145" y="901" type="line"/>
      <point x="231" y="895" type="line"/>
      <point x="260" y="893"/>
      <point x="266" y="885"/>
      <point x="262" y="866" type="curve" smooth="yes"/>
      <point x="102" y="127" type="line"/>
      <point x="100" y="111"/>
      <point x="86" y="104"/>
      <point x="59" y="102" type="curve"/>
      <point x="-31" y="98" type="line"/>
    </contour>
    <contour>
      <point x="436" y="106" type="curve" smooth="yes"/>
      <point x="426" y="106"/>
      <point x="383" y="106"/>
      <point x="371" y="106" type="curve"/>
      <point x="446" y="463" type="line"/>
      <point x="469" y="463"/>
      <point x="510" y="465"/>
      <point x="532" y="465" type="curve" smooth="yes"/>
      <point x="637" y="465"/>
      <point x="700" y="438"/>
      <point x="700" y="328" type="curve" smooth="yes"/>
      <point x="700" y="180"/>
      <point x="616" y="106"/>
    </contour>
    <contour>
      <point x="512" y="569" type="curve" smooth="yes"/>
      <point x="510" y="569"/>
      <point x="475" y="569"/>
      <point x="469" y="569" type="curve"/>
      <point x="537" y="895" type="line"/>
      <point x="547" y="895"/>
      <point x="578" y="895"/>
      <point x="588" y="895" type="curve" smooth="yes"/>
      <point x="678" y="895"/>
      <point x="739" y="868"/>
      <point x="739" y="784" type="curve" smooth="yes"/>
      <point x="739" y="657"/>
      <point x="659" y="569"/>
    </contour>
  </outline>
</glyph>
<glyph name="LtnSmJCrossedTail" format="2">
  <advance width="723"/>
  <unicode hex="029D"/>
  <anchor x="0" y="-500" name="L"/>
  <anchor x="255" y="-391" name="O"/>
  <anchor x="570" y="1500" name="U"/>
  <outline>
    <contour>
      <point x="702" y="1358" type="curve" smooth="yes"/>
      <point x="702" y="1446"/>
      <point x="631" y="1516"/>
      <point x="543" y="1516" type="curve" smooth="yes"/>
      <point x="455" y="1516"/>
      <point x="383" y="1446"/>
      <point x="383" y="1358" type="curve" smooth="yes"/>
      <point x="383" y="1270"/>
      <point x="455" y="1198"/>
      <point x="543" y="1198" type="curve" smooth="yes"/>
      <point x="631" y="1198"/>
      <point x="702" y="1270"/>
    </contour>
    <contour>
      <point x="631" y="1024" type="line"/>
      <point x="494" y="1024" type="line"/>
      <point x="156" y="956" type="line"/>
      <point x="156" y="883" type="line"/>
      <point x="330" y="864" type="line"/>
      <point x="211" y="170" type="line" smooth="yes"/>
      <point x="195" y="80"/>
      <point x="178" y="27"/>
      <point x="166" y="-10" type="curve"/>
      <point x="140" y="-3"/>
      <point x="108" y="0"/>
      <point x="82" y="0" type="curve" smooth="yes"/>
      <point x="-125" y="0"/>
      <point x="-285" y="-111"/>
      <point x="-285" y="-289" type="curve" smooth="yes"/>
      <point x="-285" y="-393"/>
      <point x="-184" y="-469"/>
      <point x="-74" y="-469" type="curve" smooth="yes"/>
      <point x="96" y="-469"/>
      <point x="217" y="-379"/>
      <point x="303" y="-266" type="curve"/>
      <point x="346" y="-324"/>
      <point x="381" y="-393"/>
      <point x="414" y="-483" type="curve"/>
      <point x="565" y="-383" type="line"/>
      <point x="524" y="-281"/>
      <point x="473" y="-182"/>
      <point x="397" y="-113" type="curve"/>
      <point x="444" y="-10"/>
      <point x="483" y="170"/>
      <point x="483" y="170" type="curve"/>
    </contour>
    <contour>
      <point x="133" y="-131" type="curve"/>
      <point x="98" y="-217"/>
      <point x="53" y="-346"/>
      <point x="-37" y="-346" type="curve" smooth="yes"/>
      <point x="-82" y="-346"/>
      <point x="-102" y="-301"/>
      <point x="-102" y="-260" type="curve" smooth="yes"/>
      <point x="-102" y="-184"/>
      <point x="-26" y="-117"/>
      <point x="63" y="-117" type="curve" smooth="yes"/>
      <point x="84" y="-117"/>
      <point x="114" y="-121"/>
    </contour>
  </outline>
</glyph>
<glyph name="LtnSmDzDigraph" format="2">
  <advance width="1714"/>
  <unicode hex="02A3"/>
  <anchor x="767" y="-100" name="L"/>
  <anchor x="1106" y="1580" name="U"/>
  <outline>
    <contour>
      <point x="1737" y="963" type="line"/>
      <point x="1511" y="1077" type="line"/>
      <point x="1456" y="948" type="line"/>
      <point x="1448" y="938"/>
      <point x="1432" y="936"/>
      <point x="1413" y="936" type="curve" smooth="yes"/>
      <point x="1386" y="936"/>
      <point x="1272" y="1024"/>
      <point x="1133" y="1024" type="curve" smooth="yes"/>
      <point x="1114" y="1024"/>
      <point x="1098" y="1022"/>
      <point x="1081" y="1020" type="curve"/>
      <point x="1167" y="1509" type="line"/>
      <point x="1028" y="1509" type="line"/>
      <point x="682" y="1444" type="line"/>
      <point x="682" y="1370" type="line"/>
      <point x="866" y="1354" type="line"/>
      <point x="805" y="999" type="line"/>
      <point x="778" y="1008"/>
      <point x="737" y="1024"/>
      <point x="686" y="1024" type="curve" smooth="yes"/>
      <point x="272" y="1024"/>
      <point x="66" y="659"/>
      <point x="66" y="346" type="curve" smooth="yes"/>
      <point x="66" y="170"/>
      <point x="164" y="-25"/>
      <point x="401" y="-25" type="curve" smooth="yes"/>
      <point x="489" y="-25"/>
      <point x="586" y="33"/>
      <point x="649" y="113" type="curve"/>
      <point x="627" y="0" type="line"/>
      <point x="846" y="0" type="line"/>
      <point x="846" y="0"/>
      <point x="897" y="63"/>
      <point x="965" y="63" type="curve" smooth="yes"/>
      <point x="991" y="63"/>
      <point x="1151" y="-25"/>
      <point x="1290" y="-25" type="curve" smooth="yes"/>
      <point x="1481" y="-25"/>
      <point x="1645" y="135"/>
      <point x="1645" y="266" type="curve" smooth="yes"/>
      <point x="1645" y="322"/>
      <point x="1606" y="418"/>
      <point x="1518" y="418" type="curve" smooth="yes"/>
      <point x="1450" y="418"/>
      <point x="1374" y="360"/>
      <point x="1362" y="340" type="curve"/>
      <point x="1483" y="209" type="line"/>
      <point x="1464" y="178"/>
      <point x="1380" y="150"/>
      <point x="1352" y="150" type="curve" smooth="yes"/>
      <point x="1305" y="150"/>
      <point x="1264" y="176"/>
      <point x="1192" y="215" type="curve"/>
      <point x="1063" y="188" type="line"/>
    </contour>
    <contour>
      <point x="1362" y="811" type="line"/>
      <point x="963" y="352" type="line"/>
      <point x="1051" y="848" type="line"/>
      <point x="1059" y="848"/>
      <point x="1065" y="850"/>
      <point x="1071" y="850" type="curve" smooth="yes"/>
      <point x="1118" y="850"/>
      <point x="1159" y="823"/>
      <point x="1233" y="784" type="curve"/>
    </contour>
    <contour>
      <point x="770" y="807" type="curve"/>
      <point x="684" y="315" type="line"/>
      <point x="623" y="213"/>
      <point x="535" y="121"/>
      <point x="465" y="121" type="curve" smooth="yes"/>
      <point x="389" y="121"/>
      <point x="348" y="193"/>
      <point x="348" y="358" type="curve" smooth="yes"/>
      <point x="348" y="684"/>
      <point x="539" y="907"/>
      <point x="682" y="907" type="curve" smooth="yes"/>
      <point x="731" y="907"/>
      <point x="772" y="817"/>
    </contour>
  </outline>
</glyph>
<glyph name="LtnSmTsDigraph" format="2">
  <advance width="1384"/>
  <unicode hex="02A6"/>
  <anchor x="542" y="-100" name="L"/>
  <anchor x="842" y="1363" name="U"/>
  <outline>
    <contour>
      <point x="1341" y="866" type="curve" smooth="yes"/>
      <point x="1341" y="918"/>
      <point x="1262" y="1024"/>
      <point x="1092" y="1024" type="curve" smooth="yes"/>
      <point x="872" y="1024"/>
      <point x="678" y="901"/>
      <point x="678" y="709" type="curve" smooth="yes"/>
      <point x="678" y="606"/>
      <point x="760" y="516"/>
      <point x="848" y="451" type="curve" smooth="yes"/>
      <point x="946" y="375"/>
      <point x="1016" y="317"/>
      <point x="1016" y="233" type="curve" smooth="yes"/>
      <point x="1016" y="137"/>
      <point x="975" y="76"/>
      <point x="893" y="76" type="curve" smooth="yes"/>
      <point x="838" y="76"/>
      <point x="754" y="98"/>
      <point x="725" y="139" type="curve"/>
      <point x="762" y="260" type="line"/>
      <point x="735" y="289"/>
      <point x="694" y="309"/>
      <point x="635" y="309" type="curve" smooth="yes"/>
      <point x="578" y="309"/>
      <point x="520" y="242"/>
      <point x="520" y="170" type="curve" smooth="yes"/>
      <point x="520" y="156"/>
      <point x="522" y="141"/>
      <point x="526" y="127" type="curve"/>
      <point x="502" y="121"/>
      <point x="475" y="117"/>
      <point x="451" y="117" type="curve" smooth="yes"/>
      <point x="387" y="117"/>
      <point x="356" y="160"/>
      <point x="371" y="223" type="curve"/>
      <point x="500" y="856" type="line"/>
      <point x="682" y="856" type="line"/>
      <point x="682" y="969" type="line"/>
      <point x="520" y="969" type="line"/>
      <point x="563" y="1200" type="line"/>
      <point x="358" y="1200" type="line"/>
      <point x="254" y="989" type="line"/>
      <point x="80" y="920" type="line"/>
      <point x="80" y="836" type="line"/>
      <point x="227" y="852" type="line"/>
      <point x="102" y="242" type="line" smooth="yes"/>
      <point x="96" y="213"/>
      <point x="94" y="186"/>
      <point x="94" y="160" type="curve" smooth="yes"/>
      <point x="94" y="53"/>
      <point x="170" y="-25"/>
      <point x="328" y="-25" type="curve" smooth="yes"/>
      <point x="408" y="-25"/>
      <point x="516" y="6"/>
      <point x="598" y="35" type="curve"/>
      <point x="649" y="-2"/>
      <point x="725" y="-25"/>
      <point x="831" y="-25" type="curve" smooth="yes"/>
      <point x="1139" y="-25"/>
      <point x="1286" y="145"/>
      <point x="1286" y="303" type="curve" smooth="yes"/>
      <point x="1286" y="403"/>
      <point x="1198" y="483"/>
      <point x="1108" y="555" type="curve" smooth="yes"/>
      <point x="1020" y="623"/>
      <point x="926" y="700"/>
      <point x="926" y="784" type="curve" smooth="yes"/>
      <point x="926" y="836"/>
      <point x="930" y="911"/>
      <point x="1012" y="911" type="curve" smooth="yes"/>
      <point x="1042" y="911"/>
      <point x="1065" y="903"/>
      <point x="1065" y="903" type="curve"/>
      <point x="1169" y="725" type="line"/>
      <point x="1294" y="733"/>
      <point x="1341" y="774"/>
    </contour>
  </outline>
</glyph>
<glyph name="LtnBilabialPercussive" format="2">
  <advance width="1112"/>
  <unicode hex="02AC"/>
  <anchor x="366" y="-100" name="L"/>
  <anchor x="682" y="1540" name="U"/>
  <outline>
    <contour>
      <point x="1157" y="1321" type="curve" smooth="yes"/>
      <point x="1157" y="1341"/>
      <point x="1123" y="1399"/>
      <point x="1051" y="1399" type="curve" smooth="yes"/>
      <point x="996" y="1399"/>
      <point x="969" y="1371"/>
      <point x="961" y="1362" type="curve"/>
      <point x="1010" y="1233" type="line"/>
      <point x="969" y="1143"/>
      <point x="883" y="1030"/>
      <point x="822" y="950" type="curve"/>
      <point x="791" y="1382" type="line"/>
      <point x="639" y="1368" type="line"/>
      <point x="584" y="1251"/>
      <point x="518" y="1122"/>
      <point x="457" y="1014" type="curve"/>
      <point x="432" y="1382" type="line"/>
      <point x="336" y="1399" type="line"/>
      <point x="158" y="1354" type="line"/>
      <point x="158" y="1315" type="line"/>
      <point x="258" y="1305" type="line"/>
      <point x="295" y="803" type="line"/>
      <point x="281" y="770" type="line"/>
      <point x="418" y="770" type="line"/>
      <point x="482" y="860"/>
      <point x="566" y="993"/>
      <point x="635" y="1120" type="curve"/>
      <point x="662" y="770" type="line"/>
      <point x="793" y="770" type="line"/>
      <point x="826" y="807"/>
      <point x="1157" y="1184"/>
    </contour>
    <contour>
      <point x="1000" y="551" type="curve" smooth="yes"/>
      <point x="1000" y="572"/>
      <point x="963" y="629"/>
      <point x="891" y="629" type="curve" smooth="yes"/>
      <point x="838" y="629"/>
      <point x="811" y="602"/>
      <point x="803" y="592" type="curve"/>
      <point x="852" y="463" type="line"/>
      <point x="809" y="375"/>
      <point x="725" y="262"/>
      <point x="664" y="183" type="curve"/>
      <point x="633" y="615" type="line"/>
      <point x="482" y="598" type="line"/>
      <point x="425" y="482"/>
      <point x="361" y="355"/>
      <point x="299" y="244" type="curve"/>
      <point x="275" y="615" type="line"/>
      <point x="179" y="629" type="line"/>
      <point x="0" y="586" type="line"/>
      <point x="0" y="545" type="line"/>
      <point x="101" y="537" type="line"/>
      <point x="138" y="33" type="line"/>
      <point x="121" y="0" type="line"/>
      <point x="261" y="0" type="line"/>
      <point x="324" y="90"/>
      <point x="408" y="226"/>
      <point x="478" y="353" type="curve"/>
      <point x="504" y="0" type="line"/>
      <point x="635" y="0" type="line"/>
      <point x="668" y="37"/>
      <point x="1000" y="416"/>
    </contour>
  </outline>
</glyph>
<glyph name="LtnBidentalPercussive" format="2">
  <advance width="1085"/>
  <unicode hex="02AD"/>
  <anchor x="430" y="-100" name="L"/>
  <anchor x="746" y="1540" name="U"/>
  <outline>
    <contour>
      <point x="1044" y="955" type="line"/>
      <point x="1139" y="1410" type="line"/>
      <point x="325" y="1410" type="line"/>
      <point x="230" y="955" type="line"/>
      <point x="323" y="955" type="line"/>
      <point x="379" y="1232" type="line"/>
      <point x="1008" y="1232" type="line"/>
      <point x="952" y="955" type="line"/>
    </contour>
    <contour>
      <point x="863" y="0" type="line"/>
      <point x="958" y="455" type="line"/>
      <point x="143" y="455" type="line"/>
      <point x="48" y="0" type="line"/>
      <point x="141" y="0" type="line"/>
      <point x="197" y="277" type="line"/>
      <point x="826" y="277" type="line"/>
      <point x="770" y="0" type="line"/>
    </contour>
  </outline>
</glyph>
<glyph name="LtnSmTurnedHFishhook" format="2">
  <advance width="1225"/>
  <unicode hex="02AE"/>
  <anchor x="352" y="-100" name="L"/>
  <anchor x="688" y="1100" name="U"/>
  <outline>
    <contour>
      <point x="1169" y="999" type="line"/>
      <point x="895" y="999" type="line"/>
      <point x="745" y="283" type="line"/>
      <point x="662" y="197"/>
      <point x="565" y="129"/>
      <point x="504" y="129" type="curve" smooth="yes"/>
      <point x="461" y="129"/>
      <point x="411" y="186"/>
      <point x="432" y="285" type="curve" smooth="yes"/>
      <point x="508" y="649" type="line" smooth="yes"/>
      <point x="551" y="854"/>
      <point x="481" y="1024"/>
      <point x="180" y="1024" type="curve" smooth="yes"/>
      <point x="53" y="1024"/>
      <point x="-49" y="952"/>
      <point x="-49" y="879" type="curve" smooth="yes"/>
      <point x="-49" y="795"/>
      <point x="-20" y="768"/>
      <point x="43" y="745" type="curve"/>
      <point x="207" y="874" type="line"/>
      <point x="293" y="874"/>
      <point x="257" y="750"/>
      <point x="227" y="606" type="curve" smooth="yes"/>
      <point x="156" y="262" type="line" smooth="yes"/>
      <point x="120" y="90"/>
      <point x="186" y="-25"/>
      <point x="389" y="-25" type="curve" smooth="yes"/>
      <point x="510" y="-25"/>
      <point x="618" y="18"/>
      <point x="700" y="70" type="curve"/>
      <point x="590" y="-469" type="line"/>
      <point x="729" y="-469" type="line"/>
      <point x="1075" y="-403" type="line"/>
      <point x="1075" y="-332" type="line"/>
      <point x="895" y="-313" type="line"/>
    </contour>
  </outline>
</glyph>
<glyph name="ModSmH" format="2">
  <advance width="756"/>
  <unicode hex="02B0"/>
  <anchor x="422" y="725" name="L"/>
  <anchor x="601" y="1700" name="U"/>
  <outline>
    <contour>
      <point x="647" y="770" type="curve" smooth="yes"/>
      <point x="719" y="770"/>
      <point x="786" y="788"/>
      <point x="854" y="817" type="curve"/>
      <point x="852" y="879" type="line"/>
      <point x="811" y="858"/>
      <point x="780" y="846"/>
      <point x="741" y="846" type="curve" smooth="yes"/>
      <point x="727" y="846"/>
      <point x="702" y="858"/>
      <point x="711" y="899" type="curve" smooth="yes"/>
      <point x="784" y="1227" type="line" smooth="yes"/>
      <point x="809" y="1329"/>
      <point x="764" y="1395"/>
      <point x="633" y="1395" type="curve" smooth="yes"/>
      <point x="553" y="1395"/>
      <point x="483" y="1372"/>
      <point x="430" y="1341" type="curve"/>
      <point x="510" y="1690" type="line"/>
      <point x="420" y="1690" type="line"/>
      <point x="195" y="1651" type="line"/>
      <point x="195" y="1606" type="line"/>
      <point x="311" y="1595" type="line"/>
      <point x="127" y="784" type="line"/>
      <point x="303" y="784" type="line"/>
      <point x="401" y="1214" type="line"/>
      <point x="455" y="1266"/>
      <point x="518" y="1303"/>
      <point x="559" y="1303" type="curve" smooth="yes"/>
      <point x="586" y="1303"/>
      <point x="618" y="1272"/>
      <point x="604" y="1212" type="curve" smooth="yes"/>
      <point x="524" y="854" type="line" smooth="yes"/>
      <point x="510" y="791"/>
      <point x="586" y="770"/>
    </contour>
  </outline>
</glyph>
<glyph name="ModSmHHook" format="2">
  <advance width="752"/>
  <unicode hex="02B1"/>
  <anchor x="476" y="725" name="L"/>
  <anchor x="655" y="1700" name="U"/>
  <outline>
    <contour>
      <point x="874" y="1577" type="curve" smooth="yes"/>
      <point x="874" y="1649"/>
      <point x="809" y="1690"/>
      <point x="639" y="1690" type="curve" smooth="yes"/>
      <point x="387" y="1690"/>
      <point x="287" y="1487"/>
      <point x="272" y="1421" type="curve" smooth="yes"/>
      <point x="127" y="784" type="line"/>
      <point x="303" y="784" type="line"/>
      <point x="401" y="1214" type="line"/>
      <point x="455" y="1266"/>
      <point x="518" y="1303"/>
      <point x="559" y="1303" type="curve" smooth="yes"/>
      <point x="586" y="1303"/>
      <point x="618" y="1272"/>
      <point x="604" y="1212" type="curve" smooth="yes"/>
      <point x="524" y="854" type="line" smooth="yes"/>
      <point x="510" y="791"/>
      <point x="586" y="770"/>
      <point x="647" y="770" type="curve" smooth="yes"/>
      <point x="719" y="770"/>
      <point x="786" y="788"/>
      <point x="854" y="817" type="curve"/>
      <point x="852" y="879" type="line"/>
      <point x="811" y="858"/>
      <point x="780" y="846"/>
      <point x="741" y="846" type="curve" smooth="yes"/>
      <point x="727" y="846"/>
      <point x="702" y="858"/>
      <point x="711" y="899" type="curve" smooth="yes"/>
      <point x="784" y="1227" type="line" smooth="yes"/>
      <point x="809" y="1329"/>
      <point x="764" y="1395"/>
      <point x="633" y="1395" type="curve" smooth="yes"/>
      <point x="553" y="1395"/>
      <point x="483" y="1372"/>
      <point x="430" y="1341" type="curve"/>
      <point x="449" y="1417" type="line" smooth="yes"/>
      <point x="479" y="1556"/>
      <point x="563" y="1614"/>
      <point x="633" y="1614" type="curve" smooth="yes"/>
      <point x="645" y="1614"/>
      <point x="686" y="1610"/>
      <point x="696" y="1602" type="curve"/>
      <point x="721" y="1497" type="line"/>
      <point x="721" y="1497"/>
      <point x="748" y="1487"/>
      <point x="778" y="1487" type="curve" smooth="yes"/>
      <point x="831" y="1487"/>
      <point x="874" y="1528"/>
    </contour>
  </outline>
</glyph>
<glyph name="ModSmJ" format="2">
  <advance width="428"/>
  <unicode hex="02B2"/>
  <anchor x="104" y="485" name="L"/>
  <anchor x="322" y="1650" name="U"/>
  <outline>
    <contour>
      <point x="518" y="1599" type="curve" smooth="yes"/>
      <point x="518" y="1653"/>
      <point x="471" y="1694"/>
      <point x="414" y="1694" type="curve" smooth="yes"/>
      <point x="356" y="1694"/>
      <point x="311" y="1653"/>
      <point x="311" y="1599" type="curve" smooth="yes"/>
      <point x="311" y="1546"/>
      <point x="356" y="1503"/>
      <point x="414" y="1503" type="curve" smooth="yes"/>
      <point x="471" y="1503"/>
      <point x="518" y="1546"/>
    </contour>
    <contour>
      <point x="471" y="1399" type="line"/>
      <point x="383" y="1399" type="line"/>
      <point x="164" y="1358" type="line"/>
      <point x="164" y="1315" type="line"/>
      <point x="276" y="1303" type="line"/>
      <point x="176" y="772" type="line" smooth="yes"/>
      <point x="166" y="713"/>
      <point x="137" y="641"/>
      <point x="115" y="606" type="curve"/>
      <point x="-12" y="639" type="line"/>
      <point x="-43" y="621"/>
      <point x="-68" y="602"/>
      <point x="-68" y="569" type="curve" smooth="yes"/>
      <point x="-68" y="530"/>
      <point x="-14" y="500"/>
      <point x="49" y="500" type="curve" smooth="yes"/>
      <point x="233" y="500"/>
      <point x="352" y="760"/>
      <point x="375" y="885" type="curve" smooth="yes"/>
    </contour>
  </outline>
</glyph>
<glyph name="ModGlottalStop" format="2">
  <advance width="639"/>
  <unicode hex="02C0"/>
  <anchor x="345" y="725" name="L"/>
  <anchor x="524" y="1700" name="U"/>
  <outline>
    <contour>
      <point x="109" y="784" type="line"/>
      <point x="520" y="784" type="line"/>
      <point x="520" y="848" type="line"/>
      <point x="442" y="852" type="line" smooth="yes"/>
      <point x="416" y="854"/>
      <point x="404" y="864"/>
      <point x="408" y="883" type="curve" smooth="yes"/>
      <point x="463" y="1139" type="line"/>
      <point x="614" y="1165"/>
      <point x="756" y="1292"/>
      <point x="756" y="1440" type="curve" smooth="yes"/>
      <point x="756" y="1573"/>
      <point x="627" y="1628"/>
      <point x="500" y="1628" type="curve" smooth="yes"/>
      <point x="399" y="1628"/>
      <point x="229" y="1593"/>
      <point x="229" y="1475" type="curve" smooth="yes"/>
      <point x="229" y="1440"/>
      <point x="258" y="1425"/>
      <point x="291" y="1425" type="curve" smooth="yes"/>
      <point x="311" y="1425"/>
      <point x="334" y="1430"/>
      <point x="352" y="1436" type="curve"/>
      <point x="422" y="1540" type="line"/>
      <point x="442" y="1552"/>
      <point x="461" y="1554"/>
      <point x="485" y="1554" type="curve" smooth="yes"/>
      <point x="553" y="1554"/>
      <point x="575" y="1497"/>
      <point x="575" y="1444" type="curve" smooth="yes"/>
      <point x="575" y="1300"/>
      <point x="428" y="1194"/>
      <point x="289" y="1157" type="curve"/>
      <point x="229" y="883" type="line" smooth="yes"/>
      <point x="225" y="866"/>
      <point x="209" y="854"/>
      <point x="188" y="852" type="curve" smooth="yes"/>
      <point x="109" y="848" type="line"/>
    </contour>
  </outline>
</glyph>
<glyph name="ModDwnArrwhd" format="2">
  <advance width="975"/>
  <unicode hex="02C5"/>
  <outline>
    <contour>
      <point x="872" y="1587" type="line"/>
      <point x="780" y="1587" type="line"/>
      <point x="487" y="928" type="line"/>
      <point x="195" y="1587" type="line"/>
      <point x="102" y="1587" type="line"/>
      <point x="442" y="850" type="line"/>
      <point x="532" y="850" type="line"/>
    </contour>
  </outline>
</glyph>
<glyph name="ModCntrdRtHalfRing" format="2">
  <advance width="588"/>
  <unicode hex="02D2"/>
  <outline>
    <contour>
      <point x="463" y="442" type="curve" smooth="yes"/>
      <point x="463" y="624"/>
      <point x="329" y="739"/>
      <point x="140" y="739" type="curve"/>
      <point x="109" y="582" type="line"/>
      <point x="229" y="582"/>
      <point x="288" y="511"/>
      <point x="288" y="413" type="curve" smooth="yes"/>
      <point x="288" y="275"/>
      <point x="195" y="157"/>
      <point x="27" y="157" type="curve"/>
      <point x="-4" y="0" type="line"/>
      <point x="345" y="0"/>
      <point x="463" y="242"/>
    </contour>
  </outline>
</glyph>
<glyph name="ModCntrdLftHalfRing" format="2">
  <advance width="588"/>
  <unicode hex="02D3"/>
  <outline>
    <contour>
      <point x="375" y="0" type="curve"/>
      <point x="406" y="157" type="line"/>
      <point x="286" y="157"/>
      <point x="227" y="227"/>
      <point x="227" y="325" type="curve" smooth="yes"/>
      <point x="227" y="454"/>
      <point x="313" y="582"/>
      <point x="488" y="582" type="curve"/>
      <point x="519" y="739" type="line"/>
      <point x="167" y="739"/>
      <point x="53" y="489"/>
      <point x="53" y="300" type="curve" smooth="yes"/>
      <point x="53" y="116"/>
      <point x="183" y="0"/>
    </contour>
  </outline>
</glyph>
<glyph name="ModUpTack" format="2">
  <advance width="850"/>
  <unicode hex="02D4"/>
  <outline>
    <contour>
      <point x="702" y="346" type="line"/>
      <point x="459" y="346" type="line"/>
      <point x="539" y="758" type="line"/>
      <point x="397" y="758" type="line"/>
      <point x="317" y="346" type="line"/>
      <point x="72" y="346" type="line"/>
      <point x="43" y="207" type="line"/>
      <point x="674" y="207" type="line"/>
    </contour>
  </outline>
</glyph>
<glyph name="ModDwnTack" format="2">
  <advance width="850"/>
  <unicode hex="02D5"/>
  <outline>
    <contour>
      <point x="782" y="758" type="line"/>
      <point x="152" y="758" type="line"/>
      <point x="125" y="614" type="line"/>
      <point x="371" y="614" type="line"/>
      <point x="289" y="207" type="line"/>
      <point x="430" y="207" type="line"/>
      <point x="512" y="614" type="line"/>
      <point x="756" y="614" type="line"/>
    </contour>
  </outline>
</glyph>
<glyph name="RingAbv" format="2">
  <advance width="518"/>
  <unicode hex="02DA"/>
  <outline>
    <contour>
      <point x="692" y="1438" type="curve" smooth="yes"/>
      <point x="692" y="1559"/>
      <point x="602" y="1645"/>
      <point x="481" y="1645" type="curve" smooth="yes"/>
      <point x="319" y="1645"/>
      <point x="166" y="1499"/>
      <point x="166" y="1335" type="curve" smooth="yes"/>
      <point x="166" y="1212"/>
      <point x="258" y="1128"/>
      <point x="379" y="1128" type="curve" smooth="yes"/>
      <point x="539" y="1128"/>
      <point x="692" y="1274"/>
    </contour>
    <contour>
      <point x="561" y="1411" type="curve" smooth="yes"/>
      <point x="561" y="1331"/>
      <point x="485" y="1257"/>
      <point x="403" y="1257" type="curve" smooth="yes"/>
      <point x="344" y="1257"/>
      <point x="297" y="1300"/>
      <point x="297" y="1362" type="curve" smooth="yes"/>
      <point x="297" y="1442"/>
      <point x="375" y="1516"/>
      <point x="455" y="1516" type="curve" smooth="yes"/>
      <point x="516" y="1516"/>
      <point x="561" y="1473"/>
    </contour>
  </outline>
</glyph>
<glyph name="SmTilde" format="2">
  <advance width="719"/>
  <unicode hex="02DC"/>
  <outline>
    <contour>
      <point x="129" y="1198" type="curve"/>
      <point x="240" y="1198" type="line"/>
      <point x="258" y="1253"/>
      <point x="305" y="1296"/>
      <point x="348" y="1296" type="curve" smooth="yes"/>
      <point x="471" y="1296"/>
      <point x="494" y="1198"/>
      <point x="602" y="1198" type="curve" smooth="yes"/>
      <point x="741" y="1198"/>
      <point x="838" y="1311"/>
      <point x="899" y="1452" type="curve"/>
      <point x="788" y="1452" type="line"/>
      <point x="772" y="1399"/>
      <point x="723" y="1356"/>
      <point x="680" y="1356" type="curve" smooth="yes"/>
      <point x="557" y="1356"/>
      <point x="535" y="1452"/>
      <point x="426" y="1452" type="curve" smooth="yes"/>
      <point x="289" y="1452"/>
      <point x="193" y="1339"/>
    </contour>
  </outline>
</glyph>
<glyph name="DblAcuteAccent" format="2">
  <advance width="940"/>
  <unicode hex="02DD"/>
  <outline>
    <contour>
      <point x="1114" y="1395" type="curve" smooth="yes"/>
      <point x="1114" y="1444"/>
      <point x="1085" y="1503"/>
      <point x="997" y="1503" type="curve" smooth="yes"/>
      <point x="942" y="1503"/>
      <point x="913" y="1489"/>
      <point x="868" y="1438" type="curve" smooth="yes"/>
      <point x="588" y="1128" type="line"/>
      <point x="731" y="1128" type="line"/>
      <point x="1063" y="1309" type="line" smooth="yes"/>
      <point x="1092" y="1325"/>
      <point x="1114" y="1368"/>
    </contour>
    <contour>
      <point x="645" y="1395" type="curve" smooth="yes"/>
      <point x="645" y="1444"/>
      <point x="616" y="1503"/>
      <point x="528" y="1503" type="curve" smooth="yes"/>
      <point x="473" y="1503"/>
      <point x="444" y="1489"/>
      <point x="399" y="1438" type="curve" smooth="yes"/>
      <point x="119" y="1128" type="line"/>
      <point x="262" y="1128" type="line"/>
      <point x="594" y="1309" type="line" smooth="yes"/>
      <point x="623" y="1325"/>
      <point x="645" y="1368"/>
    </contour>
  </outline>
</glyph>
<glyph name="ModRhoticHook" format="2">
  <advance width="377"/>
  <unicode hex="02DE"/>
  <anchor x="530" y="1000" name="R"/>
  <anchor x="0" y="1000" name="R_"/>
  <outline>
    <contour>
      <point x="188" y="502" type="curve" smooth="yes"/>
      <point x="346" y="502"/>
      <point x="408" y="643"/>
      <point x="446" y="737" type="curve"/>
      <point x="377" y="780" type="line"/>
      <point x="328" y="664"/>
      <point x="297" y="596"/>
      <point x="217" y="596" type="curve" smooth="yes"/>
      <point x="174" y="596"/>
      <point x="159" y="626"/>
      <point x="159" y="670" type="curve" smooth="yes"/>
      <point x="159" y="692"/>
      <point x="194" y="873"/>
      <point x="207" y="938" type="curve"/>
      <point x="135" y="979" type="line"/>
      <point x="-162" y="807" type="line"/>
      <point x="-135" y="721" type="line"/>
      <point x="92" y="856" type="line"/>
      <point x="79" y="800"/>
      <point x="55" y="693"/>
      <point x="55" y="651" type="curve" smooth="yes"/>
      <point x="55" y="574"/>
      <point x="103" y="502"/>
    </contour>
  </outline>
</glyph>
<glyph name="ModSmL" format="2">
  <advance width="406"/>
  <unicode hex="02E1"/>
  <anchor x="255" y="725" name="L"/>
  <anchor x="434" y="1700" name="U"/>
  <outline>
    <contour>
      <point x="516" y="819" type="curve"/>
      <point x="516" y="887" type="line"/>
      <point x="455" y="862"/>
      <point x="403" y="850"/>
      <point x="381" y="850" type="curve" smooth="yes"/>
      <point x="348" y="850"/>
      <point x="342" y="881"/>
      <point x="348" y="909" type="curve" smooth="yes"/>
      <point x="512" y="1690" type="line"/>
      <point x="424" y="1690" type="line"/>
      <point x="199" y="1651" type="line"/>
      <point x="199" y="1606" type="line"/>
      <point x="315" y="1595" type="line"/>
      <point x="170" y="907" type="line" smooth="yes"/>
      <point x="166" y="891"/>
      <point x="166" y="877"/>
      <point x="166" y="862" type="curve" smooth="yes"/>
      <point x="166" y="807"/>
      <point x="217" y="770"/>
      <point x="305" y="770" type="curve" smooth="yes"/>
      <point x="375" y="770"/>
      <point x="453" y="788"/>
    </contour>
  </outline>
</glyph>
<glyph name="ModSmS" format="2">
  <advance width="553"/>
  <unicode hex="02E2"/>
  <anchor x="303" y="725" name="L"/>
  <anchor x="434" y="1450" name="U"/>
  <outline>
    <contour>
      <point x="629" y="1305" type="curve" smooth="yes"/>
      <point x="629" y="1335"/>
      <point x="575" y="1399"/>
      <point x="465" y="1399" type="curve" smooth="yes"/>
      <point x="322" y="1399"/>
      <point x="197" y="1325"/>
      <point x="197" y="1208" type="curve" smooth="yes"/>
      <point x="197" y="1147"/>
      <point x="250" y="1094"/>
      <point x="305" y="1055" type="curve" smooth="yes"/>
      <point x="371" y="1008"/>
      <point x="416" y="975"/>
      <point x="416" y="924" type="curve" smooth="yes"/>
      <point x="416" y="866"/>
      <point x="389" y="829"/>
      <point x="336" y="829" type="curve" smooth="yes"/>
      <point x="299" y="829"/>
      <point x="246" y="844"/>
      <point x="225" y="868" type="curve"/>
      <point x="252" y="940" type="line"/>
      <point x="233" y="956"/>
      <point x="207" y="971"/>
      <point x="170" y="971" type="curve" smooth="yes"/>
      <point x="131" y="971"/>
      <point x="94" y="930"/>
      <point x="94" y="887" type="curve" smooth="yes"/>
      <point x="94" y="827"/>
      <point x="156" y="770"/>
      <point x="297" y="770" type="curve" smooth="yes"/>
      <point x="496" y="770"/>
      <point x="592" y="870"/>
      <point x="592" y="967" type="curve" smooth="yes"/>
      <point x="592" y="1026"/>
      <point x="535" y="1073"/>
      <point x="475" y="1116" type="curve" smooth="yes"/>
      <point x="418" y="1157"/>
      <point x="356" y="1204"/>
      <point x="356" y="1255" type="curve" smooth="yes"/>
      <point x="356" y="1286"/>
      <point x="360" y="1331"/>
      <point x="414" y="1331" type="curve" smooth="yes"/>
      <point x="429" y="1331"/>
      <point x="443" y="1328"/>
      <point x="449" y="1325" type="curve"/>
      <point x="516" y="1219" type="line"/>
      <point x="598" y="1223"/>
      <point x="629" y="1249"/>
    </contour>
  </outline>
</glyph>
<glyph name="ModSmRevGlottalStop" format="2">
  <advance width="564"/>
  <unicode hex="02E4"/>
  <anchor x="343" y="725" name="L"/>
  <anchor x="490" y="1445" name="U"/>
  <outline>
    <contour>
      <point x="180" y="785" type="line"/>
      <point x="544" y="785" type="line"/>
      <point x="544" y="843" type="line"/>
      <point x="469" y="846" type="line"/>
      <point x="460" y="846"/>
      <point x="455" y="852"/>
      <point x="457" y="861" type="curve" smooth="yes"/>
      <point x="494" y="1056" type="line"/>
      <point x="432" y="1073"/>
      <point x="361" y="1127"/>
      <point x="361" y="1206" type="curve" smooth="yes"/>
      <point x="361" y="1309"/>
      <point x="415" y="1334"/>
      <point x="497" y="1334" type="curve"/>
      <point x="517" y="1194" type="line"/>
      <point x="530" y="1191"/>
      <point x="544" y="1190"/>
      <point x="557" y="1190" type="curve"/>
      <point x="625" y="1190"/>
      <point x="669" y="1238"/>
      <point x="669" y="1289" type="curve" smooth="yes"/>
      <point x="669" y="1334"/>
      <point x="626" y="1399"/>
      <point x="496" y="1399" type="curve" smooth="yes"/>
      <point x="331" y="1399"/>
      <point x="180" y="1340"/>
      <point x="180" y="1207" type="curve" smooth="yes"/>
      <point x="180" y="1116"/>
      <point x="260" y="1064"/>
      <point x="315" y="1044" type="curve"/>
      <point x="279" y="861" type="line" smooth="yes"/>
      <point x="277" y="852"/>
      <point x="270" y="846"/>
      <point x="261" y="846" type="curve"/>
      <point x="180" y="843" type="line"/>
    </contour>
  </outline>
</glyph>
<glyph name="ModYangDepartingToneMrk" format="2">
  <advance width="727"/>
  <unicode hex="02EB"/>
  <outline>
    <contour>
      <point x="641" y="557" type="line"/>
      <point x="272" y="557" type="line"/>
      <point x="322" y="805" type="line"/>
      <point x="178" y="805" type="line"/>
      <point x="53" y="172" type="line"/>
      <point x="197" y="172" type="line"/>
      <point x="244" y="416" type="line"/>
      <point x="612" y="416" type="line"/>
    </contour>
  </outline>
</glyph>
<glyph name="ModUnaspd" format="2">
  <advance width="1010"/>
  <unicode hex="02ED"/>
  <outline>
    <contour>
      <point x="949" y="960" type="line"/>
      <point x="123" y="960" type="line"/>
      <point x="90" y="795" type="line"/>
      <point x="918" y="795" type="line"/>
    </contour>
    <contour>
      <point x="1010" y="1235" type="line"/>
      <point x="184" y="1235" type="line"/>
      <point x="151" y="1070" type="line"/>
      <point x="979" y="1070" type="line"/>
    </contour>
  </outline>
</glyph>
<glyph name="CombAcute" format="2">
  <unicode hex="0301"/>
  <anchor x="-399" y="1500" name="U"/>
  <anchor x="-443" y="1100" name="_U"/>
  <outline>
    <contour>
      <point x="-87" y="1395" type="curve" smooth="yes"/>
      <point x="-87" y="1444"/>
      <point x="-116" y="1503"/>
      <point x="-204" y="1503" type="curve" smooth="yes"/>
      <point x="-259" y="1503"/>
      <point x="-288" y="1488"/>
      <point x="-333" y="1438" type="curve" smooth="yes"/>
      <point x="-614" y="1128" type="line"/>
      <point x="-470" y="1128" type="line"/>
      <point x="-141" y="1309" type="line" smooth="yes"/>
      <point x="-111" y="1325"/>
      <point x="-87" y="1368"/>
    </contour>
  </outline>
</glyph>
<glyph name="CombVertLineAbv" format="2">
  <unicode hex="030D"/>
  <anchor x="-399" y="1500" name="U"/>
  <anchor x="-443" y="1100" name="_U"/>
  <outline>
    <contour>
      <point x="-298" y="1505" type="line"/>
      <point x="-425" y="1505" type="line"/>
      <point x="-498" y="1128" type="line"/>
      <point x="-373" y="1128" type="line"/>
    </contour>
  </outline>
</glyph>
<glyph name="CombDblVertLineAbv" format="2">
  <unicode hex="030E"/>
  <anchor x="-399" y="1500" name="U"/>
  <anchor x="-443" y="1100" name="_U"/>
  <outline>
    <contour>
      <point x="-157" y="1505" type="line"/>
      <point x="-284" y="1505" type="line"/>
      <point x="-360" y="1128" type="line"/>
      <point x="-233" y="1128" type="line"/>
    </contour>
    <contour>
      <point x="-438" y="1505" type="line"/>
      <point x="-565" y="1505" type="line"/>
      <point x="-638" y="1128" type="line"/>
      <point x="-513" y="1128" type="line"/>
    </contour>
  </outline>
</glyph>
<glyph name="CombCommaAbvRt" format="2">
  <advance width="315"/>
  <unicode hex="0315"/>
  <anchor x="0" y="1200" name="R_"/>
  <outline>
    <contour>
      <point x="489" y="1634" type="curve" smooth="yes"/>
      <point x="489" y="1720"/>
      <point x="426" y="1771"/>
      <point x="342" y="1771" type="curve" smooth="yes"/>
      <point x="262" y="1771"/>
      <point x="178" y="1720"/>
      <point x="178" y="1630" type="curve" smooth="yes"/>
      <point x="178" y="1605"/>
      <point x="186" y="1580"/>
      <point x="205" y="1562" type="curve"/>
      <point x="334" y="1562" type="line"/>
      <point x="317" y="1486"/>
      <point x="225" y="1429"/>
      <point x="158" y="1410" type="curve"/>
      <point x="141" y="1328" type="line"/>
      <point x="287" y="1355"/>
      <point x="489" y="1462"/>
    </contour>
  </outline>
</glyph>
<glyph name="CombLftTackBlw" format="2">
  <unicode hex="0318"/>
  <anchor x="-763" y="-500" name="L"/>
  <anchor x="-687" y="-100" name="_L"/>
  <outline>
    <contour>
      <point x="-552" y="-125" type="line"/>
      <point x="-663" y="-125" type="line"/>
      <point x="-692" y="-268" type="line"/>
      <point x="-866" y="-268" type="line"/>
      <point x="-888" y="-381" type="line"/>
      <point x="-714" y="-381" type="line"/>
      <point x="-743" y="-522" type="line"/>
      <point x="-630" y="-522" type="line"/>
    </contour>
  </outline>
</glyph>
<glyph name="CombHorn" format="2">
  <advance width="238"/>
  <unicode hex="031B"/>
  <anchor x="0" y="1000" name="R_"/>
  <outline>
    <contour>
      <point x="-139" y="742" type="line"/>
      <point x="61" y="803"/>
      <point x="213" y="984"/>
      <point x="240" y="1119" type="curve" smooth="yes"/>
      <point x="267" y="1252"/>
      <point x="215" y="1320"/>
      <point x="123" y="1320" type="curve" smooth="yes"/>
      <point x="56" y="1320"/>
      <point x="-30" y="1287"/>
      <point x="-50" y="1187" type="curve" smooth="yes"/>
      <point x="-61" y="1130"/>
      <point x="-31" y="1072"/>
      <point x="-31" y="1072" type="curve"/>
      <point x="120" y="1072" type="line"/>
      <point x="95" y="953"/>
      <point x="-15" y="871"/>
      <point x="-122" y="830" type="curve"/>
    </contour>
  </outline>
</glyph>
<glyph name="CombUpTackBlw" format="2">
  <unicode hex="031D"/>
  <anchor x="-763" y="-500" name="L"/>
  <anchor x="-687" y="-100" name="_L"/>
  <outline>
    <contour>
      <point x="-536" y="-289" type="line"/>
      <point x="-669" y="-289" type="line"/>
      <point x="-638" y="-125" type="line"/>
      <point x="-749" y="-125" type="line"/>
      <point x="-782" y="-289" type="line"/>
      <point x="-915" y="-289" type="line"/>
      <point x="-937" y="-399" type="line"/>
      <point x="-559" y="-399" type="line"/>
    </contour>
  </outline>
</glyph>
<glyph name="CombDotBlw" format="2">
  <unicode hex="0323"/>
  <anchor x="-763" y="-500" name="L"/>
  <anchor x="-687" y="-100" name="_L"/>
  <outline>
    <contour>
      <point x="-593" y="-324" type="curve" smooth="yes"/>
      <point x="-593" y="-240"/>
      <point x="-655" y="-174"/>
      <point x="-735" y="-174" type="curve" smooth="yes"/>
      <point x="-817" y="-174"/>
      <point x="-872" y="-242"/>
      <point x="-872" y="-324" type="curve" smooth="yes"/>
      <point x="-872" y="-403"/>
      <point x="-813" y="-463"/>
      <point x="-733" y="-463" type="curve" smooth="yes"/>
      <point x="-653" y="-463"/>
      <point x="-593" y="-399"/>
    </contour>
  </outline>
</glyph>
<glyph name="CombDiaerBlw" format="2">
  <unicode hex="0324"/>
  <anchor x="-763" y="-500" name="L"/>
  <anchor x="-687" y="-100" name="_L"/>
  <outline>
    <contour>
      <point x="-375" y="-315" type="curve" smooth="yes"/>
      <point x="-375" y="-238"/>
      <point x="-439" y="-174"/>
      <point x="-517" y="-174" type="curve" smooth="yes"/>
      <point x="-594" y="-174"/>
      <point x="-658" y="-238"/>
      <point x="-658" y="-315" type="curve" smooth="yes"/>
      <point x="-658" y="-393"/>
      <point x="-594" y="-457"/>
      <point x="-517" y="-457" type="curve" smooth="yes"/>
      <point x="-439" y="-457"/>
      <point x="-375" y="-393"/>
    </contour>
    <contour>
      <point x="-807" y="-315" type="curve" smooth="yes"/>
      <point x="-807" y="-238"/>
      <point x="-871" y="-174"/>
      <point x="-949" y="-174" type="curve" smooth="yes"/>
      <point x="-1027" y="-174"/>
      <point x="-1088" y="-238"/>
      <point x="-1088" y="-315" type="curve" smooth="yes"/>
      <point x="-1088" y="-393"/>
      <point x="-1027" y="-457"/>
      <point x="-949" y="-457" type="curve" smooth="yes"/>
      <point x="-871" y="-457"/>
      <point x="-807" y="-393"/>
    </contour>
  </outline>
</glyph>
